<svg width="557" height="388" viewBox="0 0 557 388" fill="none" xmlns="http://www.w3.org/2000/svg">
<line x1="15.5" y1="69" x2="15.5" y2="375" stroke="#EAEDEF"/>
<path d="M83.5 359C83.5 357.067 81.933 355.5 80 355.5H4C2.06701 355.5 0.5 357.067 0.5 359V384C0.5 385.933 2.06701 387.5 4 387.5H80C81.933 387.5 83.5 385.933 83.5 384V359Z" fill="#17A17E" stroke="#D0D7DC"/>
<path d="M21.095 375L17.951 366.996H16.199L13.055 375H14.651L15.239 373.464H18.911L19.499 375H21.095ZM18.515 372.228H15.635L17.075 368.412L18.515 372.228ZM27.2732 375V366.996H26.0132V370.008C25.5452 369.396 24.8732 369.06 24.1532 369.06C22.6532 369.06 21.5732 370.236 21.5732 372.108C21.5732 374.016 22.6652 375.144 24.1532 375.144C24.8972 375.144 25.5692 374.784 26.0132 374.208V375H27.2732ZM24.5132 374.028C23.5172 374.028 22.8812 373.224 22.8812 372.108C22.8812 370.98 23.5172 370.176 24.5132 370.176C25.1132 370.176 25.7252 370.524 26.0132 370.956V373.26C25.7252 373.692 25.1132 374.028 24.5132 374.028ZM34.2458 375V366.996H32.9858V370.008C32.5178 369.396 31.8458 369.06 31.1258 369.06C29.6258 369.06 28.5458 370.236 28.5458 372.108C28.5458 374.016 29.6378 375.144 31.1258 375.144C31.8698 375.144 32.5418 374.784 32.9858 374.208V375H34.2458ZM31.4858 374.028C30.4898 374.028 29.8538 373.224 29.8538 372.108C29.8538 370.98 30.4898 370.176 31.4858 370.176C32.0858 370.176 32.6978 370.524 32.9858 370.956V373.26C32.6978 373.692 32.0858 374.028 31.4858 374.028ZM43.7605 375V371.16C43.7605 369.6 42.6325 369.06 41.3485 369.06C40.4245 369.06 39.5845 369.36 38.9125 369.996L39.4285 370.872C39.9325 370.38 40.4965 370.14 41.1445 370.14C41.9485 370.14 42.5005 370.548 42.5005 371.22V372.084C42.0805 371.592 41.4085 371.34 40.6285 371.34C39.6805 371.34 38.6125 371.892 38.6125 373.224C38.6125 374.508 39.6805 375.144 40.6285 375.144C41.3965 375.144 42.0685 374.868 42.5005 374.376V375H43.7605ZM41.1205 374.28C40.4125 374.28 39.8845 373.872 39.8845 373.248C39.8845 372.612 40.4125 372.204 41.1205 372.204C41.6725 372.204 42.2125 372.408 42.5005 372.804V373.68C42.2125 374.076 41.6725 374.28 41.1205 374.28ZM48.0341 375.144C49.1621 375.144 49.8461 374.664 50.2541 374.112L49.4261 373.344C49.1021 373.788 48.6581 374.028 48.0941 374.028C47.0381 374.028 46.3421 373.224 46.3421 372.096C46.3421 370.968 47.0381 370.176 48.0941 370.176C48.6581 370.176 49.1021 370.404 49.4261 370.86L50.2541 370.092C49.8461 369.54 49.1621 369.06 48.0341 369.06C46.2701 369.06 45.0341 370.344 45.0341 372.096C45.0341 373.86 46.2701 375.144 48.0341 375.144ZM53.099 375.144C53.687 375.144 54.059 374.988 54.287 374.772L53.987 373.824C53.891 373.932 53.663 374.028 53.423 374.028C53.063 374.028 52.871 373.74 52.871 373.344V370.308H54.047V369.204H52.871V367.62H51.611V369.204H50.651V370.308H51.611V373.656C51.611 374.616 52.127 375.144 53.099 375.144ZM55.815 368.496C56.247 368.496 56.595 368.148 56.595 367.716C56.595 367.284 56.247 366.936 55.815 366.936C55.395 366.936 55.035 367.284 55.035 367.716C55.035 368.148 55.395 368.496 55.815 368.496ZM56.451 375V369.204H55.191V375H56.451ZM60.7015 375.144C62.5615 375.144 63.6895 373.764 63.6895 372.096C63.6895 370.44 62.5615 369.06 60.7015 369.06C58.8655 369.06 57.7255 370.44 57.7255 372.096C57.7255 373.764 58.8655 375.144 60.7015 375.144ZM60.7015 374.028C59.6335 374.028 59.0335 373.128 59.0335 372.096C59.0335 371.076 59.6335 370.176 60.7015 370.176C61.7815 370.176 62.3815 371.076 62.3815 372.096C62.3815 373.128 61.7815 374.028 60.7015 374.028ZM70.1364 375V370.92C70.1364 369.732 69.5124 369.06 68.2644 369.06C67.3524 369.06 66.6084 369.54 66.2244 369.996V369.204H64.9644V375H66.2244V370.956C66.5124 370.56 67.0644 370.176 67.7124 370.176C68.4204 370.176 68.8764 370.476 68.8764 371.376V375H70.1364Z" fill="white"/>
<g filter="url(#filter0_d)">
<path d="M42 41C42 38.7909 43.7909 37 46 37H286C288.209 37 290 38.7909 290 41V98C290 100.209 288.209 102 286 102H46C43.7909 102 42 100.209 42 98V41Z" fill="white"/>
<path d="M42.5 41C42.5 39.067 44.067 37.5 46 37.5H286C287.933 37.5 289.5 39.067 289.5 41V98C289.5 99.933 287.933 101.5 286 101.5H46C44.067 101.5 42.5 99.933 42.5 98V41Z" stroke="#EAEDEF"/>
</g>
<g filter="url(#filter1_d)">
<path d="M42 118C42 115.791 43.7909 114 46 114H286C288.209 114 290 115.791 290 118V175C290 177.209 288.209 179 286 179H46C43.7909 179 42 177.209 42 175V118Z" fill="white"/>
<path d="M42.5 118C42.5 116.067 44.067 114.5 46 114.5H286C287.933 114.5 289.5 116.067 289.5 118V175C289.5 176.933 287.933 178.5 286 178.5H46C44.067 178.5 42.5 176.933 42.5 175V118Z" stroke="#EAEDEF"/>
</g>
<g filter="url(#filter2_d)">
<path d="M42 195C42 192.791 43.7909 191 46 191H286C288.209 191 290 192.791 290 195V252C290 254.209 288.209 256 286 256H46C43.7909 256 42 254.209 42 252V195Z" fill="white"/>
<path d="M42.5 195C42.5 193.067 44.067 191.5 46 191.5H286C287.933 191.5 289.5 193.067 289.5 195V252C289.5 253.933 287.933 255.5 286 255.5H46C44.067 255.5 42.5 253.933 42.5 252V195Z" stroke="#EAEDEF"/>
</g>
<g filter="url(#filter3_d)">
<path d="M42 272C42 269.791 43.7909 268 46 268H286C288.209 268 290 269.791 290 272V329C290 331.209 288.209 333 286 333H46C43.7909 333 42 331.209 42 329V272Z" fill="white"/>
<path d="M42.5 272C42.5 270.067 44.067 268.5 46 268.5H286C287.933 268.5 289.5 270.067 289.5 272V329C289.5 330.933 287.933 332.5 286 332.5H46C44.067 332.5 42.5 330.933 42.5 329V272Z" stroke="#EAEDEF"/>
</g>
<path d="M6.748 13V11.558H2.632V3.662H0.994V13H6.748ZM14.6244 13V11.558H9.86442V8.968H14.5264V7.526H9.86442V5.104H14.6244V3.662H8.22642V13H14.6244ZM24.7065 13L21.0385 3.662H18.9945L15.3265 13H17.1885L17.8745 11.208H22.1585L22.8445 13H24.7065ZM21.6965 9.766H18.3365L20.0165 5.314L21.6965 9.766ZM29.1984 13C32.1104 13 34.0844 11.082 34.0844 8.338C34.0844 5.594 32.1104 3.662 29.1984 3.662H25.7264V13H29.1984ZM29.1984 11.558H27.3644V5.104H29.1984C31.2844 5.104 32.4044 6.532 32.4044 8.338C32.4044 10.102 31.2284 11.558 29.1984 11.558ZM40.8996 13V8.968H45.5616V7.526H40.8996V5.104H45.6596V3.662H39.2616V13H40.8996ZM51.4769 13.168C54.2769 13.168 56.2509 11.124 56.2509 8.338C56.2509 5.552 54.2769 3.508 51.4769 3.508C48.6769 3.508 46.7029 5.552 46.7029 8.338C46.7029 11.124 48.6769 13.168 51.4769 13.168ZM51.4769 11.712C49.5869 11.712 48.3829 10.256 48.3829 8.338C48.3829 6.406 49.5869 4.964 51.4769 4.964C53.3529 4.964 54.5709 6.406 54.5709 8.338C54.5709 10.256 53.3529 11.712 51.4769 11.712ZM63.582 13V11.558H59.466V3.662H57.828V13H63.582ZM70.8144 13V11.558H66.6984V3.662H65.0604V13H70.8144ZM76.223 13.168C79.023 13.168 80.997 11.124 80.997 8.338C80.997 5.552 79.023 3.508 76.223 3.508C73.423 3.508 71.449 5.552 71.449 8.338C71.449 11.124 73.423 13.168 76.223 13.168ZM76.223 11.712C74.333 11.712 73.129 10.256 73.129 8.338C73.129 6.406 74.333 4.964 76.223 4.964C78.099 4.964 79.317 6.406 79.317 8.338C79.317 10.256 78.099 11.712 76.223 11.712ZM91.1906 13L93.8506 3.662H92.0166L90.2106 10.858L88.2786 3.662H86.9766L85.0446 10.858L83.2246 3.662H81.3906L84.0646 13H85.8146L87.6206 6.112L89.4406 13H91.1906ZM97.2409 10.242V8.982H93.8809V10.242H97.2409ZM102.698 13.168C105.4 13.168 106.73 11.628 106.73 9.304V3.662H105.078V9.262C105.078 10.746 104.252 11.712 102.698 11.712C101.13 11.712 100.304 10.746 100.304 9.262V3.662H98.6522V9.318C98.6522 11.614 99.9822 13.168 102.698 13.168ZM110.353 13V9.514H112.817C114.763 9.514 115.869 8.17 115.869 6.588C115.869 5.006 114.777 3.662 112.817 3.662H108.715V13H110.353ZM112.593 8.072H110.353V5.104H112.593C113.517 5.104 114.189 5.692 114.189 6.588C114.189 7.484 113.517 8.072 112.593 8.072ZM129.718 13L132.378 3.662H130.544L128.738 10.858L126.806 3.662H125.504L123.572 10.858L121.752 3.662H119.918L122.592 13H124.342L126.148 6.112L127.968 13H129.718ZM137.555 13.168C140.355 13.168 142.329 11.124 142.329 8.338C142.329 5.552 140.355 3.508 137.555 3.508C134.755 3.508 132.781 5.552 132.781 8.338C132.781 11.124 134.755 13.168 137.555 13.168ZM137.555 11.712C135.665 11.712 134.461 10.256 134.461 8.338C134.461 6.406 135.665 4.964 137.555 4.964C139.431 4.964 140.649 6.406 140.649 8.338C140.649 10.256 139.431 11.712 137.555 11.712ZM151.13 13L148.848 9.332C149.968 9.15 151.06 8.254 151.06 6.588C151.06 4.866 149.856 3.662 148.008 3.662H143.906V13H145.544V9.514H147.168L149.24 13H151.13ZM147.784 8.072H145.544V5.104H147.784C148.708 5.104 149.38 5.692 149.38 6.588C149.38 7.484 148.708 8.072 147.784 8.072ZM160.299 13L156.225 8.072L160.019 3.662H157.989L154.335 8.114V3.662H152.697V13H154.335V10.018L155.147 9.066L158.283 13H160.299ZM163.03 13V8.968H167.692V7.526H163.03V5.104H167.79V3.662H161.392V13H163.03ZM175.008 13V11.558H170.892V3.662H169.254V13H175.008ZM180.416 13.168C183.216 13.168 185.19 11.124 185.19 8.338C185.19 5.552 183.216 3.508 180.416 3.508C177.616 3.508 175.642 5.552 175.642 8.338C175.642 11.124 177.616 13.168 180.416 13.168ZM180.416 11.712C178.526 11.712 177.322 10.256 177.322 8.338C177.322 6.406 178.526 4.964 180.416 4.964C182.292 4.964 183.51 6.406 183.51 8.338C183.51 10.256 182.292 11.712 180.416 11.712ZM195.384 13L198.044 3.662H196.21L194.404 10.858L192.472 3.662H191.17L189.238 10.858L187.418 3.662H185.584L188.258 13H190.008L191.814 6.112L193.634 13H195.384Z" fill="#121517"/>
<path d="M65.588 62.144C67.748 62.144 68.684 61.004 68.684 59.672C68.684 56.684 64.028 57.608 64.028 56.12C64.028 55.52 64.556 55.124 65.384 55.124C66.224 55.124 67.076 55.412 67.7 56.036L68.504 54.992C67.76 54.272 66.752 53.876 65.504 53.876C63.752 53.876 62.588 54.896 62.588 56.216C62.588 59.168 67.256 58.124 67.256 59.804C67.256 60.332 66.8 60.896 65.648 60.896C64.532 60.896 63.668 60.38 63.116 59.792L62.336 60.872C63.044 61.628 64.112 62.144 65.588 62.144ZM72.617 62.144C73.541 62.144 74.393 61.856 74.969 61.304L74.393 60.476C73.985 60.884 73.313 61.112 72.749 61.112C71.657 61.112 70.997 60.392 70.901 59.516H75.377V59.216C75.377 57.392 74.261 56.06 72.521 56.06C70.805 56.06 69.581 57.416 69.581 59.096C69.581 60.932 70.877 62.144 72.617 62.144ZM74.153 58.628H70.889C70.949 57.92 71.441 57.092 72.521 57.092C73.661 57.092 74.129 57.944 74.153 58.628ZM81.7927 62V57.92C81.7927 56.732 81.1687 56.06 79.9207 56.06C79.0087 56.06 78.2647 56.54 77.8807 56.996V56.204H76.6207V62H77.8807V57.956C78.1687 57.56 78.7207 57.176 79.3687 57.176C80.0767 57.176 80.5327 57.476 80.5327 58.376V62H81.7927ZM88.7693 62V53.996H87.5093V57.008C87.0413 56.396 86.3693 56.06 85.6493 56.06C84.1493 56.06 83.0693 57.236 83.0693 59.108C83.0693 61.016 84.1613 62.144 85.6493 62.144C86.3933 62.144 87.0653 61.784 87.5093 61.208V62H88.7693ZM86.0093 61.028C85.0133 61.028 84.3773 60.224 84.3773 59.108C84.3773 57.98 85.0133 57.176 86.0093 57.176C86.6093 57.176 87.2213 57.524 87.5093 57.956V60.26C87.2213 60.692 86.6093 61.028 86.0093 61.028ZM98.824 62V53.996H97.564V57.008C97.096 56.396 96.424 56.06 95.704 56.06C94.204 56.06 93.124 57.236 93.124 59.108C93.124 61.016 94.216 62.144 95.704 62.144C96.448 62.144 97.12 61.784 97.564 61.208V62H98.824ZM96.064 61.028C95.068 61.028 94.432 60.224 94.432 59.108C94.432 57.98 95.068 57.176 96.064 57.176C96.664 57.176 97.276 57.524 97.564 57.956V60.26C97.276 60.692 96.664 61.028 96.064 61.028ZM103.133 62.144C104.057 62.144 104.909 61.856 105.485 61.304L104.909 60.476C104.501 60.884 103.829 61.112 103.265 61.112C102.173 61.112 101.513 60.392 101.417 59.516H105.893V59.216C105.893 57.392 104.777 56.06 103.037 56.06C101.321 56.06 100.097 57.416 100.097 59.096C100.097 60.932 101.393 62.144 103.133 62.144ZM104.669 58.628H101.405C101.465 57.92 101.957 57.092 103.037 57.092C104.177 57.092 104.645 57.944 104.669 58.628ZM109.116 62.144C110.676 62.144 111.528 61.364 111.528 60.344C111.528 58.04 108.024 58.808 108.024 57.776C108.024 57.368 108.444 57.068 109.104 57.068C109.824 57.068 110.472 57.368 110.82 57.764L111.348 56.876C110.82 56.408 110.076 56.06 109.092 56.06C107.628 56.06 106.812 56.876 106.812 57.824C106.812 60.044 110.316 59.228 110.316 60.368C110.316 60.824 109.932 61.148 109.176 61.148C108.42 61.148 107.616 60.752 107.208 60.332L106.632 61.244C107.232 61.832 108.132 62.144 109.116 62.144ZM113.42 55.496C113.852 55.496 114.2 55.148 114.2 54.716C114.2 54.284 113.852 53.936 113.42 53.936C113 53.936 112.64 54.284 112.64 54.716C112.64 55.148 113 55.496 113.42 55.496ZM114.056 62V56.204H112.796V62H114.056ZM118.043 64.352C119.471 64.352 121.019 63.788 121.019 61.7V56.204H119.759V57.008C119.291 56.396 118.631 56.06 117.899 56.06C116.411 56.06 115.331 57.164 115.331 59.036C115.331 60.944 116.423 62.012 117.899 62.012C118.655 62.012 119.315 61.628 119.759 61.052V61.748C119.759 62.936 118.871 63.32 118.043 63.32C117.275 63.32 116.675 63.116 116.207 62.576L115.619 63.488C116.327 64.136 117.059 64.352 118.043 64.352ZM118.271 60.896C117.275 60.896 116.639 60.152 116.639 59.036C116.639 57.92 117.275 57.176 118.271 57.176C118.859 57.176 119.483 57.524 119.759 57.956V60.116C119.483 60.548 118.859 60.896 118.271 60.896ZM127.824 62V57.92C127.824 56.732 127.2 56.06 125.952 56.06C125.04 56.06 124.296 56.54 123.912 56.996V56.204H122.652V62H123.912V57.956C124.2 57.56 124.752 57.176 125.4 57.176C126.108 57.176 126.564 57.476 126.564 58.376V62H127.824ZM135.099 61.028C134.103 61.028 133.467 60.224 133.467 59.096C133.467 57.98 134.103 57.176 135.099 57.176C135.687 57.176 136.311 57.524 136.587 57.956V60.248C136.311 60.668 135.687 61.028 135.099 61.028ZM134.727 62.144C135.459 62.144 136.119 61.82 136.587 61.196V64.208H137.847V56.204H136.587V56.996C136.155 56.42 135.483 56.06 134.727 56.06C133.227 56.06 132.159 57.188 132.159 59.096C132.159 61.004 133.227 62.144 134.727 62.144ZM144.652 62V56.204H143.392V60.272C143.092 60.668 142.54 61.028 141.904 61.028C141.196 61.028 140.74 60.752 140.74 59.852V56.204H139.48V60.308C139.48 61.496 140.092 62.144 141.34 62.144C142.252 62.144 142.972 61.7 143.392 61.232V62H144.652ZM148.965 62.144C149.889 62.144 150.741 61.856 151.317 61.304L150.741 60.476C150.333 60.884 149.661 61.112 149.097 61.112C148.005 61.112 147.345 60.392 147.249 59.516H151.725V59.216C151.725 57.392 150.609 56.06 148.869 56.06C147.153 56.06 145.929 57.416 145.929 59.096C145.929 60.932 147.225 62.144 148.965 62.144ZM150.501 58.628H147.237C147.297 57.92 147.789 57.092 148.869 57.092C150.009 57.092 150.477 57.944 150.501 58.628ZM154.948 62.144C156.508 62.144 157.36 61.364 157.36 60.344C157.36 58.04 153.856 58.808 153.856 57.776C153.856 57.368 154.276 57.068 154.936 57.068C155.656 57.068 156.304 57.368 156.652 57.764L157.18 56.876C156.652 56.408 155.908 56.06 154.924 56.06C153.46 56.06 152.644 56.876 152.644 57.824C152.644 60.044 156.148 59.228 156.148 60.368C156.148 60.824 155.764 61.148 155.008 61.148C154.252 61.148 153.448 60.752 153.04 60.332L152.464 61.244C153.064 61.832 153.964 62.144 154.948 62.144ZM160.369 62.144C160.957 62.144 161.329 61.988 161.557 61.772L161.257 60.824C161.161 60.932 160.933 61.028 160.693 61.028C160.333 61.028 160.141 60.74 160.141 60.344V57.308H161.317V56.204H160.141V54.62H158.881V56.204H157.921V57.308H158.881V60.656C158.881 61.616 159.396 62.144 160.369 62.144ZM163.085 55.496C163.517 55.496 163.865 55.148 163.865 54.716C163.865 54.284 163.517 53.936 163.085 53.936C162.665 53.936 162.305 54.284 162.305 54.716C162.305 55.148 162.665 55.496 163.085 55.496ZM163.721 62V56.204H162.461V62H163.721ZM167.971 62.144C169.831 62.144 170.959 60.764 170.959 59.096C170.959 57.44 169.831 56.06 167.971 56.06C166.135 56.06 164.995 57.44 164.995 59.096C164.995 60.764 166.135 62.144 167.971 62.144ZM167.971 61.028C166.903 61.028 166.303 60.128 166.303 59.096C166.303 58.076 166.903 57.176 167.971 57.176C169.051 57.176 169.651 58.076 169.651 59.096C169.651 60.128 169.051 61.028 167.971 61.028ZM177.406 62V57.92C177.406 56.732 176.782 56.06 175.534 56.06C174.622 56.06 173.878 56.54 173.494 56.996V56.204H172.234V62H173.494V57.956C173.782 57.56 174.334 57.176 174.982 57.176C175.69 57.176 176.146 57.476 176.146 58.376V62H177.406ZM184.215 62V57.92C184.215 56.732 183.591 56.06 182.343 56.06C181.431 56.06 180.687 56.54 180.303 56.996V56.204H179.043V62H180.303V57.956C180.591 57.56 181.143 57.176 181.791 57.176C182.499 57.176 182.955 57.476 182.955 58.376V62H184.215ZM190.651 62V58.16C190.651 56.6 189.523 56.06 188.239 56.06C187.315 56.06 186.475 56.36 185.803 56.996L186.319 57.872C186.823 57.38 187.387 57.14 188.035 57.14C188.839 57.14 189.391 57.548 189.391 58.22V59.084C188.971 58.592 188.299 58.34 187.519 58.34C186.571 58.34 185.503 58.892 185.503 60.224C185.503 61.508 186.571 62.144 187.519 62.144C188.287 62.144 188.959 61.868 189.391 61.376V62H190.651ZM188.011 61.28C187.303 61.28 186.775 60.872 186.775 60.248C186.775 59.612 187.303 59.204 188.011 59.204C188.563 59.204 189.103 59.408 189.391 59.804V60.68C189.103 61.076 188.563 61.28 188.011 61.28ZM192.909 55.496C193.341 55.496 193.689 55.148 193.689 54.716C193.689 54.284 193.341 53.936 192.909 53.936C192.489 53.936 192.129 54.284 192.129 54.716C192.129 55.148 192.489 55.496 192.909 55.496ZM193.545 62V56.204H192.285V62H193.545ZM196.439 62V58.052C196.691 57.644 197.399 57.284 197.927 57.284C198.083 57.284 198.215 57.296 198.323 57.32V56.072C197.567 56.072 196.871 56.504 196.439 57.056V56.204H195.179V62H196.439ZM202.015 62.144C202.939 62.144 203.791 61.856 204.367 61.304L203.791 60.476C203.383 60.884 202.711 61.112 202.147 61.112C201.055 61.112 200.395 60.392 200.299 59.516H204.775V59.216C204.775 57.392 203.659 56.06 201.919 56.06C200.203 56.06 198.979 57.416 198.979 59.096C198.979 60.932 200.275 62.144 202.015 62.144ZM203.551 58.628H200.287C200.347 57.92 200.839 57.092 201.919 57.092C203.059 57.092 203.527 57.944 203.551 58.628Z" fill="#121517"/>
<path d="M65.588 139.144C67.748 139.144 68.684 138.004 68.684 136.672C68.684 133.684 64.028 134.608 64.028 133.12C64.028 132.52 64.556 132.124 65.384 132.124C66.224 132.124 67.076 132.412 67.7 133.036L68.504 131.992C67.76 131.272 66.752 130.876 65.504 130.876C63.752 130.876 62.588 131.896 62.588 133.216C62.588 136.168 67.256 135.124 67.256 136.804C67.256 137.332 66.8 137.896 65.648 137.896C64.532 137.896 63.668 137.38 63.116 136.792L62.336 137.872C63.044 138.628 64.112 139.144 65.588 139.144ZM72.617 139.144C73.541 139.144 74.393 138.856 74.969 138.304L74.393 137.476C73.985 137.884 73.313 138.112 72.749 138.112C71.657 138.112 70.997 137.392 70.901 136.516H75.377V136.216C75.377 134.392 74.261 133.06 72.521 133.06C70.805 133.06 69.581 134.416 69.581 136.096C69.581 137.932 70.877 139.144 72.617 139.144ZM74.153 135.628H70.889C70.949 134.92 71.441 134.092 72.521 134.092C73.661 134.092 74.129 134.944 74.153 135.628ZM81.7927 139V134.92C81.7927 133.732 81.1687 133.06 79.9207 133.06C79.0087 133.06 78.2647 133.54 77.8807 133.996V133.204H76.6207V139H77.8807V134.956C78.1687 134.56 78.7207 134.176 79.3687 134.176C80.0767 134.176 80.5327 134.476 80.5327 135.376V139H81.7927ZM88.7693 139V130.996H87.5093V134.008C87.0413 133.396 86.3693 133.06 85.6493 133.06C84.1493 133.06 83.0693 134.236 83.0693 136.108C83.0693 138.016 84.1613 139.144 85.6493 139.144C86.3933 139.144 87.0653 138.784 87.5093 138.208V139H88.7693ZM86.0093 138.028C85.0133 138.028 84.3773 137.224 84.3773 136.108C84.3773 134.98 85.0133 134.176 86.0093 134.176C86.6093 134.176 87.2213 134.524 87.5093 134.956V137.26C87.2213 137.692 86.6093 138.028 86.0093 138.028ZM94.108 132.496C94.54 132.496 94.888 132.148 94.888 131.716C94.888 131.284 94.54 130.936 94.108 130.936C93.688 130.936 93.328 131.284 93.328 131.716C93.328 132.148 93.688 132.496 94.108 132.496ZM94.744 139V133.204H93.484V139H94.744ZM101.551 139V134.92C101.551 133.732 100.927 133.06 99.6785 133.06C98.7665 133.06 98.0225 133.54 97.6385 133.996V133.204H96.3785V139H97.6385V134.956C97.9265 134.56 98.4785 134.176 99.1265 134.176C99.8345 134.176 100.291 134.476 100.291 135.376V139H101.551ZM104.927 139.144C105.515 139.144 105.887 138.988 106.115 138.772L105.815 137.824C105.719 137.932 105.491 138.028 105.251 138.028C104.891 138.028 104.699 137.74 104.699 137.344V134.308H105.875V133.204H104.699V131.62H103.439V133.204H102.479V134.308H103.439V137.656C103.439 138.616 103.955 139.144 104.927 139.144ZM108.279 139V135.052C108.531 134.644 109.239 134.284 109.767 134.284C109.923 134.284 110.055 134.296 110.163 134.32V133.072C109.407 133.072 108.711 133.504 108.279 134.056V133.204H107.019V139H108.279ZM113.795 139.144C115.655 139.144 116.783 137.764 116.783 136.096C116.783 134.44 115.655 133.06 113.795 133.06C111.959 133.06 110.819 134.44 110.819 136.096C110.819 137.764 111.959 139.144 113.795 139.144ZM113.795 138.028C112.727 138.028 112.127 137.128 112.127 136.096C112.127 135.076 112.727 134.176 113.795 134.176C114.875 134.176 115.475 135.076 115.475 136.096C115.475 137.128 114.875 138.028 113.795 138.028ZM123.816 139.144C124.74 139.144 125.592 138.856 126.168 138.304L125.592 137.476C125.184 137.884 124.512 138.112 123.948 138.112C122.856 138.112 122.196 137.392 122.1 136.516H126.576V136.216C126.576 134.392 125.46 133.06 123.72 133.06C122.004 133.06 120.78 134.416 120.78 136.096C120.78 137.932 122.076 139.144 123.816 139.144ZM125.352 135.628H122.088C122.148 134.92 122.64 134.092 123.72 134.092C124.86 134.092 125.328 134.944 125.352 135.628ZM136.184 139V134.812C136.184 133.636 135.584 133.06 134.516 133.06C133.652 133.06 132.884 133.6 132.548 134.128C132.356 133.492 131.828 133.06 130.964 133.06C130.088 133.06 129.32 133.636 129.08 133.996V133.204H127.82V139H129.08V134.956C129.344 134.572 129.86 134.176 130.412 134.176C131.096 134.176 131.372 134.596 131.372 135.22V139H132.632V134.944C132.884 134.572 133.412 134.176 133.976 134.176C134.648 134.176 134.924 134.596 134.924 135.22V139H136.184ZM142.616 139V135.16C142.616 133.6 141.488 133.06 140.204 133.06C139.28 133.06 138.44 133.36 137.768 133.996L138.284 134.872C138.788 134.38 139.352 134.14 140 134.14C140.804 134.14 141.356 134.548 141.356 135.22V136.084C140.936 135.592 140.264 135.34 139.484 135.34C138.536 135.34 137.468 135.892 137.468 137.224C137.468 138.508 138.536 139.144 139.484 139.144C140.252 139.144 140.924 138.868 141.356 138.376V139H142.616ZM139.976 138.28C139.268 138.28 138.74 137.872 138.74 137.248C138.74 136.612 139.268 136.204 139.976 136.204C140.528 136.204 141.068 136.408 141.356 136.804V137.68C141.068 138.076 140.528 138.28 139.976 138.28ZM144.874 132.496C145.306 132.496 145.654 132.148 145.654 131.716C145.654 131.284 145.306 130.936 144.874 130.936C144.454 130.936 144.094 131.284 144.094 131.716C144.094 132.148 144.454 132.496 144.874 132.496ZM145.51 139V133.204H144.25V139H145.51ZM148.404 139V130.996H147.144V139H148.404Z" fill="#121517"/>
<path opacity="0.6" d="M70.052 216L66.908 207.996H65.156L62.012 216H63.608L64.196 214.464H67.868L68.456 216H70.052ZM67.472 213.228H64.592L66.032 209.412L67.472 213.228ZM73.5302 216.144C74.6582 216.144 75.3422 215.664 75.7502 215.112L74.9222 214.344C74.5982 214.788 74.1542 215.028 73.5902 215.028C72.5342 215.028 71.8382 214.224 71.8382 213.096C71.8382 211.968 72.5342 211.176 73.5902 211.176C74.1542 211.176 74.5982 211.404 74.9222 211.86L75.7502 211.092C75.3422 210.54 74.6582 210.06 73.5302 210.06C71.7662 210.06 70.5302 211.344 70.5302 213.096C70.5302 214.86 71.7662 216.144 73.5302 216.144ZM78.5951 216.144C79.1831 216.144 79.5551 215.988 79.7831 215.772L79.4831 214.824C79.3871 214.932 79.1591 215.028 78.9191 215.028C78.5591 215.028 78.3671 214.74 78.3671 214.344V211.308H79.5431V210.204H78.3671V208.62H77.1071V210.204H76.1471V211.308H77.1071V214.656C77.1071 215.616 77.6231 216.144 78.5951 216.144ZM81.3111 209.496C81.7431 209.496 82.0911 209.148 82.0911 208.716C82.0911 208.284 81.7431 207.936 81.3111 207.936C80.8911 207.936 80.5311 208.284 80.5311 208.716C80.5311 209.148 80.8911 209.496 81.3111 209.496ZM81.9471 216V210.204H80.6871V216H81.9471ZM86.4616 216L88.8256 210.204H87.4696L85.7776 214.548L84.0856 210.204H82.7416L85.1056 216H86.4616ZM94.4168 216V212.16C94.4168 210.6 93.2888 210.06 92.0048 210.06C91.0808 210.06 90.2408 210.36 89.5688 210.996L90.0848 211.872C90.5888 211.38 91.1528 211.14 91.8008 211.14C92.6048 211.14 93.1568 211.548 93.1568 212.22V213.084C92.7368 212.592 92.0648 212.34 91.2848 212.34C90.3368 212.34 89.2688 212.892 89.2688 214.224C89.2688 215.508 90.3368 216.144 91.2848 216.144C92.0528 216.144 92.7248 215.868 93.1568 215.376V216H94.4168ZM91.7768 215.28C91.0688 215.28 90.5408 214.872 90.5408 214.248C90.5408 213.612 91.0688 213.204 91.7768 213.204C92.3288 213.204 92.8688 213.408 93.1568 213.804V214.68C92.8688 215.076 92.3288 215.28 91.7768 215.28ZM97.7904 216.144C98.3784 216.144 98.7504 215.988 98.9784 215.772L98.6784 214.824C98.5824 214.932 98.3544 215.028 98.1144 215.028C97.7544 215.028 97.5624 214.74 97.5624 214.344V211.308H98.7384V210.204H97.5624V208.62H96.3024V210.204H95.3424V211.308H96.3024V214.656C96.3024 215.616 96.8184 216.144 97.7904 216.144ZM102.558 216.144C103.482 216.144 104.334 215.856 104.91 215.304L104.334 214.476C103.926 214.884 103.254 215.112 102.69 215.112C101.598 215.112 100.938 214.392 100.842 213.516H105.318V213.216C105.318 211.392 104.202 210.06 102.462 210.06C100.746 210.06 99.5224 211.416 99.5224 213.096C99.5224 214.932 100.818 216.144 102.558 216.144ZM104.094 212.628H100.83C100.89 211.92 101.382 211.092 102.462 211.092C103.602 211.092 104.07 211.944 104.094 212.628ZM112.284 216.144C113.412 216.144 114.096 215.664 114.504 215.112L113.676 214.344C113.352 214.788 112.908 215.028 112.344 215.028C111.288 215.028 110.592 214.224 110.592 213.096C110.592 211.968 111.288 211.176 112.344 211.176C112.908 211.176 113.352 211.404 113.676 211.86L114.504 211.092C114.096 210.54 113.412 210.06 112.284 210.06C110.52 210.06 109.284 211.344 109.284 213.096C109.284 214.86 110.52 216.144 112.284 216.144ZM116.869 216V207.996H115.609V216H116.869ZM119.128 209.496C119.56 209.496 119.908 209.148 119.908 208.716C119.908 208.284 119.56 207.936 119.128 207.936C118.708 207.936 118.348 208.284 118.348 208.716C118.348 209.148 118.708 209.496 119.128 209.496ZM119.764 216V210.204H118.504V216H119.764ZM124.074 216.144C124.998 216.144 125.85 215.856 126.426 215.304L125.85 214.476C125.442 214.884 124.77 215.112 124.206 215.112C123.114 215.112 122.454 214.392 122.358 213.516H126.834V213.216C126.834 211.392 125.718 210.06 123.978 210.06C122.262 210.06 121.038 211.416 121.038 213.096C121.038 214.932 122.334 216.144 124.074 216.144ZM125.61 212.628H122.346C122.406 211.92 122.898 211.092 123.978 211.092C125.118 211.092 125.586 211.944 125.61 212.628ZM133.25 216V211.92C133.25 210.732 132.626 210.06 131.378 210.06C130.466 210.06 129.722 210.54 129.338 210.996V210.204H128.078V216H129.338V211.956C129.626 211.56 130.178 211.176 130.826 211.176C131.534 211.176 131.99 211.476 131.99 212.376V216H133.25ZM136.626 216.144C137.214 216.144 137.586 215.988 137.814 215.772L137.514 214.824C137.418 214.932 137.19 215.028 136.95 215.028C136.59 215.028 136.398 214.74 136.398 214.344V211.308H137.574V210.204H136.398V208.62H135.138V210.204H134.178V211.308H135.138V214.656C135.138 215.616 135.654 216.144 136.626 216.144ZM144.92 216.144C146.42 216.144 147.488 215.004 147.488 213.096C147.488 211.188 146.42 210.06 144.92 210.06C144.164 210.06 143.492 210.42 143.06 210.996V210.204H141.8V218.208H143.06V215.196C143.528 215.82 144.188 216.144 144.92 216.144ZM144.548 215.028C143.96 215.028 143.336 214.668 143.06 214.248V211.956C143.336 211.524 143.96 211.176 144.548 211.176C145.544 211.176 146.18 211.98 146.18 213.096C146.18 214.224 145.544 215.028 144.548 215.028ZM151.354 216.144C153.214 216.144 154.342 214.764 154.342 213.096C154.342 211.44 153.214 210.06 151.354 210.06C149.518 210.06 148.378 211.44 148.378 213.096C148.378 214.764 149.518 216.144 151.354 216.144ZM151.354 215.028C150.286 215.028 149.686 214.128 149.686 213.096C149.686 212.076 150.286 211.176 151.354 211.176C152.434 211.176 153.034 212.076 153.034 213.096C153.034 214.128 152.434 215.028 151.354 215.028ZM156.877 216V212.052C157.129 211.644 157.837 211.284 158.365 211.284C158.521 211.284 158.653 211.296 158.761 211.32V210.072C158.005 210.072 157.309 210.504 156.877 211.056V210.204H155.617V216H156.877ZM161.517 216.144C162.105 216.144 162.477 215.988 162.705 215.772L162.405 214.824C162.309 214.932 162.081 215.028 161.841 215.028C161.481 215.028 161.289 214.74 161.289 214.344V211.308H162.465V210.204H161.289V208.62H160.029V210.204H159.069V211.308H160.029V214.656C160.029 215.616 160.545 216.144 161.517 216.144ZM168.409 216V212.16C168.409 210.6 167.281 210.06 165.997 210.06C165.073 210.06 164.233 210.36 163.561 210.996L164.077 211.872C164.581 211.38 165.145 211.14 165.793 211.14C166.597 211.14 167.149 211.548 167.149 212.22V213.084C166.729 212.592 166.057 212.34 165.277 212.34C164.329 212.34 163.261 212.892 163.261 214.224C163.261 215.508 164.329 216.144 165.277 216.144C166.045 216.144 166.717 215.868 167.149 215.376V216H168.409ZM165.769 215.28C165.061 215.28 164.533 214.872 164.533 214.248C164.533 213.612 165.061 213.204 165.769 213.204C166.321 213.204 166.861 213.408 167.149 213.804V214.68C166.861 215.076 166.321 215.28 165.769 215.28ZM171.303 216V207.996H170.043V216H171.303Z" fill="#121517"/>
<path opacity="0.3" d="M66.692 293.144C68.312 293.144 69.296 292.304 69.908 291.344L68.708 290.732C68.324 291.404 67.556 291.896 66.692 291.896C65.108 291.896 63.932 290.684 63.932 289.004C63.932 287.324 65.108 286.112 66.692 286.112C67.556 286.112 68.324 286.616 68.708 287.276L69.908 286.664C69.308 285.704 68.312 284.864 66.692 284.864C64.328 284.864 62.492 286.544 62.492 289.004C62.492 291.464 64.328 293.144 66.692 293.144ZM72.2557 293V289.052C72.5077 288.644 73.2157 288.284 73.7437 288.284C73.8997 288.284 74.0317 288.296 74.1397 288.32V287.072C73.3837 287.072 72.6877 287.504 72.2557 288.056V287.204H70.9957V293H72.2557ZM77.8318 293.144C78.7558 293.144 79.6078 292.856 80.1838 292.304L79.6078 291.476C79.1998 291.884 78.5278 292.112 77.9638 292.112C76.8718 292.112 76.2118 291.392 76.1158 290.516H80.5918V290.216C80.5918 288.392 79.4758 287.06 77.7358 287.06C76.0198 287.06 74.7958 288.416 74.7958 290.096C74.7958 291.932 76.0918 293.144 77.8318 293.144ZM79.3678 289.628H76.1038C76.1638 288.92 76.6558 288.092 77.7358 288.092C78.8758 288.092 79.3438 288.944 79.3678 289.628ZM86.6355 293V289.16C86.6355 287.6 85.5075 287.06 84.2235 287.06C83.2995 287.06 82.4595 287.36 81.7875 287.996L82.3035 288.872C82.8075 288.38 83.3715 288.14 84.0195 288.14C84.8235 288.14 85.3755 288.548 85.3755 289.22V290.084C84.9555 289.592 84.2835 289.34 83.5035 289.34C82.5555 289.34 81.4875 289.892 81.4875 291.224C81.4875 292.508 82.5555 293.144 83.5035 293.144C84.2715 293.144 84.9435 292.868 85.3755 292.376V293H86.6355ZM83.9955 292.28C83.2875 292.28 82.7595 291.872 82.7595 291.248C82.7595 290.612 83.2875 290.204 83.9955 290.204C84.5475 290.204 85.0875 290.408 85.3755 290.804V291.68C85.0875 292.076 84.5475 292.28 83.9955 292.28ZM90.0091 293.144C90.5971 293.144 90.9691 292.988 91.1971 292.772L90.8971 291.824C90.8011 291.932 90.5731 292.028 90.3331 292.028C89.9731 292.028 89.7811 291.74 89.7811 291.344V288.308H90.9571V287.204H89.7811V285.62H88.5211V287.204H87.5611V288.308H88.5211V291.656C88.5211 292.616 89.0371 293.144 90.0091 293.144ZM94.7772 293.144C95.7012 293.144 96.5532 292.856 97.1292 292.304L96.5532 291.476C96.1452 291.884 95.4732 292.112 94.9092 292.112C93.8172 292.112 93.1572 291.392 93.0612 290.516H97.5372V290.216C97.5372 288.392 96.4212 287.06 94.6812 287.06C92.9652 287.06 91.7412 288.416 91.7412 290.096C91.7412 291.932 93.0372 293.144 94.7772 293.144ZM96.3132 289.628H93.0492C93.1092 288.92 93.6012 288.092 94.6812 288.092C95.8212 288.092 96.2892 288.944 96.3132 289.628ZM106.663 293V289.16C106.663 287.6 105.535 287.06 104.251 287.06C103.327 287.06 102.487 287.36 101.815 287.996L102.331 288.872C102.835 288.38 103.399 288.14 104.047 288.14C104.851 288.14 105.403 288.548 105.403 289.22V290.084C104.983 289.592 104.311 289.34 103.531 289.34C102.583 289.34 101.515 289.892 101.515 291.224C101.515 292.508 102.583 293.144 103.531 293.144C104.299 293.144 104.971 292.868 105.403 292.376V293H106.663ZM104.023 292.28C103.315 292.28 102.787 291.872 102.787 291.248C102.787 290.612 103.315 290.204 104.023 290.204C104.575 290.204 105.115 290.408 105.403 290.804V291.68C105.115 292.076 104.575 292.28 104.023 292.28ZM113.119 293.144C113.707 293.144 114.079 292.988 114.307 292.772L114.007 291.824C113.911 291.932 113.683 292.028 113.443 292.028C113.083 292.028 112.891 291.74 112.891 291.344V288.308H114.067V287.204H112.891V285.62H111.631V287.204H110.671V288.308H111.631V291.656C111.631 292.616 112.146 293.144 113.119 293.144ZM117.827 293.144C119.687 293.144 120.815 291.764 120.815 290.096C120.815 288.44 119.687 287.06 117.827 287.06C115.991 287.06 114.851 288.44 114.851 290.096C114.851 291.764 115.991 293.144 117.827 293.144ZM117.827 292.028C116.759 292.028 116.159 291.128 116.159 290.096C116.159 289.076 116.759 288.176 117.827 288.176C118.907 288.176 119.507 289.076 119.507 290.096C119.507 291.128 118.907 292.028 117.827 292.028ZM124.513 290.636V289.556H121.633V290.636H124.513ZM131.027 293V284.996H129.767V288.008C129.299 287.396 128.627 287.06 127.907 287.06C126.407 287.06 125.327 288.236 125.327 290.108C125.327 292.016 126.419 293.144 127.907 293.144C128.651 293.144 129.323 292.784 129.767 292.208V293H131.027ZM128.267 292.028C127.271 292.028 126.635 291.224 126.635 290.108C126.635 288.98 127.271 288.176 128.267 288.176C128.867 288.176 129.479 288.524 129.767 288.956V291.26C129.479 291.692 128.867 292.028 128.267 292.028ZM135.276 293.144C137.136 293.144 138.264 291.764 138.264 290.096C138.264 288.44 137.136 287.06 135.276 287.06C133.44 287.06 132.3 288.44 132.3 290.096C132.3 291.764 133.44 293.144 135.276 293.144ZM135.276 292.028C134.208 292.028 133.608 291.128 133.608 290.096C133.608 289.076 134.208 288.176 135.276 288.176C136.356 288.176 136.956 289.076 136.956 290.096C136.956 291.128 136.356 292.028 135.276 292.028ZM143.245 286.496C143.677 286.496 144.025 286.148 144.025 285.716C144.025 285.284 143.677 284.936 143.245 284.936C142.825 284.936 142.465 285.284 142.465 285.716C142.465 286.148 142.825 286.496 143.245 286.496ZM143.881 293V287.204H142.621V293H143.881ZM147.255 293.144C147.843 293.144 148.215 292.988 148.443 292.772L148.143 291.824C148.047 291.932 147.819 292.028 147.579 292.028C147.219 292.028 147.027 291.74 147.027 291.344V288.308H148.203V287.204H147.027V285.62H145.767V287.204H144.807V288.308H145.767V291.656C145.767 292.616 146.283 293.144 147.255 293.144ZM152.023 293.144C152.947 293.144 153.799 292.856 154.375 292.304L153.799 291.476C153.391 291.884 152.719 292.112 152.155 292.112C151.063 292.112 150.403 291.392 150.307 290.516H154.783V290.216C154.783 288.392 153.667 287.06 151.927 287.06C150.211 287.06 148.987 288.416 148.987 290.096C148.987 291.932 150.283 293.144 152.023 293.144ZM153.559 289.628H150.295C150.355 288.92 150.847 288.092 151.927 288.092C153.067 288.092 153.535 288.944 153.559 289.628ZM164.391 293V288.812C164.391 287.636 163.791 287.06 162.723 287.06C161.859 287.06 161.091 287.6 160.755 288.128C160.563 287.492 160.035 287.06 159.171 287.06C158.295 287.06 157.527 287.636 157.287 287.996V287.204H156.027V293H157.287V288.956C157.551 288.572 158.067 288.176 158.619 288.176C159.303 288.176 159.579 288.596 159.579 289.22V293H160.839V288.944C161.091 288.572 161.619 288.176 162.183 288.176C162.855 288.176 163.131 288.596 163.131 289.22V293H164.391Z" fill="#121517"/>
<path d="M86.144 84V83.112H82.22C84.452 81.348 86.108 79.86 86.108 78.228C86.108 76.632 84.752 75.876 83.42 75.876C82.292 75.876 81.248 76.332 80.636 77.136L81.248 77.772C81.716 77.172 82.46 76.764 83.42 76.764C84.248 76.764 85.088 77.208 85.088 78.228C85.088 79.608 83.528 80.94 80.648 83.208V84H86.144ZM96.1484 84V75.996H95.2484V79.08C94.7804 78.444 94.0724 78.06 93.2924 78.06C91.7684 78.06 90.7124 79.26 90.7124 81.108C90.7124 82.992 91.7804 84.144 93.2924 84.144C94.1084 84.144 94.8164 83.724 95.2484 83.136V84H96.1484ZM93.5084 83.34C92.3444 83.34 91.6484 82.392 91.6484 81.108C91.6484 79.824 92.3444 78.864 93.5084 78.864C94.2284 78.864 94.9244 79.296 95.2484 79.8V82.428C94.9244 82.932 94.2284 83.34 93.5084 83.34ZM102.475 84V80.016C102.475 78.612 101.455 78.06 100.231 78.06C99.2828 78.06 98.5388 78.372 97.9148 79.02L98.3348 79.644C98.8508 79.092 99.4148 78.84 100.111 78.84C100.951 78.84 101.575 79.284 101.575 80.064V81.108C101.107 80.568 100.447 80.316 99.6548 80.316C98.6708 80.316 97.6268 80.928 97.6268 82.224C97.6268 83.484 98.6708 84.144 99.6548 84.144C100.435 84.144 101.095 83.868 101.575 83.34V84H102.475ZM99.9788 83.496C99.1388 83.496 98.5508 82.968 98.5508 82.236C98.5508 81.492 99.1388 80.964 99.9788 80.964C100.615 80.964 101.227 81.204 101.575 81.684V82.776C101.227 83.256 100.615 83.496 99.9788 83.496ZM103.955 86.268C104.123 86.316 104.423 86.352 104.615 86.352C105.383 86.34 105.971 86.016 106.319 85.176L109.223 78.204H108.239L106.319 82.956L104.387 78.204H103.415L105.839 84.06L105.455 84.936C105.251 85.416 104.987 85.548 104.591 85.548C104.447 85.548 104.231 85.512 104.099 85.452L103.955 86.268ZM111.998 84.144C113.498 84.144 114.278 83.364 114.278 82.392C114.278 80.136 110.69 80.976 110.69 79.704C110.69 79.188 111.182 78.792 111.974 78.792C112.718 78.792 113.354 79.104 113.702 79.524L114.122 78.9C113.654 78.432 112.958 78.06 111.974 78.06C110.594 78.06 109.814 78.828 109.814 79.728C109.814 81.876 113.402 81.012 113.402 82.416C113.402 82.992 112.922 83.412 112.034 83.412C111.242 83.412 110.51 83.028 110.126 82.584L109.658 83.232C110.246 83.856 111.05 84.144 111.998 84.144ZM123.358 84V80.016C123.358 78.612 122.338 78.06 121.114 78.06C120.166 78.06 119.422 78.372 118.798 79.02L119.218 79.644C119.734 79.092 120.298 78.84 120.994 78.84C121.834 78.84 122.458 79.284 122.458 80.064V81.108C121.99 80.568 121.33 80.316 120.538 80.316C119.554 80.316 118.51 80.928 118.51 82.224C118.51 83.484 119.554 84.144 120.538 84.144C121.318 84.144 121.978 83.868 122.458 83.34V84H123.358ZM120.862 83.496C120.022 83.496 119.434 82.968 119.434 82.236C119.434 81.492 120.022 80.964 120.862 80.964C121.498 80.964 122.11 81.204 122.458 81.684V82.776C122.11 83.256 121.498 83.496 120.862 83.496ZM126.314 84V78.996H127.49V78.204H126.314V77.76C126.314 77.028 126.638 76.62 127.226 76.62C127.526 76.62 127.754 76.74 127.946 76.908L128.318 76.32C127.958 75.984 127.55 75.876 127.094 75.876C126.062 75.876 125.414 76.572 125.414 77.76V78.204H124.454V78.996H125.414V84H126.314ZM130.024 84.144C130.552 84.144 130.876 83.988 131.104 83.772L130.84 83.1C130.72 83.232 130.48 83.34 130.228 83.34C129.832 83.34 129.64 83.028 129.64 82.596V78.996H130.816V78.204H129.64V76.62H128.74V78.204H127.78V78.996H128.74V82.788C128.74 83.652 129.172 84.144 130.024 84.144ZM134.704 84.144C135.652 84.144 136.432 83.832 137.008 83.256L136.576 82.668C136.12 83.136 135.448 83.4 134.788 83.4C133.54 83.4 132.771 82.488 132.7 81.396H137.392V81.168C137.392 79.428 136.36 78.06 134.608 78.06C132.951 78.06 131.752 79.416 131.752 81.096C131.752 82.908 132.988 84.144 134.704 84.144ZM136.504 80.736H132.7C132.748 79.848 133.36 78.804 134.596 78.804C135.916 78.804 136.492 79.872 136.504 80.736ZM139.749 84V79.896C140.013 79.428 140.769 78.972 141.321 78.972C141.465 78.972 141.573 78.984 141.681 79.008V78.084C140.889 78.084 140.217 78.528 139.749 79.14V78.204H138.849V84H139.749ZM146.348 77.376C146.684 77.376 146.96 77.112 146.96 76.776C146.96 76.44 146.684 76.164 146.348 76.164C146.024 76.164 145.748 76.44 145.748 76.776C145.748 77.112 146.024 77.376 146.348 77.376ZM146.804 84V78.204H145.904V84H146.804ZM153.411 84V79.932C153.411 78.672 152.775 78.06 151.563 78.06C150.699 78.06 149.907 78.564 149.499 79.044V78.204H148.599V84H149.499V79.764C149.835 79.296 150.507 78.864 151.215 78.864C151.995 78.864 152.511 79.188 152.511 80.208V84H153.411ZM157.741 84L160.153 78.204H159.169L157.249 82.956L155.317 78.204H154.345L156.757 84H157.741ZM163.623 84.144C165.387 84.144 166.491 82.776 166.491 81.096C166.491 79.416 165.387 78.06 163.623 78.06C161.859 78.06 160.755 79.416 160.755 81.096C160.755 82.776 161.859 84.144 163.623 84.144ZM163.623 83.34C162.387 83.34 161.691 82.284 161.691 81.096C161.691 79.92 162.387 78.864 163.623 78.864C164.859 78.864 165.543 79.92 165.543 81.096C165.543 82.284 164.859 83.34 163.623 83.34ZM168.403 77.376C168.739 77.376 169.015 77.112 169.015 76.776C169.015 76.44 168.739 76.164 168.403 76.164C168.079 76.164 167.803 76.44 167.803 76.776C167.803 77.112 168.079 77.376 168.403 77.376ZM168.859 84V78.204H167.959V84H168.859ZM173.21 84.144C174.266 84.144 174.89 83.712 175.334 83.136L174.734 82.584C174.35 83.1 173.858 83.34 173.258 83.34C172.022 83.34 171.254 82.38 171.254 81.096C171.254 79.812 172.022 78.864 173.258 78.864C173.858 78.864 174.35 79.092 174.734 79.62L175.334 79.068C174.89 78.492 174.266 78.06 173.21 78.06C171.482 78.06 170.318 79.38 170.318 81.096C170.318 82.824 171.482 84.144 173.21 84.144ZM179.211 84.144C180.159 84.144 180.939 83.832 181.515 83.256L181.083 82.668C180.627 83.136 179.955 83.4 179.295 83.4C178.047 83.4 177.279 82.488 177.207 81.396H181.899V81.168C181.899 79.428 180.867 78.06 179.115 78.06C177.459 78.06 176.259 79.416 176.259 81.096C176.259 82.908 177.495 84.144 179.211 84.144ZM181.011 80.736H177.207C177.255 79.848 177.867 78.804 179.103 78.804C180.423 78.804 180.999 79.872 181.011 80.736ZM186.895 77.376C187.231 77.376 187.507 77.112 187.507 76.776C187.507 76.44 187.231 76.164 186.895 76.164C186.571 76.164 186.295 76.44 186.295 76.776C186.295 77.112 186.571 77.376 186.895 77.376ZM187.351 84V78.204H186.451V84H187.351ZM190.982 84.144C192.482 84.144 193.262 83.364 193.262 82.392C193.262 80.136 189.674 80.976 189.674 79.704C189.674 79.188 190.166 78.792 190.958 78.792C191.702 78.792 192.338 79.104 192.686 79.524L193.106 78.9C192.638 78.432 191.942 78.06 190.958 78.06C189.578 78.06 188.798 78.828 188.798 79.728C188.798 81.876 192.386 81.012 192.386 82.416C192.386 82.992 191.906 83.412 191.018 83.412C190.226 83.412 189.494 83.028 189.11 82.584L188.642 83.232C189.23 83.856 190.034 84.144 190.982 84.144ZM200.674 84.144C202.198 84.144 203.254 82.968 203.254 81.096C203.254 79.212 202.198 78.06 200.674 78.06C199.858 78.06 199.138 78.48 198.718 79.068V78.204H197.818V86.208H198.718V83.124C199.186 83.772 199.882 84.144 200.674 84.144ZM200.446 83.34C199.738 83.34 199.03 82.908 198.718 82.404V79.788C199.03 79.284 199.738 78.864 200.446 78.864C201.61 78.864 202.306 79.812 202.306 81.096C202.306 82.38 201.61 83.34 200.446 83.34ZM209.209 84V80.016C209.209 78.612 208.189 78.06 206.965 78.06C206.017 78.06 205.273 78.372 204.649 79.02L205.069 79.644C205.585 79.092 206.149 78.84 206.845 78.84C207.685 78.84 208.309 79.284 208.309 80.064V81.108C207.841 80.568 207.181 80.316 206.389 80.316C205.405 80.316 204.361 80.928 204.361 82.224C204.361 83.484 205.405 84.144 206.389 84.144C207.169 84.144 207.829 83.868 208.309 83.34V84H209.209ZM206.713 83.496C205.873 83.496 205.285 82.968 205.285 82.236C205.285 81.492 205.873 80.964 206.713 80.964C207.349 80.964 207.961 81.204 208.309 81.684V82.776C207.961 83.256 207.349 83.496 206.713 83.496ZM211.457 77.376C211.793 77.376 212.069 77.112 212.069 76.776C212.069 76.44 211.793 76.164 211.457 76.164C211.133 76.164 210.857 76.44 210.857 76.776C210.857 77.112 211.133 77.376 211.457 77.376ZM211.913 84V78.204H211.013V84H211.913ZM218.809 84V75.996H217.909V79.08C217.441 78.444 216.733 78.06 215.953 78.06C214.429 78.06 213.373 79.26 213.373 81.108C213.373 82.992 214.441 84.144 215.953 84.144C216.769 84.144 217.477 83.724 217.909 83.136V84H218.809ZM216.169 83.34C215.005 83.34 214.309 82.392 214.309 81.108C214.309 79.824 215.005 78.864 216.169 78.864C216.889 78.864 217.585 79.296 217.909 79.8V82.428C217.585 82.932 216.889 83.34 216.169 83.34Z" fill="#545D63"/>
<path d="M81.932 161V152.996H80.936V161H81.932ZM91.6671 161V156.812C91.6671 155.648 91.1031 155.06 90.0471 155.06C89.2071 155.06 88.4271 155.612 88.1031 156.14C87.9351 155.54 87.4311 155.06 86.5431 155.06C85.6911 155.06 84.9111 155.672 84.6711 156.044V155.204H83.7711V161H84.6711V156.764C84.9831 156.296 85.6071 155.864 86.1951 155.864C86.9511 155.864 87.2631 156.332 87.2631 157.064V161H88.1631V156.752C88.4631 156.296 89.0991 155.864 89.6991 155.864C90.4431 155.864 90.7671 156.332 90.7671 157.064V161H91.6671ZM101.359 161V156.812C101.359 155.648 100.795 155.06 99.7385 155.06C98.8985 155.06 98.1185 155.612 97.7945 156.14C97.6265 155.54 97.1225 155.06 96.2345 155.06C95.3825 155.06 94.6025 155.672 94.3625 156.044V155.204H93.4625V161H94.3625V156.764C94.6745 156.296 95.2985 155.864 95.8865 155.864C96.6425 155.864 96.9545 156.332 96.9545 157.064V161H97.8545V156.752C98.1545 156.296 98.7905 155.864 99.3905 155.864C100.135 155.864 100.459 156.332 100.459 157.064V161H101.359ZM105.77 161.144C106.718 161.144 107.498 160.832 108.074 160.256L107.642 159.668C107.186 160.136 106.514 160.4 105.854 160.4C104.606 160.4 103.838 159.488 103.766 158.396H108.458V158.168C108.458 156.428 107.426 155.06 105.674 155.06C104.018 155.06 102.818 156.416 102.818 158.096C102.818 159.908 104.054 161.144 105.77 161.144ZM107.57 157.736H103.766C103.814 156.848 104.426 155.804 105.662 155.804C106.982 155.804 107.558 156.872 107.57 157.736ZM115.016 161V152.996H114.116V156.08C113.648 155.444 112.94 155.06 112.16 155.06C110.636 155.06 109.58 156.26 109.58 158.108C109.58 159.992 110.648 161.144 112.16 161.144C112.976 161.144 113.684 160.724 114.116 160.136V161H115.016ZM112.376 160.34C111.212 160.34 110.516 159.392 110.516 158.108C110.516 156.824 111.212 155.864 112.376 155.864C113.096 155.864 113.792 156.296 114.116 156.8V159.428C113.792 159.932 113.096 160.34 112.376 160.34ZM117.262 154.376C117.598 154.376 117.874 154.112 117.874 153.776C117.874 153.44 117.598 153.164 117.262 153.164C116.938 153.164 116.662 153.44 116.662 153.776C116.662 154.112 116.938 154.376 117.262 154.376ZM117.718 161V155.204H116.818V161H117.718ZM124.037 161V157.016C124.037 155.612 123.017 155.06 121.793 155.06C120.845 155.06 120.101 155.372 119.477 156.02L119.897 156.644C120.413 156.092 120.977 155.84 121.673 155.84C122.513 155.84 123.137 156.284 123.137 157.064V158.108C122.669 157.568 122.009 157.316 121.217 157.316C120.233 157.316 119.189 157.928 119.189 159.224C119.189 160.484 120.233 161.144 121.217 161.144C121.997 161.144 122.657 160.868 123.137 160.34V161H124.037ZM121.541 160.496C120.701 160.496 120.113 159.968 120.113 159.236C120.113 158.492 120.701 157.964 121.541 157.964C122.177 157.964 122.789 158.204 123.137 158.684V159.776C122.789 160.256 122.177 160.496 121.541 160.496ZM127.305 161.144C127.833 161.144 128.157 160.988 128.385 160.772L128.121 160.1C128.001 160.232 127.761 160.34 127.509 160.34C127.113 160.34 126.921 160.028 126.921 159.596V155.996H128.097V155.204H126.921V153.62H126.021V155.204H125.061V155.996H126.021V159.788C126.021 160.652 126.453 161.144 127.305 161.144ZM131.985 161.144C132.933 161.144 133.713 160.832 134.289 160.256L133.857 159.668C133.401 160.136 132.729 160.4 132.069 160.4C130.821 160.4 130.053 159.488 129.981 158.396H134.673V158.168C134.673 156.428 133.641 155.06 131.889 155.06C130.233 155.06 129.033 156.416 129.033 158.096C129.033 159.908 130.269 161.144 131.985 161.144ZM133.785 157.736H129.981C130.029 156.848 130.641 155.804 131.877 155.804C133.197 155.804 133.773 156.872 133.785 157.736ZM137.03 161V152.996H136.13V161H137.03ZM138.502 163.268C138.67 163.316 138.97 163.352 139.162 163.352C139.93 163.34 140.518 163.016 140.866 162.176L143.77 155.204H142.786L140.866 159.956L138.934 155.204H137.962L140.386 161.06L140.002 161.936C139.798 162.416 139.534 162.548 139.138 162.548C138.994 162.548 138.778 162.512 138.646 162.452L138.502 163.268ZM152.326 161V157.016C152.326 155.612 151.306 155.06 150.082 155.06C149.134 155.06 148.39 155.372 147.766 156.02L148.186 156.644C148.702 156.092 149.266 155.84 149.962 155.84C150.802 155.84 151.426 156.284 151.426 157.064V158.108C150.958 157.568 150.298 157.316 149.506 157.316C148.522 157.316 147.478 157.928 147.478 159.224C147.478 160.484 148.522 161.144 149.506 161.144C150.286 161.144 150.946 160.868 151.426 160.34V161H152.326ZM149.83 160.496C148.99 160.496 148.402 159.968 148.402 159.236C148.402 158.492 148.99 157.964 149.83 157.964C150.466 157.964 151.078 158.204 151.426 158.684V159.776C151.078 160.256 150.466 160.496 149.83 160.496ZM155.282 161V155.996H156.458V155.204H155.282V154.76C155.282 154.028 155.606 153.62 156.194 153.62C156.494 153.62 156.722 153.74 156.914 153.908L157.286 153.32C156.926 152.984 156.518 152.876 156.062 152.876C155.03 152.876 154.382 153.572 154.382 154.76V155.204H153.422V155.996H154.382V161H155.282ZM158.993 161.144C159.521 161.144 159.845 160.988 160.073 160.772L159.809 160.1C159.689 160.232 159.449 160.34 159.197 160.34C158.801 160.34 158.609 160.028 158.609 159.596V155.996H159.785V155.204H158.609V153.62H157.709V155.204H156.749V155.996H157.709V159.788C157.709 160.652 158.141 161.144 158.993 161.144ZM163.672 161.144C164.62 161.144 165.4 160.832 165.976 160.256L165.544 159.668C165.088 160.136 164.416 160.4 163.756 160.4C162.508 160.4 161.74 159.488 161.668 158.396H166.36V158.168C166.36 156.428 165.328 155.06 163.576 155.06C161.92 155.06 160.72 156.416 160.72 158.096C160.72 159.908 161.956 161.144 163.672 161.144ZM165.472 157.736H161.668C161.716 156.848 162.328 155.804 163.564 155.804C164.884 155.804 165.46 156.872 165.472 157.736ZM168.718 161V156.896C168.982 156.428 169.738 155.972 170.29 155.972C170.434 155.972 170.542 155.984 170.65 156.008V155.084C169.858 155.084 169.186 155.528 168.718 156.14V155.204H167.818V161H168.718ZM177.729 161.144C179.253 161.144 180.309 159.968 180.309 158.096C180.309 156.212 179.253 155.06 177.729 155.06C176.913 155.06 176.193 155.48 175.773 156.068V155.204H174.873V163.208H175.773V160.124C176.241 160.772 176.937 161.144 177.729 161.144ZM177.501 160.34C176.793 160.34 176.085 159.908 175.773 159.404V156.788C176.085 156.284 176.793 155.864 177.501 155.864C178.665 155.864 179.361 156.812 179.361 158.096C179.361 159.38 178.665 160.34 177.501 160.34ZM182.64 161V156.896C182.904 156.428 183.66 155.972 184.212 155.972C184.356 155.972 184.464 155.984 184.572 156.008V155.084C183.78 155.084 183.108 155.528 182.64 156.14V155.204H181.74V161H182.64ZM188.317 161.144C189.265 161.144 190.045 160.832 190.621 160.256L190.189 159.668C189.733 160.136 189.061 160.4 188.401 160.4C187.153 160.4 186.385 159.488 186.313 158.396H191.005V158.168C191.005 156.428 189.973 155.06 188.221 155.06C186.565 155.06 185.365 156.416 185.365 158.096C185.365 159.908 186.601 161.144 188.317 161.144ZM190.117 157.736H186.313C186.361 156.848 186.973 155.804 188.209 155.804C189.529 155.804 190.105 156.872 190.117 157.736ZM194.995 161L197.407 155.204H196.423L194.503 159.956L192.571 155.204H191.599L194.011 161H194.995ZM198.789 154.376C199.125 154.376 199.401 154.112 199.401 153.776C199.401 153.44 199.125 153.164 198.789 153.164C198.465 153.164 198.189 153.44 198.189 153.776C198.189 154.112 198.465 154.376 198.789 154.376ZM199.245 161V155.204H198.345V161H199.245ZM203.573 161.144C205.337 161.144 206.441 159.776 206.441 158.096C206.441 156.416 205.337 155.06 203.573 155.06C201.809 155.06 200.705 156.416 200.705 158.096C200.705 159.776 201.809 161.144 203.573 161.144ZM203.573 160.34C202.337 160.34 201.641 159.284 201.641 158.096C201.641 156.92 202.337 155.864 203.573 155.864C204.809 155.864 205.493 156.92 205.493 158.096C205.493 159.284 204.809 160.34 203.573 160.34ZM212.72 161V155.204H211.82V159.464C211.484 159.932 210.812 160.34 210.104 160.34C209.324 160.34 208.808 160.04 208.808 159.02V155.204H207.908V159.296C207.908 160.556 208.544 161.144 209.756 161.144C210.62 161.144 211.376 160.688 211.82 160.184V161H212.72ZM216.353 161.144C217.853 161.144 218.633 160.364 218.633 159.392C218.633 157.136 215.045 157.976 215.045 156.704C215.045 156.188 215.537 155.792 216.329 155.792C217.073 155.792 217.709 156.104 218.057 156.524L218.477 155.9C218.009 155.432 217.313 155.06 216.329 155.06C214.949 155.06 214.169 155.828 214.169 156.728C214.169 158.876 217.757 158.012 217.757 159.416C217.757 159.992 217.277 160.412 216.389 160.412C215.597 160.412 214.865 160.028 214.481 159.584L214.013 160.232C214.601 160.856 215.405 161.144 216.353 161.144ZM227.713 161V157.016C227.713 155.612 226.693 155.06 225.469 155.06C224.521 155.06 223.777 155.372 223.153 156.02L223.573 156.644C224.089 156.092 224.653 155.84 225.349 155.84C226.189 155.84 226.813 156.284 226.813 157.064V158.108C226.345 157.568 225.685 157.316 224.893 157.316C223.909 157.316 222.865 157.928 222.865 159.224C222.865 160.484 223.909 161.144 224.893 161.144C225.673 161.144 226.333 160.868 226.813 160.34V161H227.713ZM225.217 160.496C224.377 160.496 223.789 159.968 223.789 159.236C223.789 158.492 224.377 157.964 225.217 157.964C225.853 157.964 226.465 158.204 226.813 158.684V159.776C226.465 160.256 225.853 160.496 225.217 160.496ZM232.073 161.144C233.129 161.144 233.753 160.712 234.197 160.136L233.597 159.584C233.213 160.1 232.721 160.34 232.121 160.34C230.885 160.34 230.117 159.38 230.117 158.096C230.117 156.812 230.885 155.864 232.121 155.864C232.721 155.864 233.213 156.092 233.597 156.62L234.197 156.068C233.753 155.492 233.129 155.06 232.073 155.06C230.345 155.06 229.181 156.38 229.181 158.096C229.181 159.824 230.345 161.144 232.073 161.144ZM236.923 161.144C237.451 161.144 237.775 160.988 238.003 160.772L237.739 160.1C237.619 160.232 237.379 160.34 237.127 160.34C236.731 160.34 236.539 160.028 236.539 159.596V155.996H237.715V155.204H236.539V153.62H235.639V155.204H234.679V155.996H235.639V159.788C235.639 160.652 236.071 161.144 236.923 161.144ZM239.43 154.376C239.766 154.376 240.042 154.112 240.042 153.776C240.042 153.44 239.766 153.164 239.43 153.164C239.106 153.164 238.83 153.44 238.83 153.776C238.83 154.112 239.106 154.376 239.43 154.376ZM239.886 161V155.204H238.986V161H239.886ZM244.213 161.144C245.977 161.144 247.081 159.776 247.081 158.096C247.081 156.416 245.977 155.06 244.213 155.06C242.449 155.06 241.345 156.416 241.345 158.096C241.345 159.776 242.449 161.144 244.213 161.144ZM244.213 160.34C242.977 160.34 242.281 159.284 242.281 158.096C242.281 156.92 242.977 155.864 244.213 155.864C245.449 155.864 246.133 156.92 246.133 158.096C246.133 159.284 245.449 160.34 244.213 160.34ZM253.36 161V156.932C253.36 155.672 252.724 155.06 251.512 155.06C250.648 155.06 249.856 155.564 249.448 156.044V155.204H248.548V161H249.448V156.764C249.784 156.296 250.456 155.864 251.164 155.864C251.944 155.864 252.46 156.188 252.46 157.208V161H253.36Z" fill="#545D63"/>
<g clip-path="url(#clip0)">
<path d="M68 74.1875C64.7891 74.1875 62.1875 76.7885 62.1875 79.9986C62.1875 83.2088 64.7891 85.8098 68 85.8098C71.2109 85.8098 73.8125 83.2088 73.8125 79.9986C73.8125 76.7885 71.2109 74.1875 68 74.1875ZM68 84.6851C65.4102 84.6851 63.3125 82.5879 63.3125 79.9986C63.3125 77.4094 65.4102 75.3122 68 75.3122C70.5898 75.3122 72.6875 77.4094 72.6875 79.9986C72.6875 82.5879 70.5898 84.6851 68 84.6851ZM69.4484 82.2388L67.4586 80.793C67.3859 80.7391 67.3438 80.6547 67.3438 80.5657V76.7182C67.3438 76.5635 67.4703 76.437 67.625 76.437H68.375C68.5297 76.437 68.6562 76.5635 68.6562 76.7182V80.0385L70.2219 81.1773C70.3484 81.2687 70.3742 81.4444 70.2828 81.5709L69.8422 82.1778C69.7508 82.302 69.575 82.3301 69.4484 82.2388Z" fill="#121517"/>
</g>
<g clip-path="url(#clip1)">
<path d="M68 151.188C64.7891 151.188 62.1875 153.788 62.1875 156.999C62.1875 160.209 64.7891 162.81 68 162.81C71.2109 162.81 73.8125 160.209 73.8125 156.999C73.8125 153.788 71.2109 151.188 68 151.188ZM68 161.685C65.4102 161.685 63.3125 159.588 63.3125 156.999C63.3125 154.409 65.4102 152.312 68 152.312C70.5898 152.312 72.6875 154.409 72.6875 156.999C72.6875 159.588 70.5898 161.685 68 161.685ZM69.4484 159.239L67.4586 157.793C67.3859 157.739 67.3438 157.655 67.3438 157.566V153.718C67.3438 153.564 67.4703 153.437 67.625 153.437H68.375C68.5297 153.437 68.6562 153.564 68.6562 153.718V157.038L70.2219 158.177C70.3484 158.269 70.3742 158.444 70.2828 158.571L69.8422 159.178C69.7508 159.302 69.575 159.33 69.4484 159.239Z" fill="#121517"/>
</g>
<g opacity="0.6" clip-path="url(#clip2)">
<path d="M68 228.188C64.7891 228.188 62.1875 230.788 62.1875 233.999C62.1875 237.209 64.7891 239.81 68 239.81C71.2109 239.81 73.8125 237.209 73.8125 233.999C73.8125 230.788 71.2109 228.188 68 228.188ZM68 238.685C65.4102 238.685 63.3125 236.588 63.3125 233.999C63.3125 231.409 65.4102 229.312 68 229.312C70.5898 229.312 72.6875 231.409 72.6875 233.999C72.6875 236.588 70.5898 238.685 68 238.685ZM69.4484 236.239L67.4586 234.793C67.3859 234.739 67.3438 234.655 67.3438 234.566V230.718C67.3438 230.564 67.4703 230.437 67.625 230.437H68.375C68.5297 230.437 68.6562 230.564 68.6562 230.718V234.038L70.2219 235.177C70.3484 235.269 70.3742 235.444 70.2828 235.571L69.8422 236.178C69.7508 236.302 69.575 236.33 69.4484 236.239Z" fill="#121517"/>
</g>
<g opacity="0.3" clip-path="url(#clip3)">
<path d="M68 305.188C64.7891 305.188 62.1875 307.788 62.1875 310.999C62.1875 314.209 64.7891 316.81 68 316.81C71.2109 316.81 73.8125 314.209 73.8125 310.999C73.8125 307.788 71.2109 305.188 68 305.188ZM68 315.685C65.4102 315.685 63.3125 313.588 63.3125 310.999C63.3125 308.409 65.4102 306.312 68 306.312C70.5898 306.312 72.6875 308.409 72.6875 310.999C72.6875 313.588 70.5898 315.685 68 315.685ZM69.4484 313.239L67.4586 311.793C67.3859 311.739 67.3438 311.655 67.3438 311.566V307.718C67.3438 307.564 67.4703 307.437 67.625 307.437H68.375C68.5297 307.437 68.6562 307.564 68.6562 307.718V311.038L70.2219 312.177C70.3484 312.269 70.3742 312.444 70.2828 312.571L69.8422 313.178C69.7508 313.302 69.575 313.33 69.4484 313.239Z" fill="#121517"/>
</g>
<circle cx="15" cy="70" r="15" fill="#17A17E"/>
<circle cx="15" cy="147" r="15" fill="#17A17E"/>
<circle cx="15" cy="224" r="15" fill="#17A17E"/>
<circle cx="15" cy="301" r="15" fill="#17A17E"/>
<path d="M20.25 142H9.75C9.05964 142 8.5 142.56 8.5 143.25V150.748C8.5 151.438 9.05964 151.998 9.75 151.998H20.25C20.9404 151.998 21.5 151.438 21.5 150.748V143.25C21.5 142.56 20.9404 142 20.25 142Z" stroke="white" stroke-width="0.9375" stroke-linecap="round" stroke-linejoin="round"/>
<path d="M10.5 143.999L15 147.499L19.5 143.999" stroke="white" stroke-width="0.9375" stroke-linecap="round" stroke-linejoin="round"/>
<path d="M274.688 56.999C274.688 57.9318 273.933 58.6865 273 58.6865C272.067 58.6865 271.312 57.9318 271.312 56.999C271.312 56.0662 272.067 55.3115 273 55.3115C273.933 55.3115 274.688 56.0662 274.688 56.999ZM277.125 55.3115C276.192 55.3115 275.438 56.0662 275.438 56.999C275.438 57.9318 276.192 58.6865 277.125 58.6865C278.058 58.6865 278.812 57.9318 278.812 56.999C278.812 56.0662 278.058 55.3115 277.125 55.3115ZM268.875 55.3115C267.942 55.3115 267.188 56.0662 267.188 56.999C267.188 57.9318 267.942 58.6865 268.875 58.6865C269.808 58.6865 270.562 57.9318 270.562 56.999C270.562 56.0662 269.808 55.3115 268.875 55.3115Z" fill="#697789"/>
<path d="M274.688 133.969C274.688 134.902 273.933 135.657 273 135.657C272.067 135.657 271.312 134.902 271.312 133.969C271.312 133.036 272.067 132.282 273 132.282C273.933 132.282 274.688 133.036 274.688 133.969ZM277.125 132.282C276.192 132.282 275.438 133.036 275.438 133.969C275.438 134.902 276.192 135.657 277.125 135.657C278.058 135.657 278.812 134.902 278.812 133.969C278.812 133.036 278.058 132.282 277.125 132.282ZM268.875 132.282C267.942 132.282 267.188 133.036 267.188 133.969C267.188 134.902 267.942 135.657 268.875 135.657C269.808 135.657 270.562 134.902 270.562 133.969C270.562 133.036 269.808 132.282 268.875 132.282Z" fill="#697789"/>
<g opacity="0.6">
<path d="M274.688 210.951C274.688 211.884 273.933 212.639 273 212.639C272.067 212.639 271.312 211.884 271.312 210.951C271.312 210.019 272.067 209.264 273 209.264C273.933 209.264 274.688 210.019 274.688 210.951ZM277.125 209.264C276.192 209.264 275.438 210.019 275.438 210.951C275.438 211.884 276.192 212.639 277.125 212.639C278.058 212.639 278.812 211.884 278.812 210.951C278.812 210.019 278.058 209.264 277.125 209.264ZM268.875 209.264C267.942 209.264 267.188 210.019 267.188 210.951C267.188 211.884 267.942 212.639 268.875 212.639C269.808 212.639 270.562 211.884 270.562 210.951C270.562 210.019 269.808 209.264 268.875 209.264Z" fill="#697789"/>
</g>
<g opacity="0.3">
<path d="M274.688 287.933C274.688 288.866 273.933 289.621 273 289.621C272.067 289.621 271.312 288.866 271.312 287.933C271.312 287.001 272.067 286.246 273 286.246C273.933 286.246 274.688 287.001 274.688 287.933ZM277.125 286.246C276.192 286.246 275.438 287.001 275.438 287.933C275.438 288.866 276.192 289.621 277.125 289.621C278.058 289.621 278.812 288.866 278.812 287.933C278.812 287.001 278.058 286.246 277.125 286.246ZM268.875 286.246C267.942 286.246 267.188 287.001 267.188 287.933C267.188 288.866 267.942 289.621 268.875 289.621C269.808 289.621 270.562 288.866 270.562 287.933C270.562 287.001 269.808 286.246 268.875 286.246Z" fill="#697789"/>
</g>
<path d="M8.65996 68.2471L21.16 63.5172C21.2051 63.5 21.2542 63.4962 21.3014 63.5062C21.3486 63.5163 21.3919 63.5398 21.426 63.5739C21.4602 63.6081 21.4837 63.6514 21.4938 63.6986C21.5038 63.7458 21.5 63.7949 21.4828 63.84L16.7518 76.3371C16.733 76.3845 16.7001 76.4251 16.6576 76.4533C16.615 76.4815 16.5648 76.496 16.5138 76.4948C16.4627 76.4937 16.4132 76.4769 16.372 76.4468C16.3308 76.4167 16.2997 76.3747 16.2831 76.3264L14.1768 71.1373C14.1523 71.0638 14.111 70.997 14.0561 70.9422C14.0013 70.8873 13.9345 70.846 13.8609 70.8215L8.67059 68.7176C8.62169 68.7013 8.57902 68.6703 8.5484 68.6289C8.51779 68.5875 8.50074 68.5376 8.49958 68.4861C8.49841 68.4346 8.5132 68.3839 8.54191 68.3412C8.57062 68.2984 8.61185 68.2655 8.65996 68.2471V68.2471Z" stroke="white" stroke-linecap="round" stroke-linejoin="round"/>
<path d="M21.375 63.625L14.0938 70.9046" stroke="white" stroke-linecap="round" stroke-linejoin="round"/>
<line opacity="0.6" x1="83" y1="233" x2="194" y2="233" stroke="#D0D7DC" stroke-width="4" stroke-linecap="round"/>
<line opacity="0.3" x1="83" y1="310" x2="194" y2="310" stroke="#D0D7DC" stroke-width="4" stroke-linecap="round"/>
<g clip-path="url(#clip4)">
<path d="M18.5 227.998C20.7091 227.998 22.5 226.208 22.5 223.999C22.5 221.79 20.7091 220 18.5 220C16.2909 220 14.5 221.79 14.5 223.999C14.5 226.208 16.2909 227.998 18.5 227.998Z" stroke="white" stroke-width="1.00595" stroke-linejoin="round"/>
<path d="M18.5 220H11.5C9.29086 220 7.5 221.79 7.5 223.999C7.5 226.208 9.29086 227.998 11.5 227.998H18.5C20.7091 227.998 22.5 226.208 22.5 223.999C22.5 221.79 20.7091 220 18.5 220Z" stroke="white" stroke-width="1.00595" stroke-linejoin="round"/>
</g>
<path d="M21 300.999C21 297.687 18.3125 295 15 295C11.6875 295 9 297.687 9 300.999C9 304.31 11.6875 306.997 15 306.997C18.3125 306.997 21 304.31 21 300.999Z" stroke="white" stroke-width="0.9375" stroke-miterlimit="10"/>
<path d="M18 298.499L13.8 303.498L12 301.498" stroke="white" stroke-width="0.9375" stroke-linecap="round" stroke-linejoin="round"/>
<g filter="url(#filter4_d)">
<rect x="267" y="80" width="250" height="210" rx="4" fill="white"/>
<rect x="267.5" y="80.5" width="249" height="209" rx="3.5" stroke="#EAEDEF"/>
</g>
<path d="M289.5 142C289.5 141.172 290.172 140.5 291 140.5H487C487.828 140.5 488.5 141.172 488.5 142V164C488.5 164.828 487.828 165.5 487 165.5H291C290.172 165.5 289.5 164.828 289.5 164V142Z" fill="white" stroke="#D0D7DC"/>
<path d="M289.5 241C289.5 240.172 290.172 239.5 291 239.5H319C319.828 239.5 320.5 240.172 320.5 241V263C320.5 263.828 319.828 264.5 319 264.5H291C290.172 264.5 289.5 263.828 289.5 263V241Z" fill="white" stroke="#D0D7DC"/>
<path d="M332.5 241C332.5 240.172 333.172 239.5 334 239.5H370C370.828 239.5 371.5 240.172 371.5 241V263C371.5 263.828 370.828 264.5 370 264.5H334C333.172 264.5 332.5 263.828 332.5 263V241Z" fill="white" stroke="#D0D7DC"/>
<path d="M383.5 241C383.5 240.172 384.172 239.5 385 239.5H487C487.828 239.5 488.5 240.172 488.5 241V263C488.5 263.828 487.828 264.5 487 264.5H385C384.172 264.5 383.5 263.828 383.5 263V241Z" fill="white" stroke="#D0D7DC"/>
<path d="M292.588 130.144C294.748 130.144 295.684 129.004 295.684 127.672C295.684 124.684 291.028 125.608 291.028 124.12C291.028 123.52 291.556 123.124 292.384 123.124C293.224 123.124 294.076 123.412 294.7 124.036L295.504 122.992C294.76 122.272 293.752 121.876 292.504 121.876C290.752 121.876 289.588 122.896 289.588 124.216C289.588 127.168 294.256 126.124 294.256 127.804C294.256 128.332 293.8 128.896 292.648 128.896C291.532 128.896 290.668 128.38 290.116 127.792L289.336 128.872C290.044 129.628 291.112 130.144 292.588 130.144ZM299.617 130.144C300.541 130.144 301.393 129.856 301.969 129.304L301.393 128.476C300.985 128.884 300.313 129.112 299.749 129.112C298.657 129.112 297.997 128.392 297.901 127.516H302.377V127.216C302.377 125.392 301.261 124.06 299.521 124.06C297.805 124.06 296.581 125.416 296.581 127.096C296.581 128.932 297.877 130.144 299.617 130.144ZM301.153 126.628H297.889C297.949 125.92 298.441 125.092 299.521 125.092C300.661 125.092 301.129 125.944 301.153 126.628ZM304.881 130V121.996H303.621V130H304.881ZM309.191 130.144C310.115 130.144 310.967 129.856 311.543 129.304L310.967 128.476C310.559 128.884 309.887 129.112 309.323 129.112C308.231 129.112 307.571 128.392 307.475 127.516H311.951V127.216C311.951 125.392 310.835 124.06 309.095 124.06C307.379 124.06 306.155 125.416 306.155 127.096C306.155 128.932 307.451 130.144 309.191 130.144ZM310.727 126.628H307.463C307.523 125.92 308.015 125.092 309.095 125.092C310.235 125.092 310.703 125.944 310.727 126.628ZM315.835 130.144C316.963 130.144 317.647 129.664 318.055 129.112L317.227 128.344C316.903 128.788 316.459 129.028 315.895 129.028C314.839 129.028 314.143 128.224 314.143 127.096C314.143 125.968 314.839 125.176 315.895 125.176C316.459 125.176 316.903 125.404 317.227 125.86L318.055 125.092C317.647 124.54 316.963 124.06 315.835 124.06C314.071 124.06 312.835 125.344 312.835 127.096C312.835 128.86 314.071 130.144 315.835 130.144ZM320.9 130.144C321.488 130.144 321.86 129.988 322.088 129.772L321.788 128.824C321.692 128.932 321.464 129.028 321.224 129.028C320.864 129.028 320.672 128.74 320.672 128.344V125.308H321.848V124.204H320.672V122.62H319.412V124.204H318.452V125.308H319.412V128.656C319.412 129.616 319.928 130.144 320.9 130.144ZM330.874 130V126.16C330.874 124.6 329.746 124.06 328.462 124.06C327.538 124.06 326.698 124.36 326.026 124.996L326.542 125.872C327.046 125.38 327.61 125.14 328.258 125.14C329.062 125.14 329.614 125.548 329.614 126.22V127.084C329.194 126.592 328.522 126.34 327.742 126.34C326.794 126.34 325.726 126.892 325.726 128.224C325.726 129.508 326.794 130.144 327.742 130.144C328.51 130.144 329.182 129.868 329.614 129.376V130H330.874ZM328.234 129.28C327.526 129.28 326.998 128.872 326.998 128.248C326.998 127.612 327.526 127.204 328.234 127.204C328.786 127.204 329.326 127.408 329.614 127.804V128.68C329.326 129.076 328.786 129.28 328.234 129.28ZM337.679 130V125.92C337.679 124.732 337.055 124.06 335.807 124.06C334.895 124.06 334.151 124.54 333.767 124.996V124.204H332.507V130H333.767V125.956C334.055 125.56 334.607 125.176 335.255 125.176C335.963 125.176 336.419 125.476 336.419 126.376V130H337.679ZM347.198 130V126.16C347.198 124.6 346.07 124.06 344.786 124.06C343.862 124.06 343.022 124.36 342.35 124.996L342.866 125.872C343.37 125.38 343.934 125.14 344.582 125.14C345.386 125.14 345.938 125.548 345.938 126.22V127.084C345.518 126.592 344.846 126.34 344.066 126.34C343.118 126.34 342.05 126.892 342.05 128.224C342.05 129.508 343.118 130.144 344.066 130.144C344.834 130.144 345.506 129.868 345.938 129.376V130H347.198ZM344.558 129.28C343.85 129.28 343.322 128.872 343.322 128.248C343.322 127.612 343.85 127.204 344.558 127.204C345.11 127.204 345.65 127.408 345.938 127.804V128.68C345.65 129.076 345.11 129.28 344.558 129.28ZM351.472 130.144C352.6 130.144 353.284 129.664 353.692 129.112L352.864 128.344C352.54 128.788 352.096 129.028 351.532 129.028C350.476 129.028 349.78 128.224 349.78 127.096C349.78 125.968 350.476 125.176 351.532 125.176C352.096 125.176 352.54 125.404 352.864 125.86L353.692 125.092C353.284 124.54 352.6 124.06 351.472 124.06C349.708 124.06 348.472 125.344 348.472 127.096C348.472 128.86 349.708 130.144 351.472 130.144ZM356.536 130.144C357.124 130.144 357.496 129.988 357.724 129.772L357.424 128.824C357.328 128.932 357.1 129.028 356.86 129.028C356.5 129.028 356.308 128.74 356.308 128.344V125.308H357.484V124.204H356.308V122.62H355.048V124.204H354.088V125.308H355.048V128.656C355.048 129.616 355.564 130.144 356.536 130.144ZM359.253 123.496C359.685 123.496 360.033 123.148 360.033 122.716C360.033 122.284 359.685 121.936 359.253 121.936C358.833 121.936 358.473 122.284 358.473 122.716C358.473 123.148 358.833 123.496 359.253 123.496ZM359.889 130V124.204H358.629V130H359.889ZM364.139 130.144C365.999 130.144 367.127 128.764 367.127 127.096C367.127 125.44 365.999 124.06 364.139 124.06C362.303 124.06 361.163 125.44 361.163 127.096C361.163 128.764 362.303 130.144 364.139 130.144ZM364.139 129.028C363.071 129.028 362.471 128.128 362.471 127.096C362.471 126.076 363.071 125.176 364.139 125.176C365.219 125.176 365.819 126.076 365.819 127.096C365.819 128.128 365.219 129.028 364.139 129.028ZM373.574 130V125.92C373.574 124.732 372.95 124.06 371.702 124.06C370.79 124.06 370.046 124.54 369.662 124.996V124.204H368.402V130H369.662V125.956C369.95 125.56 370.502 125.176 371.15 125.176C371.858 125.176 372.314 125.476 372.314 126.376V130H373.574Z" fill="#121517"/>
<path d="M296.044 197L294.088 193.856C295.048 193.7 295.984 192.932 295.984 191.504C295.984 190.028 294.952 188.996 293.368 188.996H289.852V197H291.256V194.012H292.648L294.424 197H296.044ZM293.176 192.776H291.256V190.232H293.176C293.968 190.232 294.544 190.736 294.544 191.504C294.544 192.272 293.968 192.776 293.176 192.776ZM299.664 197.144C300.588 197.144 301.44 196.856 302.016 196.304L301.44 195.476C301.032 195.884 300.36 196.112 299.796 196.112C298.704 196.112 298.044 195.392 297.948 194.516H302.424V194.216C302.424 192.392 301.308 191.06 299.568 191.06C297.852 191.06 296.628 192.416 296.628 194.096C296.628 195.932 297.924 197.144 299.664 197.144ZM301.2 193.628H297.936C297.996 192.92 298.488 192.092 299.568 192.092C300.708 192.092 301.176 192.944 301.2 193.628ZM304.928 197V188.996H303.668V197H304.928ZM311.362 197V193.16C311.362 191.6 310.234 191.06 308.95 191.06C308.026 191.06 307.186 191.36 306.514 191.996L307.03 192.872C307.534 192.38 308.098 192.14 308.746 192.14C309.55 192.14 310.102 192.548 310.102 193.22V194.084C309.682 193.592 309.01 193.34 308.23 193.34C307.282 193.34 306.214 193.892 306.214 195.224C306.214 196.508 307.282 197.144 308.23 197.144C308.998 197.144 309.67 196.868 310.102 196.376V197H311.362ZM308.722 196.28C308.014 196.28 307.486 195.872 307.486 195.248C307.486 194.612 308.014 194.204 308.722 194.204C309.274 194.204 309.814 194.408 310.102 194.804V195.68C309.814 196.076 309.274 196.28 308.722 196.28ZM314.736 197.144C315.324 197.144 315.696 196.988 315.924 196.772L315.624 195.824C315.528 195.932 315.3 196.028 315.06 196.028C314.7 196.028 314.508 195.74 314.508 195.344V192.308H315.684V191.204H314.508V189.62H313.248V191.204H312.288V192.308H313.248V195.656C313.248 196.616 313.764 197.144 314.736 197.144ZM317.452 190.496C317.884 190.496 318.232 190.148 318.232 189.716C318.232 189.284 317.884 188.936 317.452 188.936C317.032 188.936 316.672 189.284 316.672 189.716C316.672 190.148 317.032 190.496 317.452 190.496ZM318.088 197V191.204H316.828V197H318.088ZM322.602 197L324.966 191.204H323.61L321.918 195.548L320.226 191.204H318.882L321.246 197H322.602ZM328.433 197.144C329.357 197.144 330.209 196.856 330.785 196.304L330.209 195.476C329.801 195.884 329.129 196.112 328.565 196.112C327.473 196.112 326.813 195.392 326.717 194.516H331.193V194.216C331.193 192.392 330.077 191.06 328.337 191.06C326.621 191.06 325.397 192.416 325.397 194.096C325.397 195.932 326.693 197.144 328.433 197.144ZM329.969 193.628H326.705C326.765 192.92 327.257 192.092 328.337 192.092C329.477 192.092 329.945 192.944 329.969 193.628ZM340.859 197V188.996H339.599V192.008C339.131 191.396 338.459 191.06 337.739 191.06C336.239 191.06 335.159 192.236 335.159 194.108C335.159 196.016 336.251 197.144 337.739 197.144C338.483 197.144 339.155 196.784 339.599 196.208V197H340.859ZM338.099 196.028C337.103 196.028 336.467 195.224 336.467 194.108C336.467 192.98 337.103 192.176 338.099 192.176C338.699 192.176 339.311 192.524 339.599 192.956V195.26C339.311 195.692 338.699 196.028 338.099 196.028ZM347.292 197V193.16C347.292 191.6 346.164 191.06 344.88 191.06C343.956 191.06 343.116 191.36 342.444 191.996L342.96 192.872C343.464 192.38 344.028 192.14 344.676 192.14C345.48 192.14 346.032 192.548 346.032 193.22V194.084C345.612 193.592 344.94 193.34 344.16 193.34C343.212 193.34 342.144 193.892 342.144 195.224C342.144 196.508 343.212 197.144 344.16 197.144C344.928 197.144 345.6 196.868 346.032 196.376V197H347.292ZM344.652 196.28C343.944 196.28 343.416 195.872 343.416 195.248C343.416 194.612 343.944 194.204 344.652 194.204C345.204 194.204 345.744 194.408 346.032 194.804V195.68C345.744 196.076 345.204 196.28 344.652 196.28ZM350.665 197.144C351.253 197.144 351.625 196.988 351.853 196.772L351.553 195.824C351.457 195.932 351.229 196.028 350.989 196.028C350.629 196.028 350.437 195.74 350.437 195.344V192.308H351.613V191.204H350.437V189.62H349.177V191.204H348.217V192.308H349.177V195.656C349.177 196.616 349.693 197.144 350.665 197.144ZM355.433 197.144C356.357 197.144 357.209 196.856 357.785 196.304L357.209 195.476C356.801 195.884 356.129 196.112 355.565 196.112C354.473 196.112 353.813 195.392 353.717 194.516H358.193V194.216C358.193 192.392 357.077 191.06 355.337 191.06C353.621 191.06 352.397 192.416 352.397 194.096C352.397 195.932 353.693 197.144 355.433 197.144ZM356.969 193.628H353.705C353.765 192.92 354.257 192.092 355.337 192.092C356.477 192.092 356.945 192.944 356.969 193.628ZM360.409 194.648L361.465 194.3C361.309 194.168 361.201 193.952 361.201 193.76C361.201 192.68 363.349 192.536 363.349 190.76C363.349 189.68 362.425 188.876 360.913 188.876C359.833 188.876 358.909 189.32 358.297 190.064L359.101 190.964C359.509 190.46 360.037 190.124 360.769 190.124C361.549 190.124 361.909 190.52 361.909 190.988C361.909 192.008 359.977 192.164 359.977 193.628C359.977 194.024 360.121 194.372 360.409 194.648ZM360.841 197.132C361.297 197.132 361.681 196.748 361.681 196.292C361.681 195.836 361.297 195.452 360.841 195.452C360.385 195.452 360.001 195.836 360.001 196.292C360.001 196.748 360.385 197.132 360.841 197.132Z" fill="#121517"/>
<path d="M297.052 229L293.908 220.996H292.156L289.012 229H290.608L291.196 227.464H294.868L295.456 229H297.052ZM294.472 226.228H291.592L293.032 222.412L294.472 226.228ZM300.53 229.144C301.658 229.144 302.342 228.664 302.75 228.112L301.922 227.344C301.598 227.788 301.154 228.028 300.59 228.028C299.534 228.028 298.838 227.224 298.838 226.096C298.838 224.968 299.534 224.176 300.59 224.176C301.154 224.176 301.598 224.404 301.922 224.86L302.75 224.092C302.342 223.54 301.658 223.06 300.53 223.06C298.766 223.06 297.53 224.344 297.53 226.096C297.53 227.86 298.766 229.144 300.53 229.144ZM305.595 229.144C306.183 229.144 306.555 228.988 306.783 228.772L306.483 227.824C306.387 227.932 306.159 228.028 305.919 228.028C305.559 228.028 305.367 227.74 305.367 227.344V224.308H306.543V223.204H305.367V221.62H304.107V223.204H303.147V224.308H304.107V227.656C304.107 228.616 304.623 229.144 305.595 229.144ZM308.311 222.496C308.743 222.496 309.091 222.148 309.091 221.716C309.091 221.284 308.743 220.936 308.311 220.936C307.891 220.936 307.531 221.284 307.531 221.716C307.531 222.148 307.891 222.496 308.311 222.496ZM308.947 229V223.204H307.687V229H308.947ZM313.198 229.144C315.058 229.144 316.186 227.764 316.186 226.096C316.186 224.44 315.058 223.06 313.198 223.06C311.362 223.06 310.222 224.44 310.222 226.096C310.222 227.764 311.362 229.144 313.198 229.144ZM313.198 228.028C312.13 228.028 311.53 227.128 311.53 226.096C311.53 225.076 312.13 224.176 313.198 224.176C314.278 224.176 314.878 225.076 314.878 226.096C314.878 227.128 314.278 228.028 313.198 228.028ZM322.633 229V224.92C322.633 223.732 322.009 223.06 320.761 223.06C319.849 223.06 319.105 223.54 318.721 223.996V223.204H317.461V229H318.721V224.956C319.009 224.56 319.561 224.176 320.209 224.176C320.917 224.176 321.373 224.476 321.373 225.376V229H322.633ZM329.091 229.144C329.679 229.144 330.051 228.988 330.279 228.772L329.979 227.824C329.883 227.932 329.655 228.028 329.415 228.028C329.055 228.028 328.863 227.74 328.863 227.344V224.308H330.039V223.204H328.863V221.62H327.603V223.204H326.643V224.308H327.603V227.656C327.603 228.616 328.119 229.144 329.091 229.144ZM332.443 229V225.052C332.695 224.644 333.403 224.284 333.931 224.284C334.087 224.284 334.219 224.296 334.327 224.32V223.072C333.571 223.072 332.875 223.504 332.443 224.056V223.204H331.183V229H332.443ZM335.967 222.496C336.399 222.496 336.747 222.148 336.747 221.716C336.747 221.284 336.399 220.936 335.967 220.936C335.547 220.936 335.187 221.284 335.187 221.716C335.187 222.148 335.547 222.496 335.967 222.496ZM336.603 229V223.204H335.343V229H336.603ZM340.59 231.352C342.018 231.352 343.566 230.788 343.566 228.7V223.204H342.306V224.008C341.838 223.396 341.178 223.06 340.446 223.06C338.958 223.06 337.878 224.164 337.878 226.036C337.878 227.944 338.97 229.012 340.446 229.012C341.202 229.012 341.862 228.628 342.306 228.052V228.748C342.306 229.936 341.418 230.32 340.59 230.32C339.822 230.32 339.222 230.116 338.754 229.576L338.166 230.488C338.874 231.136 339.606 231.352 340.59 231.352ZM340.818 227.896C339.822 227.896 339.186 227.152 339.186 226.036C339.186 224.92 339.822 224.176 340.818 224.176C341.406 224.176 342.03 224.524 342.306 224.956V227.116C342.03 227.548 341.406 227.896 340.818 227.896ZM347.551 231.352C348.979 231.352 350.527 230.788 350.527 228.7V223.204H349.267V224.008C348.799 223.396 348.139 223.06 347.407 223.06C345.919 223.06 344.839 224.164 344.839 226.036C344.839 227.944 345.931 229.012 347.407 229.012C348.163 229.012 348.823 228.628 349.267 228.052V228.748C349.267 229.936 348.379 230.32 347.551 230.32C346.783 230.32 346.183 230.116 345.715 229.576L345.127 230.488C345.835 231.136 346.567 231.352 347.551 231.352ZM347.779 227.896C346.783 227.896 346.147 227.152 346.147 226.036C346.147 224.92 346.783 224.176 347.779 224.176C348.367 224.176 348.991 224.524 349.267 224.956V227.116C348.991 227.548 348.367 227.896 347.779 227.896ZM354.836 229.144C355.76 229.144 356.612 228.856 357.188 228.304L356.612 227.476C356.204 227.884 355.532 228.112 354.968 228.112C353.876 228.112 353.216 227.392 353.12 226.516H357.596V226.216C357.596 224.392 356.48 223.06 354.74 223.06C353.024 223.06 351.8 224.416 351.8 226.096C351.8 227.932 353.096 229.144 354.836 229.144ZM356.372 225.628H353.108C353.168 224.92 353.66 224.092 354.74 224.092C355.88 224.092 356.348 224.944 356.372 225.628ZM360.099 229V225.052C360.351 224.644 361.059 224.284 361.587 224.284C361.743 224.284 361.875 224.296 361.983 224.32V223.072C361.227 223.072 360.531 223.504 360.099 224.056V223.204H358.839V229H360.099Z" fill="#121517"/>
<g filter="url(#filter5_d)">
<path d="M267 84C267 81.7909 268.791 80 271 80H513C515.209 80 517 81.7909 517 84V109H267V84Z" fill="#17A17E"/>
<path d="M267.5 84C267.5 82.067 269.067 80.5 271 80.5H513C514.933 80.5 516.5 82.067 516.5 84V108.5H267.5V84Z" stroke="#EAEDEF"/>
</g>
<path d="M294.368 96.9761L292.272 91.6401H291.104L289.008 96.9761H290.072L290.464 95.9521H292.912L293.304 96.9761H294.368ZM292.648 95.1281H290.728L291.688 92.5841L292.648 95.1281ZM296.935 96.9761C298.599 96.9761 299.727 95.8801 299.727 94.3121C299.727 92.7441 298.599 91.6401 296.935 91.6401H294.951V96.9761H296.935ZM296.935 96.1521H295.887V92.4641H296.935C298.127 92.4641 298.767 93.2801 298.767 94.3121C298.767 95.3201 298.095 96.1521 296.935 96.1521ZM302.615 96.9761C304.279 96.9761 305.407 95.8801 305.407 94.3121C305.407 92.7441 304.279 91.6401 302.615 91.6401H300.631V96.9761H302.615ZM302.615 96.1521H301.567V92.4641H302.615C303.807 92.4641 304.447 93.2801 304.447 94.3121C304.447 95.3201 303.775 96.1521 302.615 96.1521ZM313.165 96.9761L311.069 91.6401H309.901L307.805 96.9761H308.869L309.261 95.9521H311.709L312.101 96.9761H313.165ZM311.445 95.1281H309.525L310.485 92.5841L311.445 95.1281ZM316.026 97.0721C317.106 97.0721 317.762 96.5121 318.17 95.8721L317.37 95.4641C317.114 95.9121 316.602 96.2401 316.026 96.2401C314.97 96.2401 314.186 95.4321 314.186 94.3121C314.186 93.1921 314.97 92.3841 316.026 92.3841C316.602 92.3841 317.114 92.7201 317.37 93.1601L318.17 92.7521C317.77 92.1121 317.106 91.5521 316.026 91.5521C314.45 91.5521 313.226 92.6721 313.226 94.3121C313.226 95.9521 314.45 97.0721 316.026 97.0721ZM321.128 96.9761V92.4641H322.744V91.6401H318.576V92.4641H320.192V96.9761H321.128ZM324.473 96.9761V91.6401H323.537V96.9761H324.473ZM328.095 97.0721C329.695 97.0721 330.823 95.9041 330.823 94.3121C330.823 92.7201 329.695 91.5521 328.095 91.5521C326.495 91.5521 325.367 92.7201 325.367 94.3121C325.367 95.9041 326.495 97.0721 328.095 97.0721ZM328.095 96.2401C327.015 96.2401 326.327 95.4081 326.327 94.3121C326.327 93.2081 327.015 92.3841 328.095 92.3841C329.167 92.3841 329.863 93.2081 329.863 94.3121C329.863 95.4081 329.167 96.2401 328.095 96.2401ZM336.348 96.9761V91.6401H335.412V95.3441L332.684 91.6401H331.724V96.9761H332.66V93.1681L335.444 96.9761H336.348Z" fill="white"/>
<path d="M471.782 151.499H478.215C478.66 151.499 478.882 152.003 478.567 152.298L475.352 155.315C475.157 155.497 474.84 155.497 474.645 155.315L471.43 152.298C471.115 152.003 471.337 151.499 471.782 151.499Z" fill="#121517"/>
<path d="M471.782 250.499H478.215C478.66 250.499 478.882 251.003 478.567 251.298L475.352 254.315C475.157 254.497 474.84 254.497 474.645 254.315L471.43 251.298C471.115 251.003 471.337 250.499 471.782 250.499Z" fill="#121517"/>
<path d="M358.782 250.499H365.215C365.66 250.499 365.882 251.003 365.567 251.298L362.352 254.315C362.157 254.497 361.84 254.497 361.645 254.315L358.43 251.298C358.115 251.003 358.337 250.499 358.782 250.499Z" fill="#121517"/>
<line x1="300" y1="252" x2="310" y2="252" stroke="#D0D7DC" stroke-width="4" stroke-linecap="round"/>
<line x1="341" y1="252" x2="351" y2="252" stroke="#D0D7DC" stroke-width="4" stroke-linecap="round"/>
<line x1="392" y1="252" x2="453" y2="252" stroke="#D0D7DC" stroke-width="4" stroke-linecap="round"/>
<rect x="457" y="185" width="32" height="16.996" rx="8.49802" fill="#62AF31"/>
<g filter="url(#filter6_d)">
<ellipse cx="480.5" cy="193.498" rx="7.5" ry="7.49826" fill="white"/>
</g>
<path d="M302.94 156.12C304.12 156.12 304.92 155.56 305.48 154.8L304.77 154.41C304.39 154.98 303.7 155.38 302.94 155.38C301.48 155.38 300.37 154.25 300.37 152.67C300.37 151.08 301.48 149.96 302.94 149.96C303.7 149.96 304.39 150.37 304.77 150.93L305.47 150.54C304.94 149.79 304.12 149.22 302.94 149.22C301.02 149.22 299.51 150.62 299.51 152.67C299.51 154.72 301.02 156.12 302.94 156.12ZM307.258 156V152.58C307.478 152.19 308.108 151.81 308.568 151.81C308.688 151.81 308.778 151.82 308.868 151.84V151.07C308.208 151.07 307.648 151.44 307.258 151.95V151.17H306.508V156H307.258ZM311.989 156.12C312.779 156.12 313.429 155.86 313.909 155.38L313.549 154.89C313.169 155.28 312.609 155.5 312.059 155.5C311.019 155.5 310.379 154.74 310.319 153.83H314.229V153.64C314.229 152.19 313.369 151.05 311.909 151.05C310.529 151.05 309.529 152.18 309.529 153.58C309.529 155.09 310.559 156.12 311.989 156.12ZM313.489 153.28H310.319C310.359 152.54 310.869 151.67 311.899 151.67C312.999 151.67 313.479 152.56 313.489 153.28ZM319.213 156V152.68C319.213 151.51 318.363 151.05 317.343 151.05C316.553 151.05 315.933 151.31 315.413 151.85L315.763 152.37C316.193 151.91 316.663 151.7 317.243 151.7C317.943 151.7 318.463 152.07 318.463 152.72V153.59C318.073 153.14 317.523 152.93 316.863 152.93C316.043 152.93 315.173 153.44 315.173 154.52C315.173 155.57 316.043 156.12 316.863 156.12C317.513 156.12 318.063 155.89 318.463 155.45V156H319.213ZM317.133 155.58C316.433 155.58 315.943 155.14 315.943 154.53C315.943 153.91 316.433 153.47 317.133 153.47C317.663 153.47 318.173 153.67 318.463 154.07V154.98C318.173 155.38 317.663 155.58 317.133 155.58ZM321.937 156.12C322.377 156.12 322.647 155.99 322.837 155.81L322.617 155.25C322.517 155.36 322.317 155.45 322.107 155.45C321.777 155.45 321.617 155.19 321.617 154.83V151.83H322.597V151.17H321.617V149.85H320.867V151.17H320.067V151.83H320.867V154.99C320.867 155.71 321.227 156.12 321.937 156.12ZM325.836 156.12C326.626 156.12 327.276 155.86 327.756 155.38L327.396 154.89C327.016 155.28 326.456 155.5 325.906 155.5C324.866 155.5 324.226 154.74 324.166 153.83H328.076V153.64C328.076 152.19 327.216 151.05 325.756 151.05C324.376 151.05 323.376 152.18 323.376 153.58C323.376 155.09 324.406 156.12 325.836 156.12ZM327.336 153.28H324.166C324.206 152.54 324.716 151.67 325.746 151.67C326.846 151.67 327.326 152.56 327.336 153.28ZM332.239 150.48C332.519 150.48 332.749 150.26 332.749 149.98C332.749 149.7 332.519 149.47 332.239 149.47C331.969 149.47 331.739 149.7 331.739 149.98C331.739 150.26 331.969 150.48 332.239 150.48ZM332.619 156V151.17H331.869V156H332.619ZM338.125 156V152.61C338.125 151.56 337.595 151.05 336.585 151.05C335.865 151.05 335.205 151.47 334.865 151.87V151.17H334.115V156H334.865V152.47C335.145 152.08 335.705 151.72 336.295 151.72C336.945 151.72 337.375 151.99 337.375 152.84V156H338.125ZM341.733 156L343.743 151.17H342.923L341.323 155.13L339.713 151.17H338.903L340.913 156H341.733ZM346.635 156.12C348.105 156.12 349.025 154.98 349.025 153.58C349.025 152.18 348.105 151.05 346.635 151.05C345.165 151.05 344.245 152.18 344.245 153.58C344.245 154.98 345.165 156.12 346.635 156.12ZM346.635 155.45C345.605 155.45 345.025 154.57 345.025 153.58C345.025 152.6 345.605 151.72 346.635 151.72C347.665 151.72 348.235 152.6 348.235 153.58C348.235 154.57 347.665 155.45 346.635 155.45ZM350.618 150.48C350.898 150.48 351.128 150.26 351.128 149.98C351.128 149.7 350.898 149.47 350.618 149.47C350.348 149.47 350.118 149.7 350.118 149.98C350.118 150.26 350.348 150.48 350.618 150.48ZM350.998 156V151.17H350.248V156H350.998ZM354.624 156.12C355.504 156.12 356.024 155.76 356.394 155.28L355.894 154.82C355.574 155.25 355.164 155.45 354.664 155.45C353.634 155.45 352.994 154.65 352.994 153.58C352.994 152.51 353.634 151.72 354.664 151.72C355.164 151.72 355.574 151.91 355.894 152.35L356.394 151.89C356.024 151.41 355.504 151.05 354.624 151.05C353.184 151.05 352.214 152.15 352.214 153.58C352.214 155.02 353.184 156.12 354.624 156.12ZM359.625 156.12C360.415 156.12 361.065 155.86 361.545 155.38L361.185 154.89C360.805 155.28 360.245 155.5 359.695 155.5C358.655 155.5 358.015 154.74 357.955 153.83H361.865V153.64C361.865 152.19 361.005 151.05 359.545 151.05C358.165 151.05 357.165 152.18 357.165 153.58C357.165 155.09 358.195 156.12 359.625 156.12ZM361.125 153.28H357.955C357.995 152.54 358.505 151.67 359.535 151.67C360.635 151.67 361.115 152.56 361.125 153.28Z" fill="#121517"/>
<defs>
<filter id="filter0_d" x="2" y="1" width="328" height="145" filterUnits="userSpaceOnUse" color-interpolation-filters="sRGB">
<feFlood flood-opacity="0" result="BackgroundImageFix"/>
<feColorMatrix in="SourceAlpha" type="matrix" values="0 0 0 0 0 0 0 0 0 0 0 0 0 0 0 0 0 0 127 0"/>
<feOffset dy="4"/>
<feGaussianBlur stdDeviation="20"/>
<feColorMatrix type="matrix" values="0 0 0 0 0.329412 0 0 0 0 0.364706 0 0 0 0 0.388235 0 0 0 0.1 0"/>
<feBlend mode="normal" in2="BackgroundImageFix" result="effect1_dropShadow"/>
<feBlend mode="normal" in="SourceGraphic" in2="effect1_dropShadow" result="shape"/>
</filter>
<filter id="filter1_d" x="2" y="78" width="328" height="145" filterUnits="userSpaceOnUse" color-interpolation-filters="sRGB">
<feFlood flood-opacity="0" result="BackgroundImageFix"/>
<feColorMatrix in="SourceAlpha" type="matrix" values="0 0 0 0 0 0 0 0 0 0 0 0 0 0 0 0 0 0 127 0"/>
<feOffset dy="4"/>
<feGaussianBlur stdDeviation="20"/>
<feColorMatrix type="matrix" values="0 0 0 0 0.329412 0 0 0 0 0.364706 0 0 0 0 0.388235 0 0 0 0.1 0"/>
<feBlend mode="normal" in2="BackgroundImageFix" result="effect1_dropShadow"/>
<feBlend mode="normal" in="SourceGraphic" in2="effect1_dropShadow" result="shape"/>
</filter>
<filter id="filter2_d" x="2" y="155" width="328" height="145" filterUnits="userSpaceOnUse" color-interpolation-filters="sRGB">
<feFlood flood-opacity="0" result="BackgroundImageFix"/>
<feColorMatrix in="SourceAlpha" type="matrix" values="0 0 0 0 0 0 0 0 0 0 0 0 0 0 0 0 0 0 127 0"/>
<feOffset dy="4"/>
<feGaussianBlur stdDeviation="20"/>
<feColorMatrix type="matrix" values="0 0 0 0 0.329412 0 0 0 0 0.364706 0 0 0 0 0.388235 0 0 0 0.1 0"/>
<feBlend mode="normal" in2="BackgroundImageFix" result="effect1_dropShadow"/>
<feBlend mode="normal" in="SourceGraphic" in2="effect1_dropShadow" result="shape"/>
</filter>
<filter id="filter3_d" x="2" y="232" width="328" height="145" filterUnits="userSpaceOnUse" color-interpolation-filters="sRGB">
<feFlood flood-opacity="0" result="BackgroundImageFix"/>
<feColorMatrix in="SourceAlpha" type="matrix" values="0 0 0 0 0 0 0 0 0 0 0 0 0 0 0 0 0 0 127 0"/>
<feOffset dy="4"/>
<feGaussianBlur stdDeviation="20"/>
<feColorMatrix type="matrix" values="0 0 0 0 0.329412 0 0 0 0 0.364706 0 0 0 0 0.388235 0 0 0 0.1 0"/>
<feBlend mode="normal" in2="BackgroundImageFix" result="effect1_dropShadow"/>
<feBlend mode="normal" in="SourceGraphic" in2="effect1_dropShadow" result="shape"/>
</filter>
<filter id="filter4_d" x="227" y="44" width="330" height="290" filterUnits="userSpaceOnUse" color-interpolation-filters="sRGB">
<feFlood flood-opacity="0" result="BackgroundImageFix"/>
<feColorMatrix in="SourceAlpha" type="matrix" values="0 0 0 0 0 0 0 0 0 0 0 0 0 0 0 0 0 0 127 0"/>
<feOffset dy="4"/>
<feGaussianBlur stdDeviation="20"/>
<feColorMatrix type="matrix" values="0 0 0 0 0.329412 0 0 0 0 0.364706 0 0 0 0 0.388235 0 0 0 0.1 0"/>
<feBlend mode="normal" in2="BackgroundImageFix" result="effect1_dropShadow"/>
<feBlend mode="normal" in="SourceGraphic" in2="effect1_dropShadow" result="shape"/>
</filter>
<filter id="filter5_d" x="227" y="44" width="330" height="109" filterUnits="userSpaceOnUse" color-interpolation-filters="sRGB">
<feFlood flood-opacity="0" result="BackgroundImageFix"/>
<feColorMatrix in="SourceAlpha" type="matrix" values="0 0 0 0 0 0 0 0 0 0 0 0 0 0 0 0 0 0 127 0"/>
<feOffset dy="4"/>
<feGaussianBlur stdDeviation="20"/>
<feColorMatrix type="matrix" values="0 0 0 0 0.329412 0 0 0 0 0.364706 0 0 0 0 0.388235 0 0 0 0.1 0"/>
<feBlend mode="normal" in2="BackgroundImageFix" result="effect1_dropShadow"/>
<feBlend mode="normal" in="SourceGraphic" in2="effect1_dropShadow" result="shape"/>
</filter>
<filter id="filter6_d" x="472" y="186" width="19" height="18.9965" filterUnits="userSpaceOnUse" color-interpolation-filters="sRGB">
<feFlood flood-opacity="0" result="BackgroundImageFix"/>
<feColorMatrix in="SourceAlpha" type="matrix" values="0 0 0 0 0 0 0 0 0 0 0 0 0 0 0 0 0 0 127 0"/>
<feOffset dx="1" dy="2"/>
<feGaussianBlur stdDeviation="1"/>
<feColorMatrix type="matrix" values="0 0 0 0 0 0 0 0 0 0 0 0 0 0 0 0 0 0 0.1 0"/>
<feBlend mode="normal" in2="BackgroundImageFix" result="effect1_dropShadow"/>
<feBlend mode="normal" in="SourceGraphic" in2="effect1_dropShadow" result="shape"/>
</filter>
<clipPath id="clip0">
<rect width="12" height="11.9972" fill="white" transform="translate(62 74)"/>
</clipPath>
<clipPath id="clip1">
<rect width="12" height="11.9972" fill="white" transform="translate(62 151)"/>
</clipPath>
<clipPath id="clip2">
<rect width="12" height="11.9972" fill="white" transform="translate(62 228)"/>
</clipPath>
<clipPath id="clip3">
<rect width="12" height="11.9972" fill="white" transform="translate(62 305)"/>
</clipPath>
<clipPath id="clip4">
<rect width="16" height="15.9963" fill="white" transform="translate(7 216)"/>
</clipPath>
</defs>
</svg>
