<svg width="536" height="436" viewBox="0 0 536 436" fill="none" xmlns="http://www.w3.org/2000/svg">
<g filter="url(#filter0_d)">
<rect x="40" y="36" width="312" height="356" rx="4" fill="white"/>
<rect x="40.5" y="36.5" width="311" height="355" rx="3.5" stroke="#EAEDEF"/>
</g>
<path d="M40.5 40C40.5 38.067 42.067 36.5 44 36.5H348C349.933 36.5 351.5 38.067 351.5 40V45.4969H40.5V40Z" fill="#17A17E" stroke="#EAEDEF"/>
<path d="M88.1427 76V73.51H89.9027C91.2927 73.51 92.0827 72.55 92.0827 71.42C92.0827 70.29 91.3027 69.33 89.9027 69.33H86.9727V76H88.1427ZM89.7427 72.48H88.1427V70.36H89.7427C90.4027 70.36 90.8827 70.78 90.8827 71.42C90.8827 72.06 90.4027 72.48 89.7427 72.48ZM98.2167 76L96.5867 73.38C97.3867 73.25 98.1667 72.61 98.1667 71.42C98.1667 70.19 97.3067 69.33 95.9867 69.33H93.0567V76H94.2267V73.51H95.3867L96.8667 76H98.2167ZM95.8267 72.48H94.2267V70.36H95.8267C96.4867 70.36 96.9667 70.78 96.9667 71.42C96.9667 72.06 96.4867 72.48 95.8267 72.48ZM102.446 76.12C104.446 76.12 105.856 74.66 105.856 72.67C105.856 70.68 104.446 69.22 102.446 69.22C100.446 69.22 99.036 70.68 99.036 72.67C99.036 74.66 100.446 76.12 102.446 76.12ZM102.446 75.08C101.096 75.08 100.236 74.04 100.236 72.67C100.236 71.29 101.096 70.26 102.446 70.26C103.786 70.26 104.656 71.29 104.656 72.67C104.656 74.04 103.786 75.08 102.446 75.08ZM108.152 76V73.51H109.912C111.302 73.51 112.092 72.55 112.092 71.42C112.092 70.29 111.312 69.33 109.912 69.33H106.982V76H108.152ZM109.752 72.48H108.152V70.36H109.752C110.412 70.36 110.892 70.78 110.892 71.42C110.892 72.06 110.412 72.48 109.752 72.48ZM116.176 76.12C118.176 76.12 119.586 74.66 119.586 72.67C119.586 70.68 118.176 69.22 116.176 69.22C114.176 69.22 112.766 70.68 112.766 72.67C112.766 74.66 114.176 76.12 116.176 76.12ZM116.176 75.08C114.826 75.08 113.966 74.04 113.966 72.67C113.966 71.29 114.826 70.26 116.176 70.26C117.516 70.26 118.386 71.29 118.386 72.67C118.386 74.04 117.516 75.08 116.176 75.08ZM122.993 76.12C124.793 76.12 125.573 75.17 125.573 74.06C125.573 71.57 121.693 72.34 121.693 71.1C121.693 70.6 122.133 70.27 122.823 70.27C123.523 70.27 124.233 70.51 124.753 71.03L125.423 70.16C124.803 69.56 123.963 69.23 122.923 69.23C121.463 69.23 120.493 70.08 120.493 71.18C120.493 73.64 124.383 72.77 124.383 74.17C124.383 74.61 124.003 75.08 123.043 75.08C122.113 75.08 121.393 74.65 120.933 74.16L120.283 75.06C120.873 75.69 121.763 76.12 122.993 76.12ZM132.553 76L129.933 69.33H128.473L125.853 76H127.183L127.673 74.72H130.733L131.223 76H132.553ZM130.403 73.69H128.003L129.203 70.51L130.403 73.69ZM137.391 76V74.97H134.451V69.33H133.281V76H137.391Z" fill="#121517"/>
<path d="M177.712 76.12C179.062 76.12 179.882 75.42 180.392 74.62L179.392 74.11C179.072 74.67 178.432 75.08 177.712 75.08C176.392 75.08 175.412 74.07 175.412 72.67C175.412 71.27 176.392 70.26 177.712 70.26C178.432 70.26 179.072 70.68 179.392 71.23L180.392 70.72C179.892 69.92 179.062 69.22 177.712 69.22C175.742 69.22 174.212 70.62 174.212 72.67C174.212 74.72 175.742 76.12 177.712 76.12ZM184.439 76.12C186.439 76.12 187.849 74.66 187.849 72.67C187.849 70.68 186.439 69.22 184.439 69.22C182.439 69.22 181.029 70.68 181.029 72.67C181.029 74.66 182.439 76.12 184.439 76.12ZM184.439 75.08C183.089 75.08 182.229 74.04 182.229 72.67C182.229 71.29 183.089 70.26 184.439 70.26C185.779 70.26 186.649 71.29 186.649 72.67C186.649 74.04 185.779 75.08 184.439 75.08ZM194.755 76V69.33H193.585V73.96L190.175 69.33H188.975V76H190.145V71.24L193.625 76H194.755ZM198.932 76V70.36H200.952V69.33H195.742V70.36H197.762V76H198.932ZM207.104 76L205.474 73.38C206.274 73.25 207.054 72.61 207.054 71.42C207.054 70.19 206.194 69.33 204.874 69.33H201.944V76H203.114V73.51H204.274L205.754 76H207.104ZM204.714 72.48H203.114V70.36H204.714C205.374 70.36 205.854 70.78 205.854 71.42C205.854 72.06 205.374 72.48 204.714 72.48ZM214.223 76L211.603 69.33H210.143L207.523 76H208.853L209.343 74.72H212.403L212.893 76H214.223ZM212.073 73.69H209.673L210.873 70.51L212.073 73.69ZM217.8 76.12C219.15 76.12 219.97 75.42 220.48 74.62L219.48 74.11C219.16 74.67 218.52 75.08 217.8 75.08C216.48 75.08 215.5 74.07 215.5 72.67C215.5 71.27 216.48 70.26 217.8 70.26C218.52 70.26 219.16 70.68 219.48 71.23L220.48 70.72C219.98 69.92 219.15 69.22 217.8 69.22C215.83 69.22 214.3 70.62 214.3 72.67C214.3 74.72 215.83 76.12 217.8 76.12ZM224.177 76V70.36H226.197V69.33H220.987V70.36H223.007V76H224.177Z" fill="#121517"/>
<path d="M267.144 76V69.33H265.974V76H267.144ZM274.342 76V69.33H273.172V73.96L269.762 69.33H268.562V76H269.732V71.24L273.212 76H274.342ZM279.139 76L281.759 69.33H280.429L278.409 74.73L276.389 69.33H275.059L277.679 76H279.139ZM285.402 76.12C287.402 76.12 288.812 74.66 288.812 72.67C288.812 70.68 287.402 69.22 285.402 69.22C283.402 69.22 281.992 70.68 281.992 72.67C281.992 74.66 283.402 76.12 285.402 76.12ZM285.402 75.08C284.052 75.08 283.192 74.04 283.192 72.67C283.192 71.29 284.052 70.26 285.402 70.26C286.742 70.26 287.612 71.29 287.612 72.67C287.612 74.04 286.742 75.08 285.402 75.08ZM291.109 76V69.33H289.939V76H291.109ZM295.726 76.12C297.076 76.12 297.896 75.42 298.406 74.62L297.406 74.11C297.086 74.67 296.446 75.08 295.726 75.08C294.406 75.08 293.426 74.07 293.426 72.67C293.426 71.27 294.406 70.26 295.726 70.26C296.446 70.26 297.086 70.68 297.406 71.23L298.406 70.72C297.906 69.92 297.076 69.22 295.726 69.22C293.756 69.22 292.226 70.62 292.226 72.67C292.226 74.72 293.756 76.12 295.726 76.12ZM303.913 76V74.97H300.513V73.12H303.843V72.09H300.513V70.36H303.913V69.33H299.343V76H303.913Z" fill="#121517"/>
<line x1="79" y1="122" x2="311" y2="122" stroke="#D0D7DC" stroke-width="4" stroke-linecap="round"/>
<line x1="79" y1="192" x2="311" y2="192" stroke="#D0D7DC" stroke-width="4" stroke-linecap="round"/>
<line x1="79" y1="140" x2="311" y2="140" stroke="#D0D7DC" stroke-width="4" stroke-linecap="round"/>
<line x1="79" y1="210" x2="311" y2="210" stroke="#D0D7DC" stroke-width="4" stroke-linecap="round"/>
<line x1="79" y1="228" x2="211" y2="228" stroke="#D0D7DC" stroke-width="4" stroke-linecap="round"/>
<line x1="77.7699" y1="347.23" x2="258.23" y2="347.23" stroke="#121517" stroke-width="1.53979" stroke-linecap="round"/>
<line x1="79" y1="158" x2="273" y2="158" stroke="#D0D7DC" stroke-width="4" stroke-linecap="round"/>
<line x1="169" y1="88" x2="231" y2="88" stroke="#17A17E" stroke-width="2" stroke-linecap="round"/>
<path d="M86.0605 334L89.0292 331.031C89.1701 330.891 89.2494 330.7 89.2495 330.501C89.2497 330.302 89.1708 330.111 89.0301 329.97C88.8895 329.829 88.6986 329.75 88.4996 329.749C88.3005 329.749 88.1095 329.828 87.9686 329.969L84.9998 332.937L82.0311 329.969C81.8902 329.828 81.6991 329.749 81.4998 329.749C81.3006 329.749 81.1095 329.828 80.9686 329.969C80.8277 330.11 80.7485 330.301 80.7485 330.5C80.7485 330.699 80.8277 330.89 80.9686 331.031L83.9373 334L80.9686 336.969C80.8277 337.11 80.7485 337.301 80.7485 337.5C80.7485 337.699 80.8277 337.89 80.9686 338.031C81.1095 338.172 81.3006 338.251 81.4998 338.251C81.6991 338.251 81.8902 338.172 82.0311 338.031L84.9998 335.062L87.9686 338.031C88.1095 338.172 88.3006 338.251 88.4998 338.251C88.6991 338.251 88.8902 338.172 89.0311 338.031C89.172 337.89 89.2511 337.699 89.2511 337.5C89.2511 337.301 89.172 337.11 89.0311 336.969L86.0605 334Z" fill="#121517"/>
<path d="M90 379C103.241 366.739 118.021 338.049 118.807 321.415M118.807 321.415C118.872 320.033 118.742 322.793 118.807 321.415ZM118.807 321.415C118.889 319.684 118.866 323.549 118.807 321.415ZM118.807 321.415C118.807 318.964 121.078 300.939 121.078 298.141C121.078 296.066 121.078 293.024 121.078 290.881C121.078 288.697 120.395 285.687 117.022 285.1C115.461 284.828 114.618 285.11 113.759 285.976C112.331 287.416 111.454 289.225 110.485 290.881C109.306 292.9 108.507 295 108.081 297.172C107.678 299.225 107.407 301.348 107.143 303.42C106.841 305.79 106.801 308.138 106.801 310.531C106.801 311.935 107.118 314.321 108.279 315.492C110.001 317.229 112.342 319.679 114.931 320.567C119.002 321.964 123.407 322.936 127.125 320.567C129.835 318.841 133.822 317.096 136.654 315.492C140.944 313.062 141.683 308.704 141.683 308.704C141.789 308.373 141.845 309.002 141.845 309.315C141.845 310.733 141.963 312.179 141.683 313.584C141.014 316.942 140.769 320.598 139.979 323.944M136.383 336.909C136.654 335.79 137.139 334.572 137.555 333.431C138.199 331.664 138.373 329.85 138.997 328.088C139.695 326.116 139.695 323.507 140.944 321.726C141.833 320.459 145.8 319.871 147.037 320.963C148.646 322.383 149.01 327.609 149.625 329.235C150.189 330.728 149.791 329.833 150.356 331.34C151.192 333.196 152.741 334.959 154.214 335.79C155.289 336.397 156.728 337.074 158.791 337.757C160.914 338.46 165.769 338.946 168.889 338.049C173.313 336.776 175.809 335.246 178.06 333.431C182.677 329.707 186.91 328.815 192.466 331.961C196.519 334.257 201.267 335.405 206.166 336.173C211.513 337.012 219.038 337.876 224.193 336.173C227.918 334.944 231.179 332.59 234 330.378" stroke="#17A17E" stroke-width="6.15916" stroke-linecap="round" stroke-linejoin="round"/>
<path d="M80.128 271.096C81.208 271.096 81.864 270.536 82.272 269.896L81.472 269.488C81.216 269.936 80.704 270.264 80.128 270.264C79.072 270.264 78.288 269.456 78.288 268.336C78.288 267.216 79.072 266.408 80.128 266.408C80.704 266.408 81.216 266.744 81.472 267.184L82.272 266.776C81.872 266.136 81.208 265.576 80.128 265.576C78.552 265.576 77.328 266.696 77.328 268.336C77.328 269.976 78.552 271.096 80.128 271.096ZM83.8371 271V265.664H82.9971V271H83.8371ZM85.3428 266.664C85.6308 266.664 85.8628 266.432 85.8628 266.144C85.8628 265.856 85.6308 265.624 85.3428 265.624C85.0628 265.624 84.8228 265.856 84.8228 266.144C84.8228 266.432 85.0628 266.664 85.3428 266.664ZM85.7668 271V267.136H84.9268V271H85.7668ZM88.6405 271.096C89.2565 271.096 89.8245 270.904 90.2085 270.536L89.8245 269.984C89.5525 270.256 89.1045 270.408 88.7285 270.408C88.0005 270.408 87.5605 269.928 87.4965 269.344H90.4805V269.144C90.4805 267.928 89.7365 267.04 88.5765 267.04C87.4325 267.04 86.6165 267.944 86.6165 269.064C86.6165 270.288 87.4805 271.096 88.6405 271.096ZM89.6645 268.752H87.4885C87.5285 268.28 87.8565 267.728 88.5765 267.728C89.3365 267.728 89.6485 268.296 89.6645 268.752ZM94.7576 271V268.28C94.7576 267.488 94.3416 267.04 93.5096 267.04C92.9016 267.04 92.4056 267.36 92.1496 267.664V267.136H91.3096V271H92.1496V268.304C92.3416 268.04 92.7096 267.784 93.1416 267.784C93.6136 267.784 93.9176 267.984 93.9176 268.584V271H94.7576ZM97.0087 271.096C97.4007 271.096 97.6487 270.992 97.8007 270.848L97.6007 270.216C97.5367 270.288 97.3847 270.352 97.2247 270.352C96.9847 270.352 96.8567 270.16 96.8567 269.896V267.872H97.6407V267.136H96.8567V266.08H96.0167V267.136H95.3767V267.872H96.0167V270.104C96.0167 270.744 96.3607 271.096 97.0087 271.096ZM101.778 271.096C102.818 271.096 103.386 270.576 103.386 269.896C103.386 268.36 101.05 268.872 101.05 268.184C101.05 267.912 101.33 267.712 101.77 267.712C102.25 267.712 102.682 267.912 102.914 268.176L103.266 267.584C102.914 267.272 102.418 267.04 101.762 267.04C100.786 267.04 100.242 267.584 100.242 268.216C100.242 269.696 102.578 269.152 102.578 269.912C102.578 270.216 102.322 270.432 101.818 270.432C101.314 270.432 100.778 270.168 100.506 269.888L100.122 270.496C100.522 270.888 101.122 271.096 101.778 271.096ZM104.648 266.664C104.936 266.664 105.168 266.432 105.168 266.144C105.168 265.856 104.936 265.624 104.648 265.624C104.368 265.624 104.128 265.856 104.128 266.144C104.128 266.432 104.368 266.664 104.648 266.664ZM105.072 271V267.136H104.232V271H105.072ZM107.729 272.568C108.681 272.568 109.713 272.192 109.713 270.8V267.136H108.873V267.672C108.561 267.264 108.121 267.04 107.633 267.04C106.641 267.04 105.921 267.776 105.921 269.024C105.921 270.296 106.649 271.008 107.633 271.008C108.137 271.008 108.577 270.752 108.873 270.368V270.832C108.873 271.624 108.281 271.88 107.729 271.88C107.217 271.88 106.817 271.744 106.505 271.384L106.113 271.992C106.585 272.424 107.073 272.568 107.729 272.568ZM107.881 270.264C107.217 270.264 106.793 269.768 106.793 269.024C106.793 268.28 107.217 267.784 107.881 267.784C108.273 267.784 108.689 268.016 108.873 268.304V269.744C108.689 270.032 108.273 270.264 107.881 270.264ZM114.25 271V268.28C114.25 267.488 113.834 267.04 113.002 267.04C112.394 267.04 111.898 267.36 111.642 267.664V267.136H110.802V271H111.642V268.304C111.834 268.04 112.202 267.784 112.634 267.784C113.106 267.784 113.41 267.984 113.41 268.584V271H114.25ZM118.541 271V268.44C118.541 267.4 117.789 267.04 116.933 267.04C116.317 267.04 115.757 267.24 115.309 267.664L115.653 268.248C115.989 267.92 116.365 267.76 116.797 267.76C117.333 267.76 117.701 268.032 117.701 268.48V269.056C117.421 268.728 116.973 268.56 116.453 268.56C115.821 268.56 115.109 268.928 115.109 269.816C115.109 270.672 115.821 271.096 116.453 271.096C116.965 271.096 117.413 270.912 117.701 270.584V271H118.541ZM116.781 270.52C116.309 270.52 115.957 270.248 115.957 269.832C115.957 269.408 116.309 269.136 116.781 269.136C117.149 269.136 117.509 269.272 117.701 269.536V270.12C117.509 270.384 117.149 270.52 116.781 270.52ZM120.79 271.096C121.182 271.096 121.43 270.992 121.582 270.848L121.382 270.216C121.318 270.288 121.166 270.352 121.006 270.352C120.766 270.352 120.638 270.16 120.638 269.896V267.872H121.422V267.136H120.638V266.08H119.798V267.136H119.158V267.872H119.798V270.104C119.798 270.744 120.142 271.096 120.79 271.096ZM125.633 271V267.136H124.793V269.848C124.593 270.112 124.225 270.352 123.801 270.352C123.329 270.352 123.025 270.168 123.025 269.568V267.136H122.185V269.872C122.185 270.664 122.593 271.096 123.425 271.096C124.033 271.096 124.513 270.8 124.793 270.488V271H125.633ZM127.564 271V268.368C127.732 268.096 128.204 267.856 128.556 267.856C128.66 267.856 128.748 267.864 128.82 267.88V267.048C128.316 267.048 127.852 267.336 127.564 267.704V267.136H126.724V271H127.564ZM131.281 271.096C131.897 271.096 132.465 270.904 132.849 270.536L132.465 269.984C132.193 270.256 131.745 270.408 131.369 270.408C130.641 270.408 130.201 269.928 130.137 269.344H133.121V269.144C133.121 267.928 132.377 267.04 131.217 267.04C130.073 267.04 129.257 267.944 129.257 269.064C129.257 270.288 130.121 271.096 131.281 271.096ZM132.305 268.752H130.129C130.169 268.28 130.497 267.728 131.217 267.728C131.977 267.728 132.289 268.296 132.305 268.752Z" fill="#121517"/>
<g filter="url(#filter1_d)">
<rect x="232" y="132" width="178" height="148" rx="4" fill="white"/>
<rect x="232.5" y="132.5" width="177" height="147" rx="3.5" stroke="#EAEDEF"/>
</g>
<g filter="url(#filter2_d)">
<rect x="318" y="204" width="178" height="148" rx="4" fill="white"/>
<rect x="318.5" y="204.5" width="177" height="147" rx="3.5" stroke="#EAEDEF"/>
</g>
<path d="M253.728 181.144C255.144 181.144 256.104 180.472 256.776 179.56L255.924 179.092C255.468 179.776 254.64 180.256 253.728 180.256C251.976 180.256 250.644 178.9 250.644 177.004C250.644 175.096 251.976 173.752 253.728 173.752C254.64 173.752 255.468 174.244 255.924 174.916L256.764 174.448C256.128 173.548 255.144 172.864 253.728 172.864C251.424 172.864 249.612 174.544 249.612 177.004C249.612 179.464 251.424 181.144 253.728 181.144ZM260.541 181.144C262.305 181.144 263.409 179.776 263.409 178.096C263.409 176.416 262.305 175.06 260.541 175.06C258.777 175.06 257.673 176.416 257.673 178.096C257.673 179.776 258.777 181.144 260.541 181.144ZM260.541 180.34C259.305 180.34 258.609 179.284 258.609 178.096C258.609 176.92 259.305 175.864 260.541 175.864C261.777 175.864 262.461 176.92 262.461 178.096C262.461 179.284 261.777 180.34 260.541 180.34ZM269.689 181V176.932C269.689 175.672 269.053 175.06 267.841 175.06C266.977 175.06 266.185 175.564 265.777 176.044V175.204H264.877V181H265.777V176.764C266.113 176.296 266.785 175.864 267.493 175.864C268.273 175.864 268.789 176.188 268.789 177.208V181H269.689ZM272.95 181.144C273.478 181.144 273.802 180.988 274.03 180.772L273.766 180.1C273.646 180.232 273.406 180.34 273.154 180.34C272.758 180.34 272.566 180.028 272.566 179.596V175.996H273.742V175.204H272.566V173.62H271.666V175.204H270.706V175.996H271.666V179.788C271.666 180.652 272.098 181.144 272.95 181.144ZM275.913 181V176.896C276.177 176.428 276.933 175.972 277.485 175.972C277.629 175.972 277.737 175.984 277.845 176.008V175.084C277.053 175.084 276.381 175.528 275.913 176.14V175.204H275.013V181H275.913ZM283.498 181V177.016C283.498 175.612 282.478 175.06 281.254 175.06C280.306 175.06 279.562 175.372 278.938 176.02L279.358 176.644C279.874 176.092 280.438 175.84 281.134 175.84C281.974 175.84 282.598 176.284 282.598 177.064V178.108C282.13 177.568 281.47 177.316 280.678 177.316C279.694 177.316 278.65 177.928 278.65 179.224C278.65 180.484 279.694 181.144 280.678 181.144C281.458 181.144 282.118 180.868 282.598 180.34V181H283.498ZM281.002 180.496C280.162 180.496 279.574 179.968 279.574 179.236C279.574 178.492 280.162 177.964 281.002 177.964C281.638 177.964 282.25 178.204 282.598 178.684V179.776C282.25 180.256 281.638 180.496 281.002 180.496ZM287.858 181.144C288.914 181.144 289.538 180.712 289.982 180.136L289.382 179.584C288.998 180.1 288.506 180.34 287.906 180.34C286.67 180.34 285.902 179.38 285.902 178.096C285.902 176.812 286.67 175.864 287.906 175.864C288.506 175.864 288.998 176.092 289.382 176.62L289.982 176.068C289.538 175.492 288.914 175.06 287.858 175.06C286.13 175.06 284.966 176.38 284.966 178.096C284.966 179.824 286.13 181.144 287.858 181.144ZM292.708 181.144C293.236 181.144 293.56 180.988 293.788 180.772L293.524 180.1C293.404 180.232 293.164 180.34 292.912 180.34C292.516 180.34 292.324 180.028 292.324 179.596V175.996H293.5V175.204H292.324V173.62H291.424V175.204H290.464V175.996H291.424V179.788C291.424 180.652 291.856 181.144 292.708 181.144Z" fill="#545D63"/>
<path d="M339.728 253.144C341.144 253.144 342.104 252.472 342.776 251.56L341.924 251.092C341.468 251.776 340.64 252.256 339.728 252.256C337.976 252.256 336.644 250.9 336.644 249.004C336.644 247.096 337.976 245.752 339.728 245.752C340.64 245.752 341.468 246.244 341.924 246.916L342.764 246.448C342.128 245.548 341.144 244.864 339.728 244.864C337.424 244.864 335.612 246.544 335.612 249.004C335.612 251.464 337.424 253.144 339.728 253.144ZM346.541 253.144C348.305 253.144 349.409 251.776 349.409 250.096C349.409 248.416 348.305 247.06 346.541 247.06C344.777 247.06 343.673 248.416 343.673 250.096C343.673 251.776 344.777 253.144 346.541 253.144ZM346.541 252.34C345.305 252.34 344.609 251.284 344.609 250.096C344.609 248.92 345.305 247.864 346.541 247.864C347.777 247.864 348.461 248.92 348.461 250.096C348.461 251.284 347.777 252.34 346.541 252.34ZM355.689 253V248.932C355.689 247.672 355.053 247.06 353.841 247.06C352.977 247.06 352.185 247.564 351.777 248.044V247.204H350.877V253H351.777V248.764C352.113 248.296 352.785 247.864 353.493 247.864C354.273 247.864 354.789 248.188 354.789 249.208V253H355.689ZM358.95 253.144C359.478 253.144 359.802 252.988 360.03 252.772L359.766 252.1C359.646 252.232 359.406 252.34 359.154 252.34C358.758 252.34 358.566 252.028 358.566 251.596V247.996H359.742V247.204H358.566V245.62H357.666V247.204H356.706V247.996H357.666V251.788C357.666 252.652 358.098 253.144 358.95 253.144ZM361.913 253V248.896C362.177 248.428 362.933 247.972 363.485 247.972C363.629 247.972 363.737 247.984 363.845 248.008V247.084C363.053 247.084 362.381 247.528 361.913 248.14V247.204H361.013V253H361.913ZM369.498 253V249.016C369.498 247.612 368.478 247.06 367.254 247.06C366.306 247.06 365.562 247.372 364.938 248.02L365.358 248.644C365.874 248.092 366.438 247.84 367.134 247.84C367.974 247.84 368.598 248.284 368.598 249.064V250.108C368.13 249.568 367.47 249.316 366.678 249.316C365.694 249.316 364.65 249.928 364.65 251.224C364.65 252.484 365.694 253.144 366.678 253.144C367.458 253.144 368.118 252.868 368.598 252.34V253H369.498ZM367.002 252.496C366.162 252.496 365.574 251.968 365.574 251.236C365.574 250.492 366.162 249.964 367.002 249.964C367.638 249.964 368.25 250.204 368.598 250.684V251.776C368.25 252.256 367.638 252.496 367.002 252.496ZM373.858 253.144C374.914 253.144 375.538 252.712 375.982 252.136L375.382 251.584C374.998 252.1 374.506 252.34 373.906 252.34C372.67 252.34 371.902 251.38 371.902 250.096C371.902 248.812 372.67 247.864 373.906 247.864C374.506 247.864 374.998 248.092 375.382 248.62L375.982 248.068C375.538 247.492 374.914 247.06 373.858 247.06C372.13 247.06 370.966 248.38 370.966 250.096C370.966 251.824 372.13 253.144 373.858 253.144ZM378.708 253.144C379.236 253.144 379.56 252.988 379.788 252.772L379.524 252.1C379.404 252.232 379.164 252.34 378.912 252.34C378.516 252.34 378.324 252.028 378.324 251.596V247.996H379.5V247.204H378.324V245.62H377.424V247.204H376.464V247.996H377.424V251.788C377.424 252.652 377.856 253.144 378.708 253.144Z" fill="#545D63"/>
<path d="M258.884 207L261.544 197.662H259.71L257.904 204.858L255.972 197.662H254.67L252.738 204.858L250.918 197.662H249.084L251.758 207H253.508L255.314 200.112L257.134 207H258.884ZM265.16 207.168C266.238 207.168 267.232 206.832 267.904 206.188L267.232 205.222C266.756 205.698 265.972 205.964 265.314 205.964C264.04 205.964 263.27 205.124 263.158 204.102H268.38V203.752C268.38 201.624 267.078 200.07 265.048 200.07C263.046 200.07 261.618 201.652 261.618 203.612C261.618 205.754 263.13 207.168 265.16 207.168ZM266.952 203.066H263.144C263.214 202.24 263.788 201.274 265.048 201.274C266.378 201.274 266.924 202.268 266.952 203.066ZM276.061 207V197.662H274.591V201.176C274.045 200.462 273.261 200.07 272.421 200.07C270.671 200.07 269.411 201.442 269.411 203.626C269.411 205.852 270.685 207.168 272.421 207.168C273.289 207.168 274.073 206.748 274.591 206.076V207H276.061ZM272.841 205.866C271.679 205.866 270.937 204.928 270.937 203.626C270.937 202.31 271.679 201.372 272.841 201.372C273.541 201.372 274.255 201.778 274.591 202.282V204.97C274.255 205.474 273.541 205.866 272.841 205.866ZM284.196 207V197.662H282.726V201.176C282.18 200.462 281.396 200.07 280.556 200.07C278.806 200.07 277.546 201.442 277.546 203.626C277.546 205.852 278.82 207.168 280.556 207.168C281.424 207.168 282.208 206.748 282.726 206.076V207H284.196ZM280.976 205.866C279.814 205.866 279.072 204.928 279.072 203.626C279.072 202.31 279.814 201.372 280.976 201.372C281.676 201.372 282.39 201.778 282.726 202.282V204.97C282.39 205.474 281.676 205.866 280.976 205.866ZM286.828 199.412C287.332 199.412 287.738 199.006 287.738 198.502C287.738 197.998 287.332 197.592 286.828 197.592C286.338 197.592 285.918 197.998 285.918 198.502C285.918 199.006 286.338 199.412 286.828 199.412ZM287.57 207V200.238H286.1V207H287.57ZM295.511 207V202.24C295.511 200.854 294.783 200.07 293.327 200.07C292.263 200.07 291.395 200.63 290.947 201.162V200.238H289.477V207H290.947V202.282C291.283 201.82 291.927 201.372 292.683 201.372C293.509 201.372 294.041 201.722 294.041 202.772V207H295.511ZM300.165 209.744C301.831 209.744 303.637 209.086 303.637 206.65V200.238H302.167V201.176C301.621 200.462 300.851 200.07 299.997 200.07C298.261 200.07 297.001 201.358 297.001 203.542C297.001 205.768 298.275 207.014 299.997 207.014C300.879 207.014 301.649 206.566 302.167 205.894V206.706C302.167 208.092 301.131 208.54 300.165 208.54C299.269 208.54 298.569 208.302 298.023 207.672L297.337 208.736C298.163 209.492 299.017 209.744 300.165 209.744ZM300.431 205.712C299.269 205.712 298.527 204.844 298.527 203.542C298.527 202.24 299.269 201.372 300.431 201.372C301.117 201.372 301.845 201.778 302.167 202.282V204.802C301.845 205.306 301.117 205.712 300.431 205.712ZM310.818 207V202.968H315.48V201.526H310.818V199.104H315.578V197.662H309.18V207H310.818ZM318.469 207V197.662H316.999V207H318.469ZM323.428 207.168C325.598 207.168 326.914 205.558 326.914 203.612C326.914 201.68 325.598 200.07 323.428 200.07C321.286 200.07 319.956 201.68 319.956 203.612C319.956 205.558 321.286 207.168 323.428 207.168ZM323.428 205.866C322.182 205.866 321.482 204.816 321.482 203.612C321.482 202.422 322.182 201.372 323.428 201.372C324.688 201.372 325.388 202.422 325.388 203.612C325.388 204.816 324.688 205.866 323.428 205.866ZM329.871 207V202.394C330.165 201.918 330.991 201.498 331.607 201.498C331.789 201.498 331.943 201.512 332.069 201.54V200.084C331.187 200.084 330.375 200.588 329.871 201.232V200.238H328.401V207H329.871ZM333.983 199.412C334.487 199.412 334.893 199.006 334.893 198.502C334.893 197.998 334.487 197.592 333.983 197.592C333.493 197.592 333.073 197.998 333.073 198.502C333.073 199.006 333.493 199.412 333.983 199.412ZM334.725 207V200.238H333.255V207H334.725ZM338.942 207.168C340.762 207.168 341.756 206.258 341.756 205.068C341.756 202.38 337.668 203.276 337.668 202.072C337.668 201.596 338.158 201.246 338.928 201.246C339.768 201.246 340.524 201.596 340.93 202.058L341.546 201.022C340.93 200.476 340.062 200.07 338.914 200.07C337.206 200.07 336.254 201.022 336.254 202.128C336.254 204.718 340.342 203.766 340.342 205.096C340.342 205.628 339.894 206.006 339.012 206.006C338.13 206.006 337.192 205.544 336.716 205.054L336.044 206.118C336.744 206.804 337.794 207.168 338.942 207.168ZM345.265 207.168C345.951 207.168 346.385 206.986 346.651 206.734L346.301 205.628C346.189 205.754 345.923 205.866 345.643 205.866C345.223 205.866 344.999 205.53 344.999 205.068V201.526H346.371V200.238H344.999V198.39H343.529V200.238H342.409V201.526H343.529V205.432C343.529 206.552 344.131 207.168 345.265 207.168ZM254.474 225.168C256.364 225.168 257.512 224.188 258.226 223.068L256.826 222.354C256.378 223.138 255.482 223.712 254.474 223.712C252.626 223.712 251.254 222.298 251.254 220.338C251.254 218.378 252.626 216.964 254.474 216.964C255.482 216.964 256.378 217.552 256.826 218.322L258.226 217.608C257.526 216.488 256.364 215.508 254.474 215.508C251.716 215.508 249.574 217.468 249.574 220.338C249.574 223.208 251.716 225.168 254.474 225.168ZM262.547 225.168C264.717 225.168 266.033 223.558 266.033 221.612C266.033 219.68 264.717 218.07 262.547 218.07C260.405 218.07 259.075 219.68 259.075 221.612C259.075 223.558 260.405 225.168 262.547 225.168ZM262.547 223.866C261.301 223.866 260.601 222.816 260.601 221.612C260.601 220.422 261.301 219.372 262.547 219.372C263.807 219.372 264.507 220.422 264.507 221.612C264.507 222.816 263.807 223.866 262.547 223.866ZM273.554 225V220.24C273.554 218.854 272.826 218.07 271.37 218.07C270.306 218.07 269.438 218.63 268.99 219.162V218.238H267.52V225H268.99V220.282C269.326 219.82 269.97 219.372 270.726 219.372C271.552 219.372 272.084 219.722 272.084 220.772V225H273.554ZM277.494 225.168C278.18 225.168 278.614 224.986 278.88 224.734L278.53 223.628C278.418 223.754 278.152 223.866 277.872 223.866C277.452 223.866 277.228 223.53 277.228 223.068V219.526H278.6V218.238H277.228V216.39H275.758V218.238H274.638V219.526H275.758V223.432C275.758 224.552 276.36 225.168 277.494 225.168ZM281.404 225V220.394C281.698 219.918 282.524 219.498 283.14 219.498C283.322 219.498 283.476 219.512 283.602 219.54V218.084C282.72 218.084 281.908 218.588 281.404 219.232V218.238H279.934V225H281.404ZM290.388 225V220.52C290.388 218.7 289.072 218.07 287.574 218.07C286.496 218.07 285.516 218.42 284.732 219.162L285.334 220.184C285.922 219.61 286.58 219.33 287.336 219.33C288.274 219.33 288.918 219.806 288.918 220.59V221.598C288.428 221.024 287.644 220.73 286.734 220.73C285.628 220.73 284.382 221.374 284.382 222.928C284.382 224.426 285.628 225.168 286.734 225.168C287.63 225.168 288.414 224.846 288.918 224.272V225H290.388ZM287.308 224.16C286.482 224.16 285.866 223.684 285.866 222.956C285.866 222.214 286.482 221.738 287.308 221.738C287.952 221.738 288.582 221.976 288.918 222.438V223.46C288.582 223.922 287.952 224.16 287.308 224.16ZM295.374 225.168C296.69 225.168 297.488 224.608 297.964 223.964L296.998 223.068C296.62 223.586 296.102 223.866 295.444 223.866C294.212 223.866 293.4 222.928 293.4 221.612C293.4 220.296 294.212 219.372 295.444 219.372C296.102 219.372 296.62 219.638 296.998 220.17L297.964 219.274C297.488 218.63 296.69 218.07 295.374 218.07C293.316 218.07 291.874 219.568 291.874 221.612C291.874 223.67 293.316 225.168 295.374 225.168ZM301.283 225.168C301.969 225.168 302.403 224.986 302.669 224.734L302.319 223.628C302.207 223.754 301.941 223.866 301.661 223.866C301.241 223.866 301.017 223.53 301.017 223.068V219.526H302.389V218.238H301.017V216.39H299.547V218.238H298.427V219.526H299.547V223.432C299.547 224.552 300.149 225.168 301.283 225.168Z" fill="#121517"/>
<path d="M344.884 279L347.544 269.662H345.71L343.904 276.858L341.972 269.662H340.67L338.738 276.858L336.918 269.662H335.084L337.758 279H339.508L341.314 272.112L343.134 279H344.884ZM351.16 279.168C352.238 279.168 353.232 278.832 353.904 278.188L353.232 277.222C352.756 277.698 351.972 277.964 351.314 277.964C350.04 277.964 349.27 277.124 349.158 276.102H354.38V275.752C354.38 273.624 353.078 272.07 351.048 272.07C349.046 272.07 347.618 273.652 347.618 275.612C347.618 277.754 349.13 279.168 351.16 279.168ZM352.952 275.066H349.144C349.214 274.24 349.788 273.274 351.048 273.274C352.378 273.274 352.924 274.268 352.952 275.066ZM362.061 279V269.662H360.591V273.176C360.045 272.462 359.261 272.07 358.421 272.07C356.671 272.07 355.411 273.442 355.411 275.626C355.411 277.852 356.685 279.168 358.421 279.168C359.289 279.168 360.073 278.748 360.591 278.076V279H362.061ZM358.841 277.866C357.679 277.866 356.937 276.928 356.937 275.626C356.937 274.31 357.679 273.372 358.841 273.372C359.541 273.372 360.255 273.778 360.591 274.282V276.97C360.255 277.474 359.541 277.866 358.841 277.866ZM370.196 279V269.662H368.726V273.176C368.18 272.462 367.396 272.07 366.556 272.07C364.806 272.07 363.546 273.442 363.546 275.626C363.546 277.852 364.82 279.168 366.556 279.168C367.424 279.168 368.208 278.748 368.726 278.076V279H370.196ZM366.976 277.866C365.814 277.866 365.072 276.928 365.072 275.626C365.072 274.31 365.814 273.372 366.976 273.372C367.676 273.372 368.39 273.778 368.726 274.282V276.97C368.39 277.474 367.676 277.866 366.976 277.866ZM372.828 271.412C373.332 271.412 373.738 271.006 373.738 270.502C373.738 269.998 373.332 269.592 372.828 269.592C372.338 269.592 371.918 269.998 371.918 270.502C371.918 271.006 372.338 271.412 372.828 271.412ZM373.57 279V272.238H372.1V279H373.57ZM381.511 279V274.24C381.511 272.854 380.783 272.07 379.327 272.07C378.263 272.07 377.395 272.63 376.947 273.162V272.238H375.477V279H376.947V274.282C377.283 273.82 377.927 273.372 378.683 273.372C379.509 273.372 380.041 273.722 380.041 274.772V279H381.511ZM386.165 281.744C387.831 281.744 389.637 281.086 389.637 278.65V272.238H388.167V273.176C387.621 272.462 386.851 272.07 385.997 272.07C384.261 272.07 383.001 273.358 383.001 275.542C383.001 277.768 384.275 279.014 385.997 279.014C386.879 279.014 387.649 278.566 388.167 277.894V278.706C388.167 280.092 387.131 280.54 386.165 280.54C385.269 280.54 384.569 280.302 384.023 279.672L383.337 280.736C384.163 281.492 385.017 281.744 386.165 281.744ZM386.431 277.712C385.269 277.712 384.527 276.844 384.527 275.542C384.527 274.24 385.269 273.372 386.431 273.372C387.117 273.372 387.845 273.778 388.167 274.282V276.802C387.845 277.306 387.117 277.712 386.431 277.712ZM396.818 279V274.968H401.48V273.526H396.818V271.104H401.578V269.662H395.18V279H396.818ZM404.469 279V269.662H402.999V279H404.469ZM409.428 279.168C411.598 279.168 412.914 277.558 412.914 275.612C412.914 273.68 411.598 272.07 409.428 272.07C407.286 272.07 405.956 273.68 405.956 275.612C405.956 277.558 407.286 279.168 409.428 279.168ZM409.428 277.866C408.182 277.866 407.482 276.816 407.482 275.612C407.482 274.422 408.182 273.372 409.428 273.372C410.688 273.372 411.388 274.422 411.388 275.612C411.388 276.816 410.688 277.866 409.428 277.866ZM415.871 279V274.394C416.165 273.918 416.991 273.498 417.607 273.498C417.789 273.498 417.943 273.512 418.069 273.54V272.084C417.187 272.084 416.375 272.588 415.871 273.232V272.238H414.401V279H415.871ZM419.983 271.412C420.487 271.412 420.893 271.006 420.893 270.502C420.893 269.998 420.487 269.592 419.983 269.592C419.493 269.592 419.073 269.998 419.073 270.502C419.073 271.006 419.493 271.412 419.983 271.412ZM420.725 279V272.238H419.255V279H420.725ZM424.942 279.168C426.762 279.168 427.756 278.258 427.756 277.068C427.756 274.38 423.668 275.276 423.668 274.072C423.668 273.596 424.158 273.246 424.928 273.246C425.768 273.246 426.524 273.596 426.93 274.058L427.546 273.022C426.93 272.476 426.062 272.07 424.914 272.07C423.206 272.07 422.254 273.022 422.254 274.128C422.254 276.718 426.342 275.766 426.342 277.096C426.342 277.628 425.894 278.006 425.012 278.006C424.13 278.006 423.192 277.544 422.716 277.054L422.044 278.118C422.744 278.804 423.794 279.168 424.942 279.168ZM431.265 279.168C431.951 279.168 432.385 278.986 432.651 278.734L432.301 277.628C432.189 277.754 431.923 277.866 431.643 277.866C431.223 277.866 430.999 277.53 430.999 277.068V273.526H432.371V272.238H430.999V270.39H429.529V272.238H428.409V273.526H429.529V277.432C429.529 278.552 430.131 279.168 431.265 279.168ZM340.474 297.168C342.364 297.168 343.512 296.188 344.226 295.068L342.826 294.354C342.378 295.138 341.482 295.712 340.474 295.712C338.626 295.712 337.254 294.298 337.254 292.338C337.254 290.378 338.626 288.964 340.474 288.964C341.482 288.964 342.378 289.552 342.826 290.322L344.226 289.608C343.526 288.488 342.364 287.508 340.474 287.508C337.716 287.508 335.574 289.468 335.574 292.338C335.574 295.208 337.716 297.168 340.474 297.168ZM348.547 297.168C350.717 297.168 352.033 295.558 352.033 293.612C352.033 291.68 350.717 290.07 348.547 290.07C346.405 290.07 345.075 291.68 345.075 293.612C345.075 295.558 346.405 297.168 348.547 297.168ZM348.547 295.866C347.301 295.866 346.601 294.816 346.601 293.612C346.601 292.422 347.301 291.372 348.547 291.372C349.807 291.372 350.507 292.422 350.507 293.612C350.507 294.816 349.807 295.866 348.547 295.866ZM359.554 297V292.24C359.554 290.854 358.826 290.07 357.37 290.07C356.306 290.07 355.438 290.63 354.99 291.162V290.238H353.52V297H354.99V292.282C355.326 291.82 355.97 291.372 356.726 291.372C357.552 291.372 358.084 291.722 358.084 292.772V297H359.554ZM363.494 297.168C364.18 297.168 364.614 296.986 364.88 296.734L364.53 295.628C364.418 295.754 364.152 295.866 363.872 295.866C363.452 295.866 363.228 295.53 363.228 295.068V291.526H364.6V290.238H363.228V288.39H361.758V290.238H360.638V291.526H361.758V295.432C361.758 296.552 362.36 297.168 363.494 297.168ZM367.404 297V292.394C367.698 291.918 368.524 291.498 369.14 291.498C369.322 291.498 369.476 291.512 369.602 291.54V290.084C368.72 290.084 367.908 290.588 367.404 291.232V290.238H365.934V297H367.404ZM376.388 297V292.52C376.388 290.7 375.072 290.07 373.574 290.07C372.496 290.07 371.516 290.42 370.732 291.162L371.334 292.184C371.922 291.61 372.58 291.33 373.336 291.33C374.274 291.33 374.918 291.806 374.918 292.59V293.598C374.428 293.024 373.644 292.73 372.734 292.73C371.628 292.73 370.382 293.374 370.382 294.928C370.382 296.426 371.628 297.168 372.734 297.168C373.63 297.168 374.414 296.846 374.918 296.272V297H376.388ZM373.308 296.16C372.482 296.16 371.866 295.684 371.866 294.956C371.866 294.214 372.482 293.738 373.308 293.738C373.952 293.738 374.582 293.976 374.918 294.438V295.46C374.582 295.922 373.952 296.16 373.308 296.16ZM381.374 297.168C382.69 297.168 383.488 296.608 383.964 295.964L382.998 295.068C382.62 295.586 382.102 295.866 381.444 295.866C380.212 295.866 379.4 294.928 379.4 293.612C379.4 292.296 380.212 291.372 381.444 291.372C382.102 291.372 382.62 291.638 382.998 292.17L383.964 291.274C383.488 290.63 382.69 290.07 381.374 290.07C379.316 290.07 377.874 291.568 377.874 293.612C377.874 295.67 379.316 297.168 381.374 297.168ZM387.283 297.168C387.969 297.168 388.403 296.986 388.669 296.734L388.319 295.628C388.207 295.754 387.941 295.866 387.661 295.866C387.241 295.866 387.017 295.53 387.017 295.068V291.526H388.389V290.238H387.017V288.39H385.547V290.238H384.427V291.526H385.547V295.432C385.547 296.552 386.149 297.168 387.283 297.168Z" fill="#121517"/>
<g filter="url(#filter3_d)">
<path d="M232 136C232 133.791 233.791 132 236 132H406C408.209 132 410 133.791 410 136V160H232V136Z" fill="#17A17E"/>
<path d="M232.5 136C232.5 134.067 234.067 132.5 236 132.5H406C407.933 132.5 409.5 134.067 409.5 136V159.5H232.5V136Z" stroke="#EAEDEF"/>
</g>
<g filter="url(#filter4_d)">
<path d="M318 208C318 205.791 319.791 204 322 204H492C494.209 204 496 205.791 496 208V232H318V208Z" fill="#17A17E"/>
<path d="M318.5 208C318.5 206.067 320.067 204.5 322 204.5H492C493.933 204.5 495.5 206.067 495.5 208V231.5H318.5V208Z" stroke="#EAEDEF"/>
</g>
<path d="M250.504 149V146.696H253.168V145.872H250.504V144.488H253.224V143.664H249.568V149H250.504ZM254.996 149V143.664H254.06V149H254.996ZM260.259 149L258.955 146.904C259.595 146.8 260.219 146.288 260.219 145.336C260.219 144.352 259.531 143.664 258.475 143.664H256.131V149H257.067V147.008H257.995L259.179 149H260.259ZM258.347 146.184H257.067V144.488H258.347C258.875 144.488 259.259 144.824 259.259 145.336C259.259 145.848 258.875 146.184 258.347 146.184ZM262.978 149.096C264.418 149.096 265.042 148.336 265.042 147.448C265.042 145.456 261.938 146.072 261.938 145.08C261.938 144.68 262.29 144.416 262.842 144.416C263.402 144.416 263.97 144.608 264.386 145.024L264.922 144.328C264.426 143.848 263.754 143.584 262.922 143.584C261.754 143.584 260.978 144.264 260.978 145.144C260.978 147.112 264.09 146.416 264.09 147.536C264.09 147.888 263.786 148.264 263.018 148.264C262.274 148.264 261.698 147.92 261.33 147.528L260.81 148.248C261.282 148.752 261.994 149.096 262.978 149.096ZM268.034 149V144.488H269.65V143.664H265.482V144.488H267.098V149H268.034ZM273.434 149V147.008H274.842C275.954 147.008 276.586 146.24 276.586 145.336C276.586 144.432 275.962 143.664 274.842 143.664H272.498V149H273.434ZM274.714 146.184H273.434V144.488H274.714C275.242 144.488 275.626 144.824 275.626 145.336C275.626 145.848 275.242 146.184 274.714 146.184ZM281.493 149L280.189 146.904C280.829 146.8 281.453 146.288 281.453 145.336C281.453 144.352 280.765 143.664 279.709 143.664H277.365V149H278.301V147.008H279.229L280.413 149H281.493ZM279.581 146.184H278.301V144.488H279.581C280.109 144.488 280.493 144.824 280.493 145.336C280.493 145.848 280.109 146.184 279.581 146.184ZM284.876 149.096C286.476 149.096 287.604 147.928 287.604 146.336C287.604 144.744 286.476 143.576 284.876 143.576C283.276 143.576 282.148 144.744 282.148 146.336C282.148 147.928 283.276 149.096 284.876 149.096ZM284.876 148.264C283.796 148.264 283.108 147.432 283.108 146.336C283.108 145.232 283.796 144.408 284.876 144.408C285.948 144.408 286.644 145.232 286.644 146.336C286.644 147.432 285.948 148.264 284.876 148.264ZM289.261 149.096C290.293 149.096 291.061 148.528 291.061 147.312V143.664H290.125V147.296C290.125 147.88 289.765 148.264 289.189 148.264C288.781 148.264 288.493 148.056 288.277 147.824L287.845 148.536C288.221 148.936 288.709 149.096 289.261 149.096ZM295.857 149V148.176H293.137V146.696H295.801V145.872H293.137V144.488H295.857V143.664H292.201V149H295.857ZM299.378 149.096C300.458 149.096 301.114 148.536 301.522 147.896L300.722 147.488C300.466 147.936 299.954 148.264 299.378 148.264C298.322 148.264 297.538 147.456 297.538 146.336C297.538 145.216 298.322 144.408 299.378 144.408C299.954 144.408 300.466 144.744 300.722 145.184L301.522 144.776C301.122 144.136 300.458 143.576 299.378 143.576C297.802 143.576 296.578 144.696 296.578 146.336C296.578 147.976 297.802 149.096 299.378 149.096ZM304.479 149V144.488H306.095V143.664H301.927V144.488H303.543V149H304.479Z" fill="white"/>
<path d="M337.392 221.096C338.832 221.096 339.456 220.336 339.456 219.448C339.456 217.456 336.352 218.072 336.352 217.08C336.352 216.68 336.704 216.416 337.256 216.416C337.816 216.416 338.384 216.608 338.8 217.024L339.336 216.328C338.84 215.848 338.168 215.584 337.336 215.584C336.168 215.584 335.392 216.264 335.392 217.144C335.392 219.112 338.504 218.416 338.504 219.536C338.504 219.888 338.2 220.264 337.432 220.264C336.688 220.264 336.112 219.92 335.744 219.528L335.224 220.248C335.696 220.752 336.408 221.096 337.392 221.096ZM343.974 221V220.176H341.254V218.696H343.918V217.872H341.254V216.488H343.974V215.664H340.318V221H343.974ZM347.495 221.096C348.575 221.096 349.231 220.536 349.639 219.896L348.839 219.488C348.583 219.936 348.071 220.264 347.495 220.264C346.439 220.264 345.655 219.456 345.655 218.336C345.655 217.216 346.439 216.408 347.495 216.408C348.071 216.408 348.583 216.744 348.839 217.184L349.639 216.776C349.239 216.136 348.575 215.576 347.495 215.576C345.919 215.576 344.695 216.696 344.695 218.336C344.695 219.976 345.919 221.096 347.495 221.096ZM352.876 221.096C354.476 221.096 355.604 219.928 355.604 218.336C355.604 216.744 354.476 215.576 352.876 215.576C351.276 215.576 350.148 216.744 350.148 218.336C350.148 219.928 351.276 221.096 352.876 221.096ZM352.876 220.264C351.796 220.264 351.108 219.432 351.108 218.336C351.108 217.232 351.796 216.408 352.876 216.408C353.948 216.408 354.644 217.232 354.644 218.336C354.644 219.432 353.948 220.264 352.876 220.264ZM361.13 221V215.664H360.194V219.368L357.466 215.664H356.506V221H357.442V217.192L360.226 221H361.13ZM364.247 221C365.911 221 367.039 219.904 367.039 218.336C367.039 216.768 365.911 215.664 364.247 215.664H362.263V221H364.247ZM364.247 220.176H363.199V216.488H364.247C365.439 216.488 366.079 217.304 366.079 218.336C366.079 219.344 365.407 220.176 364.247 220.176ZM370.934 221V219.008H372.342C373.454 219.008 374.086 218.24 374.086 217.336C374.086 216.432 373.462 215.664 372.342 215.664H369.998V221H370.934ZM372.214 218.184H370.934V216.488H372.214C372.742 216.488 373.126 216.824 373.126 217.336C373.126 217.848 372.742 218.184 372.214 218.184ZM378.993 221L377.689 218.904C378.329 218.8 378.953 218.288 378.953 217.336C378.953 216.352 378.265 215.664 377.209 215.664H374.865V221H375.801V219.008H376.729L377.913 221H378.993ZM377.081 218.184H375.801V216.488H377.081C377.609 216.488 377.993 216.824 377.993 217.336C377.993 217.848 377.609 218.184 377.081 218.184ZM382.376 221.096C383.976 221.096 385.104 219.928 385.104 218.336C385.104 216.744 383.976 215.576 382.376 215.576C380.776 215.576 379.648 216.744 379.648 218.336C379.648 219.928 380.776 221.096 382.376 221.096ZM382.376 220.264C381.296 220.264 380.608 219.432 380.608 218.336C380.608 217.232 381.296 216.408 382.376 216.408C383.448 216.408 384.144 217.232 384.144 218.336C384.144 219.432 383.448 220.264 382.376 220.264ZM386.761 221.096C387.793 221.096 388.561 220.528 388.561 219.312V215.664H387.625V219.296C387.625 219.88 387.265 220.264 386.689 220.264C386.281 220.264 385.993 220.056 385.777 219.824L385.345 220.536C385.721 220.936 386.209 221.096 386.761 221.096ZM393.357 221V220.176H390.637V218.696H393.301V217.872H390.637V216.488H393.357V215.664H389.701V221H393.357ZM396.878 221.096C397.958 221.096 398.614 220.536 399.022 219.896L398.222 219.488C397.966 219.936 397.454 220.264 396.878 220.264C395.822 220.264 395.038 219.456 395.038 218.336C395.038 217.216 395.822 216.408 396.878 216.408C397.454 216.408 397.966 216.744 398.222 217.184L399.022 216.776C398.622 216.136 397.958 215.576 396.878 215.576C395.302 215.576 394.078 216.696 394.078 218.336C394.078 219.976 395.302 221.096 396.878 221.096ZM401.979 221V216.488H403.595V215.664H399.427V216.488H401.043V221H401.979Z" fill="white"/>
<rect x="249" y="242" width="54" height="20" rx="4" fill="#E8F6DF"/>
<rect x="335" y="314" width="94" height="20" rx="4" fill="#F8DDDE"/>
<path d="M269.304 255.12C271.104 255.12 271.884 254.17 271.884 253.06C271.884 250.57 268.004 251.34 268.004 250.1C268.004 249.6 268.444 249.27 269.134 249.27C269.834 249.27 270.544 249.51 271.064 250.03L271.734 249.16C271.114 248.56 270.274 248.23 269.234 248.23C267.774 248.23 266.804 249.08 266.804 250.18C266.804 252.64 270.694 251.77 270.694 253.17C270.694 253.61 270.314 254.08 269.354 254.08C268.424 254.08 267.704 253.65 267.244 253.16L266.594 254.06C267.184 254.69 268.074 255.12 269.304 255.12ZM275.162 255.12C275.932 255.12 276.642 254.88 277.122 254.42L276.642 253.73C276.302 254.07 275.742 254.26 275.272 254.26C274.362 254.26 273.812 253.66 273.732 252.93H277.462V252.68C277.462 251.16 276.532 250.05 275.082 250.05C273.652 250.05 272.632 251.18 272.632 252.58C272.632 254.11 273.712 255.12 275.162 255.12ZM276.442 252.19H273.722C273.772 251.6 274.182 250.91 275.082 250.91C276.032 250.91 276.422 251.62 276.442 252.19ZM282.808 255V251.6C282.808 250.61 282.288 250.05 281.248 250.05C280.488 250.05 279.868 250.45 279.548 250.83V250.17H278.498V255H279.548V251.63C279.788 251.3 280.248 250.98 280.788 250.98C281.378 250.98 281.758 251.23 281.758 251.98V255H282.808ZM285.622 255.12C286.112 255.12 286.422 254.99 286.612 254.81L286.362 254.02C286.282 254.11 286.092 254.19 285.892 254.19C285.592 254.19 285.432 253.95 285.432 253.62V251.09H286.412V250.17H285.432V248.85H284.382V250.17H283.582V251.09H284.382V253.88C284.382 254.68 284.812 255.12 285.622 255.12Z" fill="#121517"/>
<path d="M354.95 327V320.33H353.78V324.96L350.37 320.33H349.17V327H350.34V322.24L353.82 327H354.95ZM358.567 327.12C359.337 327.12 360.047 326.88 360.527 326.42L360.047 325.73C359.707 326.07 359.147 326.26 358.677 326.26C357.767 326.26 357.217 325.66 357.137 324.93H360.867V324.68C360.867 323.16 359.937 322.05 358.487 322.05C357.057 322.05 356.037 323.18 356.037 324.58C356.037 326.11 357.117 327.12 358.567 327.12ZM359.847 324.19H357.127C357.177 323.6 357.587 322.91 358.487 322.91C359.437 322.91 359.827 323.62 359.847 324.19ZM364.134 327.12C364.904 327.12 365.614 326.88 366.094 326.42L365.614 325.73C365.274 326.07 364.714 326.26 364.244 326.26C363.334 326.26 362.784 325.66 362.704 324.93H366.434V324.68C366.434 323.16 365.504 322.05 364.054 322.05C362.624 322.05 361.604 323.18 361.604 324.58C361.604 326.11 362.684 327.12 364.134 327.12ZM365.414 324.19H362.694C362.744 323.6 363.154 322.91 364.054 322.91C365.004 322.91 365.394 323.62 365.414 324.19ZM371.92 327V320.33H370.87V322.84C370.48 322.33 369.92 322.05 369.32 322.05C368.07 322.05 367.17 323.03 367.17 324.59C367.17 326.18 368.08 327.12 369.32 327.12C369.94 327.12 370.5 326.82 370.87 326.34V327H371.92ZM369.62 326.19C368.79 326.19 368.26 325.52 368.26 324.59C368.26 323.65 368.79 322.98 369.62 322.98C370.12 322.98 370.63 323.27 370.87 323.63V325.55C370.63 325.91 370.12 326.19 369.62 326.19ZM374.931 327.12C376.231 327.12 376.941 326.47 376.941 325.62C376.941 323.7 374.021 324.34 374.021 323.48C374.021 323.14 374.371 322.89 374.921 322.89C375.521 322.89 376.061 323.14 376.351 323.47L376.791 322.73C376.351 322.34 375.731 322.05 374.911 322.05C373.691 322.05 373.011 322.73 373.011 323.52C373.011 325.37 375.931 324.69 375.931 325.64C375.931 326.02 375.611 326.29 374.981 326.29C374.351 326.29 373.681 325.96 373.341 325.61L372.861 326.37C373.361 326.86 374.111 327.12 374.931 327.12ZM382.216 327.12C383.516 327.12 384.226 326.47 384.226 325.62C384.226 323.7 381.306 324.34 381.306 323.48C381.306 323.14 381.656 322.89 382.206 322.89C382.806 322.89 383.346 323.14 383.636 323.47L384.076 322.73C383.636 322.34 383.016 322.05 382.196 322.05C380.976 322.05 380.296 322.73 380.296 323.52C380.296 325.37 383.216 324.69 383.216 325.64C383.216 326.02 382.896 326.29 382.266 326.29C381.636 326.29 380.966 325.96 380.626 325.61L380.146 326.37C380.646 326.86 381.396 327.12 382.216 327.12ZM387.513 327.12C388.283 327.12 388.993 326.88 389.473 326.42L388.993 325.73C388.653 326.07 388.093 326.26 387.623 326.26C386.713 326.26 386.163 325.66 386.083 324.93H389.813V324.68C389.813 323.16 388.883 322.05 387.433 322.05C386.003 322.05 384.983 323.18 384.983 324.58C384.983 326.11 386.063 327.12 387.513 327.12ZM388.793 324.19H386.073C386.123 323.6 386.533 322.91 387.433 322.91C388.383 322.91 388.773 323.62 388.793 324.19ZM395.159 327V323.6C395.159 322.61 394.639 322.05 393.599 322.05C392.839 322.05 392.219 322.45 391.899 322.83V322.17H390.849V327H391.899V323.63C392.139 323.3 392.599 322.98 393.139 322.98C393.729 322.98 394.109 323.23 394.109 323.98V327H395.159ZM400.973 327V320.33H399.923V322.84C399.533 322.33 398.973 322.05 398.373 322.05C397.123 322.05 396.223 323.03 396.223 324.59C396.223 326.18 397.133 327.12 398.373 327.12C398.993 327.12 399.553 326.82 399.923 326.34V327H400.973ZM398.673 326.19C397.843 326.19 397.313 325.52 397.313 324.59C397.313 323.65 397.843 322.98 398.673 322.98C399.173 322.98 399.683 323.27 399.923 323.63V325.55C399.683 325.91 399.173 326.19 398.673 326.19ZM402.853 321.58C403.213 321.58 403.503 321.29 403.503 320.93C403.503 320.57 403.213 320.28 402.853 320.28C402.503 320.28 402.203 320.57 402.203 320.93C402.203 321.29 402.503 321.58 402.853 321.58ZM403.383 327V322.17H402.333V327H403.383ZM409.055 327V323.6C409.055 322.61 408.535 322.05 407.495 322.05C406.735 322.05 406.115 322.45 405.795 322.83V322.17H404.745V327H405.795V323.63C406.035 323.3 406.495 322.98 407.035 322.98C407.625 322.98 408.005 323.23 408.005 323.98V327H409.055ZM412.379 328.96C413.569 328.96 414.859 328.49 414.859 326.75V322.17H413.809V322.84C413.419 322.33 412.869 322.05 412.259 322.05C411.019 322.05 410.119 322.97 410.119 324.53C410.119 326.12 411.029 327.01 412.259 327.01C412.889 327.01 413.439 326.69 413.809 326.21V326.79C413.809 327.78 413.069 328.1 412.379 328.1C411.739 328.1 411.239 327.93 410.849 327.48L410.359 328.24C410.949 328.78 411.559 328.96 412.379 328.96ZM412.569 326.08C411.739 326.08 411.209 325.46 411.209 324.53C411.209 323.6 411.739 322.98 412.569 322.98C413.059 322.98 413.579 323.27 413.809 323.63V325.43C413.579 325.79 413.059 326.08 412.569 326.08Z" fill="#121517"/>
<defs>
<filter id="filter0_d" x="0" y="0" width="392" height="436" filterUnits="userSpaceOnUse" color-interpolation-filters="sRGB">
<feFlood flood-opacity="0" result="BackgroundImageFix"/>
<feColorMatrix in="SourceAlpha" type="matrix" values="0 0 0 0 0 0 0 0 0 0 0 0 0 0 0 0 0 0 127 0"/>
<feOffset dy="4"/>
<feGaussianBlur stdDeviation="20"/>
<feColorMatrix type="matrix" values="0 0 0 0 0.329412 0 0 0 0 0.364706 0 0 0 0 0.388235 0 0 0 0.2 0"/>
<feBlend mode="normal" in2="BackgroundImageFix" result="effect1_dropShadow"/>
<feBlend mode="normal" in="SourceGraphic" in2="effect1_dropShadow" result="shape"/>
</filter>
<filter id="filter1_d" x="192" y="96" width="258" height="228" filterUnits="userSpaceOnUse" color-interpolation-filters="sRGB">
<feFlood flood-opacity="0" result="BackgroundImageFix"/>
<feColorMatrix in="SourceAlpha" type="matrix" values="0 0 0 0 0 0 0 0 0 0 0 0 0 0 0 0 0 0 127 0"/>
<feOffset dy="4"/>
<feGaussianBlur stdDeviation="20"/>
<feColorMatrix type="matrix" values="0 0 0 0 0.329412 0 0 0 0 0.364706 0 0 0 0 0.388235 0 0 0 0.1 0"/>
<feBlend mode="normal" in2="BackgroundImageFix" result="effect1_dropShadow"/>
<feBlend mode="normal" in="SourceGraphic" in2="effect1_dropShadow" result="shape"/>
</filter>
<filter id="filter2_d" x="278" y="168" width="258" height="228" filterUnits="userSpaceOnUse" color-interpolation-filters="sRGB">
<feFlood flood-opacity="0" result="BackgroundImageFix"/>
<feColorMatrix in="SourceAlpha" type="matrix" values="0 0 0 0 0 0 0 0 0 0 0 0 0 0 0 0 0 0 127 0"/>
<feOffset dy="4"/>
<feGaussianBlur stdDeviation="20"/>
<feColorMatrix type="matrix" values="0 0 0 0 0.329412 0 0 0 0 0.364706 0 0 0 0 0.388235 0 0 0 0.1 0"/>
<feBlend mode="normal" in2="BackgroundImageFix" result="effect1_dropShadow"/>
<feBlend mode="normal" in="SourceGraphic" in2="effect1_dropShadow" result="shape"/>
</filter>
<filter id="filter3_d" x="192" y="96" width="258" height="108" filterUnits="userSpaceOnUse" color-interpolation-filters="sRGB">
<feFlood flood-opacity="0" result="BackgroundImageFix"/>
<feColorMatrix in="SourceAlpha" type="matrix" values="0 0 0 0 0 0 0 0 0 0 0 0 0 0 0 0 0 0 127 0"/>
<feOffset dy="4"/>
<feGaussianBlur stdDeviation="20"/>
<feColorMatrix type="matrix" values="0 0 0 0 0.329412 0 0 0 0 0.364706 0 0 0 0 0.388235 0 0 0 0.1 0"/>
<feBlend mode="normal" in2="BackgroundImageFix" result="effect1_dropShadow"/>
<feBlend mode="normal" in="SourceGraphic" in2="effect1_dropShadow" result="shape"/>
</filter>
<filter id="filter4_d" x="278" y="168" width="258" height="108" filterUnits="userSpaceOnUse" color-interpolation-filters="sRGB">
<feFlood flood-opacity="0" result="BackgroundImageFix"/>
<feColorMatrix in="SourceAlpha" type="matrix" values="0 0 0 0 0 0 0 0 0 0 0 0 0 0 0 0 0 0 127 0"/>
<feOffset dy="4"/>
<feGaussianBlur stdDeviation="20"/>
<feColorMatrix type="matrix" values="0 0 0 0 0.329412 0 0 0 0 0.364706 0 0 0 0 0.388235 0 0 0 0.1 0"/>
<feBlend mode="normal" in2="BackgroundImageFix" result="effect1_dropShadow"/>
<feBlend mode="normal" in="SourceGraphic" in2="effect1_dropShadow" result="shape"/>
</filter>
</defs>
</svg>
