<svg width="45" height="46" viewBox="0 0 45 46" fill="none" xmlns="http://www.w3.org/2000/svg">
<path d="M27.7093 3.89856L8.4375 27.7169H19.6875L16.9181 42.9422C16.9128 42.9721 16.9141 43.0027 16.922 43.032C16.9299 43.0613 16.9441 43.0886 16.9636 43.1118C16.9831 43.135 17.0075 43.1536 17.035 43.1664C17.0625 43.1792 17.0925 43.1857 17.1229 43.1857V43.1857C17.1551 43.1856 17.1869 43.1781 17.2158 43.1636C17.2446 43.1491 17.2697 43.1281 17.289 43.1022L36.5625 19.2794H25.3125L28.0951 4.05237C28.0989 4.02203 28.0961 3.99125 28.087 3.96206C28.0779 3.93287 28.0628 3.90595 28.0425 3.88309C28.0222 3.86022 27.9973 3.84194 27.9694 3.82945C27.9415 3.81697 27.9112 3.81056 27.8807 3.81067V3.81067C27.8472 3.8108 27.8142 3.81883 27.7845 3.8341C27.7547 3.84938 27.7289 3.87146 27.7093 3.89856V3.89856Z" stroke="#121517" stroke-width="2.8125" stroke-linecap="round" stroke-linejoin="round"/>
</svg>
