<svg width="607" height="438" viewBox="0 0 607 438" fill="none" xmlns="http://www.w3.org/2000/svg">
<g filter="url(#filter0_d)">
<rect x="45" y="40" width="500" height="342" rx="4" fill="white"/>
<rect x="45.5" y="40.5" width="499" height="341" rx="3.5" stroke="#EAEDEF"/>
</g>
<path d="M68.5 112.5H522.5V362C522.5 362.828 521.828 363.5 521 363.5H70C69.1716 363.5 68.5 362.828 68.5 362V112.5Z" fill="white" stroke="#EAEDEF"/>
<path d="M68.5 97C68.5 96.1716 69.1716 95.5 70 95.5H521C521.828 95.5 522.5 96.1716 522.5 97V112.5H68.5V97Z" fill="white" stroke="#EAEDEF"/>
<path d="M207.233 123V117.664H206.649L205.313 119.04L205.713 119.448L206.569 118.544V123H207.233Z" fill="#545D63"/>
<path d="M206.504 186.096C207.552 186.096 208.416 185.552 208.416 184.648C208.416 183.936 207.808 183.448 207.144 183.248C207.76 183.072 208.336 182.672 208.336 181.968C208.336 181.008 207.384 180.584 206.504 180.584C205.616 180.584 204.68 181.008 204.68 181.968C204.68 182.672 205.248 183.072 205.864 183.248C205.2 183.448 204.592 183.936 204.592 184.648C204.592 185.56 205.448 186.096 206.504 186.096ZM206.504 182.976C206.184 182.92 205.344 182.704 205.344 182.056C205.344 181.504 205.856 181.176 206.504 181.176C207.144 181.176 207.664 181.504 207.664 182.056C207.664 182.704 206.832 182.92 206.504 182.976ZM206.504 185.504C205.84 185.504 205.256 185.152 205.256 184.576C205.256 183.88 206.176 183.584 206.504 183.544C206.832 183.584 207.744 183.88 207.744 184.576C207.744 185.152 207.16 185.504 206.504 185.504Z" fill="#545D63"/>
<path d="M204.873 249V243.664H204.289L202.953 245.04L203.353 245.448L204.209 244.544V249H204.873ZM207.904 249.096C208.976 249.096 209.8 248.424 209.8 247.336C209.8 246.24 208.992 245.632 208.104 245.632C207.568 245.632 207.112 245.856 206.856 246.112V244.256H209.456V243.664H206.192V246.544L206.68 246.712C207.04 246.36 207.44 246.208 207.912 246.208C208.632 246.208 209.136 246.656 209.136 247.36C209.136 248.008 208.632 248.504 207.904 248.504C207.248 248.504 206.784 248.248 206.432 247.8L206.024 248.24C206.424 248.768 207 249.096 207.904 249.096Z" fill="#545D63"/>
<path d="M205.893 312V311.408H203.277C204.765 310.232 205.869 309.24 205.869 308.152C205.869 307.088 204.965 306.584 204.077 306.584C203.325 306.584 202.629 306.888 202.221 307.424L202.629 307.848C202.941 307.448 203.437 307.176 204.077 307.176C204.629 307.176 205.189 307.472 205.189 308.152C205.189 309.072 204.149 309.96 202.229 311.472V312H205.893ZM210.596 312V311.408H207.98C209.468 310.232 210.572 309.24 210.572 308.152C210.572 307.088 209.668 306.584 208.78 306.584C208.028 306.584 207.332 306.888 206.924 307.424L207.332 307.848C207.644 307.448 208.14 307.176 208.78 307.176C209.332 307.176 209.892 307.472 209.892 308.152C209.892 309.072 208.852 309.96 206.932 311.472V312H210.596Z" fill="#545D63"/>
<path d="M141.145 186L143.329 181.12V180.664H139.689V181.256H142.561L140.409 186H141.145Z" fill="#545D63"/>
<path d="M140.002 249V243.664H139.418L138.082 245.04L138.482 245.448L139.338 244.544V249H140.002ZM144.081 249V247.648H144.833V247.064H144.081V243.664H143.169L140.881 247.096V247.648H143.417V249H144.081ZM143.417 247.064H141.545L143.417 244.28V247.064Z" fill="#545D63"/>
<path d="M141.889 312V311.408H139.273C140.761 310.232 141.865 309.24 141.865 308.152C141.865 307.088 140.961 306.584 140.073 306.584C139.321 306.584 138.625 306.888 138.217 307.424L138.625 307.848C138.937 307.448 139.433 307.176 140.073 307.176C140.625 307.176 141.185 307.472 141.185 308.152C141.185 309.072 140.145 309.96 138.225 311.472V312H141.889ZM144.584 312V306.664H144L142.664 308.04L143.064 308.448L143.92 307.544V312H144.584Z" fill="#545D63"/>
<path d="M76.6007 186.096C77.7687 186.096 78.4727 185.28 78.4727 184.352C78.4727 183.216 77.6887 182.648 76.7287 182.648C76.0407 182.648 75.4487 183.112 75.2167 183.48C75.2087 183.408 75.2087 183.344 75.2087 183.272C75.2087 182.224 75.6807 181.176 76.7127 181.176C77.2727 181.176 77.5847 181.4 77.8567 181.72L78.1927 181.224C77.8647 180.848 77.4007 180.584 76.7127 180.584C75.2167 180.584 74.5447 181.896 74.5447 183.344C74.5447 184.792 75.1127 186.096 76.6007 186.096ZM76.5767 185.504C75.6487 185.504 75.2967 184.688 75.2327 184.024C75.5287 183.552 76.0407 183.224 76.5687 183.224C77.2567 183.224 77.8007 183.592 77.8007 184.376C77.8007 184.888 77.4007 185.504 76.5767 185.504Z" fill="#545D63"/>
<path d="M75.006 249V243.664H74.422L73.086 245.04L73.486 245.448L74.342 244.544V249H75.006ZM77.7569 249.096C78.9329 249.096 79.6449 248.448 79.6449 247.56C79.6449 246.704 78.9009 246.288 78.4129 246.248C78.9169 246.16 79.5649 245.776 79.5649 245.008C79.5649 244.104 78.7809 243.584 77.7569 243.584C76.9329 243.584 76.3169 243.944 75.9329 244.408L76.3009 244.824C76.6929 244.4 77.1249 244.176 77.7089 244.176C78.3569 244.176 78.9009 244.496 78.9009 245.088C78.9009 245.704 78.3329 245.968 77.6609 245.968C77.4449 245.968 77.1969 245.968 77.1089 245.96V246.568C77.1889 246.56 77.4369 246.56 77.6609 246.56C78.4449 246.56 78.9889 246.84 78.9889 247.504C78.9889 248.12 78.5169 248.504 77.7409 248.504C77.1089 248.504 76.5649 248.216 76.2529 247.8L75.8609 248.216C76.1889 248.696 76.8529 249.096 77.7569 249.096Z" fill="#545D63"/>
<path d="M75.7952 312V311.408H73.1792C74.6672 310.232 75.7712 309.24 75.7712 308.152C75.7712 307.088 74.8672 306.584 73.9792 306.584C73.2272 306.584 72.5312 306.888 72.1232 307.424L72.5312 307.848C72.8432 307.448 73.3392 307.176 73.9792 307.176C74.5312 307.176 75.0912 307.472 75.0912 308.152C75.0912 309.072 74.0512 309.96 72.1312 311.472V312H75.7952ZM78.8503 312.096C80.3063 312.096 80.8903 310.632 80.8903 309.336C80.8903 308.032 80.3063 306.584 78.8503 306.584C77.3863 306.584 76.8103 308.032 76.8103 309.336C76.8103 310.632 77.3863 312.096 78.8503 312.096ZM78.8503 311.504C77.8343 311.504 77.4903 310.4 77.4903 309.336C77.4903 308.272 77.8343 307.176 78.8503 307.176C79.8663 307.176 80.2103 308.272 80.2103 309.336C80.2103 310.4 79.8663 311.504 78.8503 311.504Z" fill="#545D63"/>
<path d="M273.244 123V122.408H270.628C272.116 121.232 273.22 120.24 273.22 119.152C273.22 118.088 272.316 117.584 271.428 117.584C270.676 117.584 269.98 117.888 269.572 118.424L269.98 118.848C270.292 118.448 270.788 118.176 271.428 118.176C271.98 118.176 272.54 118.472 272.54 119.152C272.54 120.072 271.5 120.96 269.58 122.472V123H273.244Z" fill="#545D63"/>
<rect x="264" y="176" width="64" height="62" fill="#ECFCF7"/>
<path d="M271.289 186.088C272.785 186.088 273.457 184.776 273.457 183.336C273.457 181.88 272.889 180.576 271.393 180.576C270.233 180.576 269.529 181.4 269.529 182.32C269.529 183.456 270.321 184.024 271.281 184.024C271.961 184.024 272.553 183.56 272.785 183.192C272.793 183.264 272.793 183.336 272.793 183.408C272.793 184.416 272.369 185.496 271.289 185.496C270.737 185.496 270.417 185.272 270.145 184.952L269.809 185.448C270.145 185.832 270.609 186.088 271.289 186.088ZM271.433 183.448C270.745 183.448 270.201 183.08 270.201 182.296C270.201 181.792 270.609 181.168 271.425 181.168C272.353 181.168 272.705 181.992 272.761 182.656C272.481 183.128 271.961 183.448 271.433 183.448Z" fill="#545D63"/>
<path d="M269.869 249V243.664H269.285L267.949 245.04L268.349 245.448L269.205 244.544V249H269.869ZM272.956 249.096C274.124 249.096 274.828 248.28 274.828 247.352C274.828 246.216 274.044 245.648 273.084 245.648C272.396 245.648 271.804 246.112 271.572 246.48C271.564 246.408 271.564 246.344 271.564 246.272C271.564 245.224 272.036 244.176 273.068 244.176C273.628 244.176 273.94 244.4 274.212 244.72L274.548 244.224C274.22 243.848 273.756 243.584 273.068 243.584C271.572 243.584 270.9 244.896 270.9 246.344C270.9 247.792 271.468 249.096 272.956 249.096ZM272.932 248.504C272.004 248.504 271.652 247.688 271.588 247.024C271.884 246.552 272.396 246.224 272.924 246.224C273.612 246.224 274.156 246.592 274.156 247.376C274.156 247.888 273.756 248.504 272.932 248.504Z" fill="#545D63"/>
<path d="M271.018 312V311.408H268.402C269.89 310.232 270.994 309.24 270.994 308.152C270.994 307.088 270.09 306.584 269.202 306.584C268.45 306.584 267.754 306.888 267.346 307.424L267.754 307.848C268.066 307.448 268.562 307.176 269.202 307.176C269.754 307.176 270.314 307.472 270.314 308.152C270.314 309.072 269.274 309.96 267.354 311.472V312H271.018ZM273.753 312.096C274.929 312.096 275.641 311.448 275.641 310.56C275.641 309.704 274.897 309.288 274.409 309.248C274.913 309.16 275.561 308.776 275.561 308.008C275.561 307.104 274.777 306.584 273.753 306.584C272.929 306.584 272.313 306.944 271.929 307.408L272.297 307.824C272.689 307.4 273.121 307.176 273.705 307.176C274.353 307.176 274.897 307.496 274.897 308.088C274.897 308.704 274.329 308.968 273.657 308.968C273.441 308.968 273.193 308.968 273.105 308.96V309.568C273.185 309.56 273.433 309.56 273.657 309.56C274.441 309.56 274.985 309.84 274.985 310.504C274.985 311.12 274.513 311.504 273.737 311.504C273.105 311.504 272.561 311.216 272.249 310.8L271.857 311.216C272.185 311.696 272.849 312.096 273.753 312.096Z" fill="#545D63"/>
<path d="M336.401 123.096C337.577 123.096 338.289 122.448 338.289 121.56C338.289 120.704 337.545 120.288 337.057 120.248C337.561 120.16 338.209 119.776 338.209 119.008C338.209 118.104 337.425 117.584 336.401 117.584C335.577 117.584 334.961 117.944 334.577 118.408L334.945 118.824C335.337 118.4 335.769 118.176 336.353 118.176C337.001 118.176 337.545 118.496 337.545 119.088C337.545 119.704 336.977 119.968 336.305 119.968C336.089 119.968 335.841 119.968 335.753 119.96V120.568C335.833 120.56 336.081 120.56 336.305 120.56C337.089 120.56 337.633 120.84 337.633 121.504C337.633 122.12 337.161 122.504 336.385 122.504C335.753 122.504 335.209 122.216 334.897 121.8L334.505 122.216C334.833 122.696 335.497 123.096 336.401 123.096Z" fill="#545D63"/>
<path d="M334.783 186V180.664H334.199L332.863 182.04L333.263 182.448L334.119 181.544V186H334.783ZM337.854 186.096C339.31 186.096 339.894 184.632 339.894 183.336C339.894 182.032 339.31 180.584 337.854 180.584C336.39 180.584 335.814 182.032 335.814 183.336C335.814 184.632 336.39 186.096 337.854 186.096ZM337.854 185.504C336.838 185.504 336.494 184.4 336.494 183.336C336.494 182.272 336.838 181.176 337.854 181.176C338.87 181.176 339.214 182.272 339.214 183.336C339.214 184.4 338.87 185.504 337.854 185.504Z" fill="#545D63"/>
<path d="M335.174 249V243.664H334.59L333.254 245.04L333.654 245.448L334.51 244.544V249H335.174ZM337.501 249L339.685 244.12V243.664H336.045V244.256H338.917L336.765 249H337.501Z" fill="#545D63"/>
<path d="M336.014 312V311.408H333.398C334.886 310.232 335.99 309.24 335.99 308.152C335.99 307.088 335.086 306.584 334.198 306.584C333.446 306.584 332.75 306.888 332.342 307.424L332.75 307.848C333.062 307.448 333.558 307.176 334.198 307.176C334.75 307.176 335.31 307.472 335.31 308.152C335.31 309.072 334.27 309.96 332.35 311.472V312H336.014ZM340.077 312V310.648H340.829V310.064H340.077V306.664H339.165L336.877 310.096V310.648H339.413V312H340.077ZM339.413 310.064H337.541L339.413 307.28V310.064Z" fill="#545D63"/>
<path d="M402.726 123V121.648H403.478V121.064H402.726V117.664H401.814L399.526 121.096V121.648H402.062V123H402.726ZM402.062 121.064H400.19L402.062 118.28V121.064Z" fill="#545D63"/>
<path d="M400.877 186V180.664H400.293L398.957 182.04L399.357 182.448L400.213 181.544V186H400.877ZM403.588 186V180.664H403.004L401.668 182.04L402.068 182.448L402.924 181.544V186H403.588Z" fill="#545D63"/>
<path d="M399.908 249V243.664H399.324L397.988 245.04L398.388 245.448L399.244 244.544V249H399.908ZM402.859 249.096C403.907 249.096 404.771 248.552 404.771 247.648C404.771 246.936 404.163 246.448 403.499 246.248C404.115 246.072 404.691 245.672 404.691 244.968C404.691 244.008 403.739 243.584 402.859 243.584C401.971 243.584 401.035 244.008 401.035 244.968C401.035 245.672 401.603 246.072 402.219 246.248C401.555 246.448 400.947 246.936 400.947 247.648C400.947 248.56 401.803 249.096 402.859 249.096ZM402.859 245.976C402.539 245.92 401.699 245.704 401.699 245.056C401.699 244.504 402.211 244.176 402.859 244.176C403.499 244.176 404.019 244.504 404.019 245.056C404.019 245.704 403.187 245.92 402.859 245.976ZM402.859 248.504C402.195 248.504 401.611 248.152 401.611 247.576C401.611 246.88 402.531 246.584 402.859 246.544C403.187 246.584 404.099 246.88 404.099 247.576C404.099 248.152 403.515 248.504 402.859 248.504Z" fill="#545D63"/>
<path d="M400.885 312V311.408H398.269C399.757 310.232 400.861 309.24 400.861 308.152C400.861 307.088 399.957 306.584 399.069 306.584C398.317 306.584 397.621 306.888 397.213 307.424L397.621 307.848C397.933 307.448 398.429 307.176 399.069 307.176C399.621 307.176 400.181 307.472 400.181 308.152C400.181 309.072 399.141 309.96 397.221 311.472V312H400.885ZM403.9 312.096C404.972 312.096 405.796 311.424 405.796 310.336C405.796 309.24 404.988 308.632 404.1 308.632C403.564 308.632 403.108 308.856 402.852 309.112V307.256H405.452V306.664H402.188V309.544L402.676 309.712C403.036 309.36 403.436 309.208 403.908 309.208C404.628 309.208 405.132 309.656 405.132 310.36C405.132 311.008 404.628 311.504 403.9 311.504C403.244 311.504 402.78 311.248 402.428 310.8L402.02 311.24C402.42 311.768 402.996 312.096 403.9 312.096Z" fill="#545D63"/>
<path d="M466.549 123.096C467.621 123.096 468.445 122.424 468.445 121.336C468.445 120.24 467.637 119.632 466.749 119.632C466.213 119.632 465.757 119.856 465.501 120.112V118.256H468.101V117.664H464.837V120.544L465.325 120.712C465.685 120.36 466.085 120.208 466.557 120.208C467.277 120.208 467.781 120.656 467.781 121.36C467.781 122.008 467.277 122.504 466.549 122.504C465.893 122.504 465.429 122.248 465.077 121.8L464.669 122.24C465.069 122.768 465.645 123.096 466.549 123.096Z" fill="#545D63"/>
<path d="M464.881 186V180.664H464.297L462.961 182.04L463.361 182.448L464.217 181.544V186H464.881ZM469.6 186V185.408H466.984C468.472 184.232 469.576 183.24 469.576 182.152C469.576 181.088 468.672 180.584 467.784 180.584C467.032 180.584 466.336 180.888 465.928 181.424L466.336 181.848C466.648 181.448 467.144 181.176 467.784 181.176C468.336 181.176 468.896 181.472 468.896 182.152C468.896 183.072 467.856 183.96 465.936 185.472V186H469.6Z" fill="#545D63"/>
<path d="M464.869 249V243.664H464.285L462.949 245.04L463.349 245.448L464.205 244.544V249H464.869ZM467.644 249.088C469.14 249.088 469.812 247.776 469.812 246.336C469.812 244.88 469.244 243.576 467.748 243.576C466.588 243.576 465.884 244.4 465.884 245.32C465.884 246.456 466.676 247.024 467.636 247.024C468.316 247.024 468.908 246.56 469.14 246.192C469.148 246.264 469.148 246.336 469.148 246.408C469.148 247.416 468.724 248.496 467.644 248.496C467.092 248.496 466.772 248.272 466.5 247.952L466.164 248.448C466.5 248.832 466.964 249.088 467.644 249.088ZM467.788 246.448C467.1 246.448 466.556 246.08 466.556 245.296C466.556 244.792 466.964 244.168 467.78 244.168C468.708 244.168 469.06 244.992 469.116 245.656C468.836 246.128 468.316 246.448 467.788 246.448Z" fill="#545D63"/>
<path d="M465.881 312V311.408H463.265C464.753 310.232 465.857 309.24 465.857 308.152C465.857 307.088 464.953 306.584 464.065 306.584C463.313 306.584 462.617 306.888 462.209 307.424L462.617 307.848C462.929 307.448 463.425 307.176 464.065 307.176C464.617 307.176 465.177 307.472 465.177 308.152C465.177 309.072 464.137 309.96 462.217 311.472V312H465.881ZM468.952 312.096C470.12 312.096 470.824 311.28 470.824 310.352C470.824 309.216 470.04 308.648 469.08 308.648C468.392 308.648 467.8 309.112 467.568 309.48C467.56 309.408 467.56 309.344 467.56 309.272C467.56 308.224 468.032 307.176 469.064 307.176C469.624 307.176 469.936 307.4 470.208 307.72L470.544 307.224C470.216 306.848 469.752 306.584 469.064 306.584C467.568 306.584 466.896 307.896 466.896 309.344C466.896 310.792 467.464 312.096 468.952 312.096ZM468.928 311.504C468 311.504 467.648 310.688 467.584 310.024C467.88 309.552 468.392 309.224 468.92 309.224C469.608 309.224 470.152 309.592 470.152 310.376C470.152 310.888 469.752 311.504 468.928 311.504Z" fill="#545D63"/>
<path d="M45.553 44C45.553 42.0963 47.0963 40.553 49 40.553H541C542.904 40.553 544.447 42.0963 544.447 44V49.447H45.553V44Z" fill="#17A17E" stroke="#EAEDEF" stroke-width="1.10602"/>
<path d="M247.636 78.168C250.156 78.168 251.248 76.838 251.248 75.284C251.248 71.798 245.816 72.876 245.816 71.14C245.816 70.44 246.432 69.978 247.398 69.978C248.378 69.978 249.372 70.314 250.1 71.042L251.038 69.824C250.17 68.984 248.994 68.522 247.538 68.522C245.494 68.522 244.136 69.712 244.136 71.252C244.136 74.696 249.582 73.478 249.582 75.438C249.582 76.054 249.05 76.712 247.706 76.712C246.404 76.712 245.396 76.11 244.752 75.424L243.842 76.684C244.668 77.566 245.914 78.168 247.636 78.168ZM255.837 78.168C256.915 78.168 257.909 77.832 258.581 77.188L257.909 76.222C257.433 76.698 256.649 76.964 255.991 76.964C254.717 76.964 253.947 76.124 253.835 75.102H259.057V74.752C259.057 72.624 257.755 71.07 255.725 71.07C253.723 71.07 252.295 72.652 252.295 74.612C252.295 76.754 253.807 78.168 255.837 78.168ZM257.629 74.066H253.821C253.891 73.24 254.465 72.274 255.725 72.274C257.055 72.274 257.601 73.268 257.629 74.066ZM264.148 78.168C265.898 78.168 267.144 76.838 267.144 74.612C267.144 72.386 265.898 71.07 264.148 71.07C263.266 71.07 262.482 71.49 261.978 72.162V71.238H260.508V80.576H261.978V77.062C262.524 77.79 263.294 78.168 264.148 78.168ZM263.714 76.866C263.028 76.866 262.3 76.446 261.978 75.956V73.282C262.3 72.778 263.028 72.372 263.714 72.372C264.876 72.372 265.618 73.31 265.618 74.612C265.618 75.928 264.876 76.866 263.714 76.866ZM270.631 78.168C271.317 78.168 271.751 77.986 272.017 77.734L271.667 76.628C271.555 76.754 271.289 76.866 271.009 76.866C270.589 76.866 270.365 76.53 270.365 76.068V72.526H271.737V71.238H270.365V69.39H268.895V71.238H267.775V72.526H268.895V76.432C268.895 77.552 269.497 78.168 270.631 78.168ZM276.194 78.168C277.272 78.168 278.266 77.832 278.938 77.188L278.266 76.222C277.79 76.698 277.006 76.964 276.348 76.964C275.074 76.964 274.304 76.124 274.192 75.102H279.414V74.752C279.414 72.624 278.112 71.07 276.082 71.07C274.08 71.07 272.652 72.652 272.652 74.612C272.652 76.754 274.164 78.168 276.194 78.168ZM277.986 74.066H274.178C274.248 73.24 274.822 72.274 276.082 72.274C277.412 72.274 277.958 73.268 277.986 74.066ZM290.623 78V73.114C290.623 71.742 289.923 71.07 288.677 71.07C287.669 71.07 286.773 71.7 286.381 72.316C286.157 71.574 285.541 71.07 284.533 71.07C283.511 71.07 282.615 71.742 282.335 72.162V71.238H280.865V78H282.335V73.282C282.643 72.834 283.245 72.372 283.889 72.372C284.687 72.372 285.009 72.862 285.009 73.59V78H286.479V73.268C286.773 72.834 287.389 72.372 288.047 72.372C288.831 72.372 289.153 72.862 289.153 73.59V78H290.623ZM293.997 75.97V73.296C294.319 72.792 295.047 72.372 295.733 72.372C296.909 72.372 297.651 73.31 297.651 74.626C297.651 75.942 296.909 76.866 295.733 76.866C295.047 76.866 294.319 76.474 293.997 75.97ZM293.997 78V77.076C294.515 77.748 295.285 78.168 296.167 78.168C297.889 78.168 299.163 76.852 299.163 74.626C299.163 72.442 297.903 71.07 296.167 71.07C295.313 71.07 294.529 71.462 293.997 72.176V68.662H292.527V78H293.997ZM303.784 78.168C304.862 78.168 305.856 77.832 306.528 77.188L305.856 76.222C305.38 76.698 304.596 76.964 303.938 76.964C302.664 76.964 301.894 76.124 301.782 75.102H307.004V74.752C307.004 72.624 305.702 71.07 303.672 71.07C301.67 71.07 300.242 72.652 300.242 74.612C300.242 76.754 301.754 78.168 303.784 78.168ZM305.576 74.066H301.768C301.838 73.24 302.412 72.274 303.672 72.274C305.002 72.274 305.548 73.268 305.576 74.066ZM309.925 78V73.394C310.219 72.918 311.045 72.498 311.661 72.498C311.843 72.498 311.997 72.512 312.123 72.54V71.084C311.241 71.084 310.429 71.588 309.925 72.232V71.238H308.455V78H309.925ZM323.414 78V76.558H319.27C321.776 74.668 323.358 73.128 323.358 71.406C323.358 69.544 321.776 68.522 319.97 68.522C318.668 68.522 317.352 69.026 316.526 70.02L317.478 71.098C318.066 70.426 318.906 69.978 319.998 69.978C320.852 69.978 321.692 70.426 321.692 71.406C321.692 72.75 320.278 73.968 316.652 76.712V78H323.414ZM328.59 78.168C331.208 78.168 332.328 75.69 332.328 73.338C332.328 70.986 331.208 68.522 328.59 68.522C325.972 68.522 324.852 70.986 324.852 73.338C324.852 75.69 325.972 78.168 328.59 78.168ZM328.59 76.712C327.064 76.712 326.518 75.116 326.518 73.338C326.518 71.56 327.064 69.978 328.59 69.978C330.116 69.978 330.662 71.56 330.662 73.338C330.662 75.116 330.116 76.712 328.59 76.712ZM340.367 78V76.558H336.223C338.729 74.668 340.311 73.128 340.311 71.406C340.311 69.544 338.729 68.522 336.923 68.522C335.621 68.522 334.305 69.026 333.479 70.02L334.431 71.098C335.019 70.426 335.859 69.978 336.951 69.978C337.805 69.978 338.645 70.426 338.645 71.406C338.645 72.75 337.231 73.968 333.605 76.712V78H340.367ZM345.557 78V68.662H344.129L341.441 71.378L342.393 72.372L343.919 70.79V78H345.557Z" fill="black"/>
<line x1="133.5" y1="96" x2="133.5" y2="364" stroke="#EAEDEF"/>
<line x1="198.5" y1="96" x2="198.5" y2="364" stroke="#EAEDEF"/>
<line x1="263.5" y1="96" x2="263.5" y2="364" stroke="#EAEDEF"/>
<line x1="328.5" y1="96" x2="328.5" y2="364" stroke="#EAEDEF"/>
<line x1="393.5" y1="96" x2="393.5" y2="364" stroke="#EAEDEF"/>
<line x1="458.5" y1="96" x2="458.5" y2="364" stroke="#EAEDEF"/>
<line x1="68" y1="175.5" x2="523" y2="175.5" stroke="#EAEDEF"/>
<line x1="68" y1="238.5" x2="523" y2="238.5" stroke="#EAEDEF"/>
<line x1="68" y1="301.5" x2="523" y2="301.5" stroke="#EAEDEF"/>
<path d="M94.7631 107.096C96.2031 107.096 96.8271 106.336 96.8271 105.448C96.8271 103.456 93.7231 104.072 93.7231 103.08C93.7231 102.68 94.0751 102.416 94.6271 102.416C95.1871 102.416 95.7551 102.608 96.1711 103.024L96.7071 102.328C96.2111 101.848 95.5391 101.584 94.7071 101.584C93.5391 101.584 92.7631 102.264 92.7631 103.144C92.7631 105.112 95.8751 104.416 95.8751 105.536C95.8751 105.888 95.5711 106.264 94.8031 106.264C94.0591 106.264 93.4831 105.92 93.1151 105.528L92.5951 106.248C93.0671 106.752 93.7791 107.096 94.7631 107.096ZM100.001 107.096C101.545 107.096 102.305 106.216 102.305 104.888V101.664H101.361V104.864C101.361 105.712 100.889 106.264 100.001 106.264C99.1051 106.264 98.6331 105.712 98.6331 104.864V101.664H97.6891V104.896C97.6891 106.208 98.4491 107.096 100.001 107.096ZM108.063 107V101.664H107.127V105.368L104.399 101.664H103.439V107H104.375V103.192L107.159 107H108.063Z" fill="#545D63"/>
<path d="M162.335 107V101.664H161.015L159.559 105.176L158.111 101.664H156.791V107H157.727V103.04L159.359 107H159.759L161.399 103.04V107H162.335ZM165.958 107.096C167.558 107.096 168.686 105.928 168.686 104.336C168.686 102.744 167.558 101.576 165.958 101.576C164.358 101.576 163.23 102.744 163.23 104.336C163.23 105.928 164.358 107.096 165.958 107.096ZM165.958 106.264C164.878 106.264 164.19 105.432 164.19 104.336C164.19 103.232 164.878 102.408 165.958 102.408C167.03 102.408 167.726 103.232 167.726 104.336C167.726 105.432 167.03 106.264 165.958 106.264ZM174.212 107V101.664H173.276V105.368L170.548 101.664H169.588V107H170.524V103.192L173.308 107H174.212Z" fill="#545D63"/>
<path d="M225.784 107V102.488H227.4V101.664H223.232V102.488H224.848V107H225.784ZM230.505 107.096C232.049 107.096 232.809 106.216 232.809 104.888V101.664H231.865V104.864C231.865 105.712 231.393 106.264 230.505 106.264C229.609 106.264 229.137 105.712 229.137 104.864V101.664H228.193V104.896C228.193 106.208 228.953 107.096 230.505 107.096ZM237.599 107V106.176H234.879V104.696H237.543V103.872H234.879V102.488H237.599V101.664H233.943V107H237.599Z" fill="#545D63"/>
<path d="M291.886 107L293.406 101.664H292.358L291.326 105.776L290.222 101.664H289.478L288.374 105.776L287.334 101.664H286.286L287.814 107H288.814L289.846 103.064L290.886 107H291.886ZM297.689 107V106.176H294.969V104.696H297.633V103.872H294.969V102.488H297.689V101.664H294.033V107H297.689ZM300.634 107C302.298 107 303.426 105.904 303.426 104.336C303.426 102.768 302.298 101.664 300.634 101.664H298.65V107H300.634ZM300.634 106.176H299.586V102.488H300.634C301.826 102.488 302.466 103.304 302.466 104.336C302.466 105.344 301.794 106.176 300.634 106.176Z" fill="#545D63"/>
<path d="M355.202 107V102.488H356.818V101.664H352.65V102.488H354.266V107H355.202ZM362.259 107V101.664H361.323V103.848H358.547V101.664H357.611V107H358.547V104.672H361.323V107H362.259ZM365.704 107.096C367.248 107.096 368.008 106.216 368.008 104.888V101.664H367.064V104.864C367.064 105.712 366.592 106.264 365.704 106.264C364.808 106.264 364.336 105.712 364.336 104.864V101.664H363.392V104.896C363.392 106.208 364.152 107.096 365.704 107.096Z" fill="#545D63"/>
<path d="M421.711 107V104.696H424.375V103.872H421.711V102.488H424.431V101.664H420.775V107H421.711ZM429.395 107L428.091 104.904C428.731 104.8 429.355 104.288 429.355 103.336C429.355 102.352 428.667 101.664 427.611 101.664H425.267V107H426.203V105.008H427.131L428.315 107H429.395ZM427.483 104.184H426.203V102.488H427.483C428.011 102.488 428.395 102.824 428.395 103.336C428.395 103.848 428.011 104.184 427.483 104.184ZM431.227 107V101.664H430.291V107H431.227Z" fill="#545D63"/>
<path d="M485.818 107.096C487.258 107.096 487.882 106.336 487.882 105.448C487.882 103.456 484.778 104.072 484.778 103.08C484.778 102.68 485.13 102.416 485.682 102.416C486.242 102.416 486.81 102.608 487.226 103.024L487.762 102.328C487.266 101.848 486.594 101.584 485.762 101.584C484.594 101.584 483.818 102.264 483.818 103.144C483.818 105.112 486.93 104.416 486.93 105.536C486.93 105.888 486.626 106.264 485.858 106.264C485.114 106.264 484.538 105.92 484.17 105.528L483.65 106.248C484.122 106.752 484.834 107.096 485.818 107.096ZM493.466 107L491.37 101.664H490.202L488.106 107H489.17L489.562 105.976H492.01L492.402 107H493.466ZM491.746 105.152H489.826L490.786 102.608L491.746 105.152ZM495.733 107V102.488H497.349V101.664H493.181V102.488H494.797V107H495.733Z" fill="#545D63"/>
<rect x="269" y="192" width="54" height="10" rx="2" fill="#17A17E"/>
<rect x="334" y="129" width="54" height="10" rx="2" fill="#17A17E"/>
<rect x="204" y="192" width="54" height="10" rx="2" fill="#17A17E"/>
<rect x="139" y="255" width="54" height="10" rx="2" fill="#17A17E"/>
<rect x="269" y="255" width="54" height="10" rx="2" fill="#17A17E"/>
<rect x="334" y="255" width="54" height="10" rx="2" fill="#17A17E"/>
<rect x="139" y="318" width="54" height="10" rx="2" fill="#17A17E"/>
<rect x="399" y="318" width="54" height="10" rx="2" fill="#17A17E"/>
<rect x="269" y="205" width="54" height="10" rx="2" fill="#6977E7"/>
<rect x="269" y="318" width="54" height="10" rx="2" fill="#6977E7"/>
<rect x="399" y="129" width="54" height="10" rx="2" fill="#6977E7"/>
<rect x="204" y="205" width="54" height="10" rx="2" fill="#FF9A00"/>
<rect x="334" y="268" width="54" height="10" rx="2" fill="#FF9A00"/>
<rect x="204" y="318" width="54" height="10" rx="2" fill="#FF9A00"/>
<rect x="399" y="192" width="54" height="10" rx="2" fill="#6977E7"/>
<rect x="399" y="255" width="54" height="10" rx="2" fill="#6977E7"/>
<rect x="399" y="331" width="54" height="10" rx="2" fill="#6977E7"/>
<line x1="274" y1="197" x2="312" y2="197" stroke="white" stroke-width="2" stroke-linecap="round"/>
<line x1="339" y1="134" x2="377" y2="134" stroke="white" stroke-width="2" stroke-linecap="round"/>
<line x1="209" y1="197" x2="247" y2="197" stroke="white" stroke-width="2" stroke-linecap="round"/>
<line x1="144" y1="260" x2="182" y2="260" stroke="white" stroke-width="2" stroke-linecap="round"/>
<line x1="274" y1="260" x2="312" y2="260" stroke="white" stroke-width="2" stroke-linecap="round"/>
<line x1="339" y1="260" x2="377" y2="260" stroke="white" stroke-width="2" stroke-linecap="round"/>
<line x1="144" y1="323" x2="182" y2="323" stroke="white" stroke-width="2" stroke-linecap="round"/>
<line x1="404" y1="323" x2="442" y2="323" stroke="white" stroke-width="2" stroke-linecap="round"/>
<line x1="274" y1="210" x2="300" y2="210" stroke="white" stroke-width="2" stroke-linecap="round"/>
<line x1="274" y1="323" x2="300" y2="323" stroke="white" stroke-width="2" stroke-linecap="round"/>
<line x1="404" y1="134" x2="434" y2="134" stroke="white" stroke-width="2" stroke-linecap="round"/>
<line x1="209" y1="210" x2="239" y2="210" stroke="white" stroke-width="2" stroke-linecap="round"/>
<line x1="339" y1="273" x2="369" y2="273" stroke="white" stroke-width="2" stroke-linecap="round"/>
<line x1="209" y1="323" x2="239" y2="323" stroke="white" stroke-width="2" stroke-linecap="round"/>
<line x1="404" y1="197" x2="434" y2="197" stroke="white" stroke-width="2" stroke-linecap="round"/>
<line x1="404" y1="260" x2="434" y2="260" stroke="white" stroke-width="2" stroke-linecap="round"/>
<line x1="404" y1="336" x2="434" y2="336" stroke="white" stroke-width="2" stroke-linecap="round"/>
<g filter="url(#filter1_d)">
<rect x="317" y="198" width="250" height="196" rx="4" fill="white"/>
<rect x="317.5" y="198.5" width="249" height="195" rx="3.5" stroke="#EAEDEF"/>
</g>
<path d="M339.5 260C339.5 259.172 340.172 258.5 341 258.5H537C537.828 258.5 538.5 259.172 538.5 260V282C538.5 282.828 537.828 283.5 537 283.5H341C340.172 283.5 339.5 282.828 339.5 282V260Z" fill="white" stroke="#D0D7DC"/>
<path d="M339.5 318C339.5 317.172 340.172 316.5 341 316.5H427C427.828 316.5 428.5 317.172 428.5 318V340C428.5 340.828 427.828 341.5 427 341.5H341C340.172 341.5 339.5 340.828 339.5 340V318Z" fill="white" stroke="#D0D7DC"/>
<path d="M449.5 318C449.5 317.172 450.172 316.5 451 316.5H537C537.828 316.5 538.5 317.172 538.5 318V340C538.5 340.828 537.828 341.5 537 341.5H451C450.172 341.5 449.5 340.828 449.5 340V318Z" fill="white" stroke="#D0D7DC"/>
<path d="M351.66 274.12C353.13 274.12 354.02 273.31 354.02 272.2C354.02 271.13 353.09 270.61 352.48 270.56C353.11 270.45 353.92 269.97 353.92 269.01C353.92 267.88 352.94 267.23 351.66 267.23C350.63 267.23 349.86 267.68 349.38 268.26L349.84 268.78C350.33 268.25 350.87 267.97 351.6 267.97C352.41 267.97 353.09 268.37 353.09 269.11C353.09 269.88 352.38 270.21 351.54 270.21C351.27 270.21 350.96 270.21 350.85 270.2V270.96C350.95 270.95 351.26 270.95 351.54 270.95C352.52 270.95 353.2 271.3 353.2 272.13C353.2 272.9 352.61 273.38 351.64 273.38C350.85 273.38 350.17 273.02 349.78 272.5L349.29 273.02C349.7 273.62 350.53 274.12 351.66 274.12ZM357.626 274.12C359.446 274.12 360.176 272.29 360.176 270.67C360.176 269.04 359.446 267.23 357.626 267.23C355.796 267.23 355.076 269.04 355.076 270.67C355.076 272.29 355.796 274.12 357.626 274.12ZM357.626 273.38C356.356 273.38 355.926 272 355.926 270.67C355.926 269.34 356.356 267.97 357.626 267.97C358.896 267.97 359.326 269.34 359.326 270.67C359.326 272 358.896 273.38 357.626 273.38ZM363.389 271.91V271.25H360.989V271.91H363.389ZM370.998 274V267.33H369.808L367.728 272.35L365.658 267.33H364.468V274H365.298V268.51L367.558 274H367.898L370.168 268.51V274H370.998ZM372.893 268.48C373.173 268.48 373.403 268.26 373.403 267.98C373.403 267.7 373.173 267.47 372.893 267.47C372.623 267.47 372.393 267.7 372.393 267.98C372.393 268.26 372.623 268.48 372.893 268.48ZM373.273 274V269.17H372.523V274H373.273ZM378.78 274V270.61C378.78 269.56 378.25 269.05 377.24 269.05C376.52 269.05 375.86 269.47 375.52 269.87V269.17H374.77V274H375.52V270.47C375.8 270.08 376.36 269.72 376.95 269.72C377.6 269.72 378.03 269.99 378.03 270.84V274H378.78ZM384.287 274V269.17H383.537V272.72C383.257 273.11 382.697 273.45 382.107 273.45C381.457 273.45 381.027 273.2 381.027 272.35V269.17H380.277V272.58C380.277 273.63 380.807 274.12 381.817 274.12C382.537 274.12 383.167 273.74 383.537 273.32V274H384.287ZM387.005 274.12C387.445 274.12 387.715 273.99 387.905 273.81L387.685 273.25C387.585 273.36 387.385 273.45 387.175 273.45C386.845 273.45 386.685 273.19 386.685 272.83V269.83H387.665V269.17H386.685V267.85H385.935V269.17H385.135V269.83H385.935V272.99C385.935 273.71 386.295 274.12 387.005 274.12ZM390.905 274.12C391.695 274.12 392.345 273.86 392.825 273.38L392.465 272.89C392.085 273.28 391.525 273.5 390.975 273.5C389.935 273.5 389.295 272.74 389.235 271.83H393.145V271.64C393.145 270.19 392.285 269.05 390.825 269.05C389.445 269.05 388.445 270.18 388.445 271.58C388.445 273.09 389.475 274.12 390.905 274.12ZM392.405 271.28H389.235C389.275 270.54 389.785 269.67 390.815 269.67C391.915 269.67 392.395 270.56 392.405 271.28ZM397.798 274V270.96H401.268V270.22H397.798V268.07H401.338V267.33H396.968V274H397.798ZM404.546 274.12C406.016 274.12 406.936 272.98 406.936 271.58C406.936 270.18 406.016 269.05 404.546 269.05C403.076 269.05 402.156 270.18 402.156 271.58C402.156 272.98 403.076 274.12 404.546 274.12ZM404.546 273.45C403.516 273.45 402.936 272.57 402.936 271.58C402.936 270.6 403.516 269.72 404.546 269.72C405.576 269.72 406.146 270.6 406.146 271.58C406.146 272.57 405.576 273.45 404.546 273.45ZM408.908 274V267.33H408.158V274H408.908ZM411.154 274V267.33H410.404V274H411.154ZM414.76 274.12C416.23 274.12 417.15 272.98 417.15 271.58C417.15 270.18 416.23 269.05 414.76 269.05C413.29 269.05 412.37 270.18 412.37 271.58C412.37 272.98 413.29 274.12 414.76 274.12ZM414.76 273.45C413.73 273.45 413.15 272.57 413.15 271.58C413.15 270.6 413.73 269.72 414.76 269.72C415.79 269.72 416.36 270.6 416.36 271.58C416.36 272.57 415.79 273.45 414.76 273.45ZM423.303 274L424.843 269.17H424.063L422.883 273.02L421.613 269.17H420.973L419.703 273.02L418.523 269.17H417.743L419.283 274H420.033L421.293 270.12L422.553 274H423.303ZM427.667 271.91V271.25H425.267V271.91H427.667ZM431.465 274.12C433.275 274.12 434.185 273.06 434.185 271.4V267.33H433.355V271.39C433.355 272.61 432.695 273.38 431.465 273.38C430.235 273.38 429.575 272.61 429.575 271.39V267.33H428.745V271.41C428.745 273.05 429.655 274.12 431.465 274.12ZM438.097 274.12C439.367 274.12 440.247 273.14 440.247 271.58C440.247 270.01 439.367 269.05 438.097 269.05C437.417 269.05 436.817 269.4 436.467 269.89V269.17H435.717V275.84H436.467V273.27C436.857 273.81 437.437 274.12 438.097 274.12ZM437.907 273.45C437.317 273.45 436.727 273.09 436.467 272.67V270.49C436.727 270.07 437.317 269.72 437.907 269.72C438.877 269.72 439.457 270.51 439.457 271.58C439.457 272.65 438.877 273.45 437.907 273.45Z" fill="#121517"/>
<path d="M363.61 332V325.33H362.88L361.21 327.05L361.71 327.56L362.78 326.43V332H363.61ZM366.999 332V325.33H366.269L364.599 327.05L365.099 327.56L366.169 326.43V332H366.999ZM368.927 328.2C369.227 328.2 369.477 327.95 369.477 327.65C369.477 327.35 369.227 327.1 368.927 327.1C368.627 327.1 368.377 327.35 368.377 327.65C368.377 327.95 368.627 328.2 368.927 328.2ZM368.927 332.1C369.227 332.1 369.477 331.85 369.477 331.55C369.477 331.25 369.227 331 368.927 331C368.627 331 368.377 331.25 368.377 331.55C368.377 331.85 368.627 332.1 368.927 332.1ZM373.142 332.12C374.962 332.12 375.692 330.29 375.692 328.67C375.692 327.04 374.962 325.23 373.142 325.23C371.312 325.23 370.592 327.04 370.592 328.67C370.592 330.29 371.312 332.12 373.142 332.12ZM373.142 331.38C371.872 331.38 371.442 330 371.442 328.67C371.442 327.34 371.872 325.97 373.142 325.97C374.412 325.97 374.842 327.34 374.842 328.67C374.842 330 374.412 331.38 373.142 331.38ZM379.265 332.12C381.085 332.12 381.815 330.29 381.815 328.67C381.815 327.04 381.085 325.23 379.265 325.23C377.435 325.23 376.715 327.04 376.715 328.67C376.715 330.29 377.435 332.12 379.265 332.12ZM379.265 331.38C377.995 331.38 377.565 330 377.565 328.67C377.565 327.34 377.995 325.97 379.265 325.97C380.535 325.97 380.965 327.34 380.965 328.67C380.965 330 380.535 331.38 379.265 331.38ZM391.396 332L388.706 325.33H387.676L384.996 332H385.946L386.536 330.52H389.856L390.446 332H391.396ZM389.606 329.78H386.776L388.196 326.19L389.606 329.78ZM398.798 332V325.33H397.608L395.528 330.35L393.458 325.33H392.268V332H393.098V326.51L395.358 332H395.698L397.968 326.51V332H398.798Z" fill="#121517"/>
<path d="M366.33 368V364.51C366.33 363.54 365.86 363.05 364.98 363.05C364.28 363.05 363.63 363.51 363.36 363.95C363.22 363.45 362.8 363.05 362.06 363.05C361.35 363.05 360.7 363.56 360.5 363.87V363.17H359.75V368H360.5V364.47C360.76 364.08 361.28 363.72 361.77 363.72C362.4 363.72 362.66 364.11 362.66 364.72V368H363.41V364.46C363.66 364.08 364.19 363.72 364.69 363.72C365.31 363.72 365.58 364.11 365.58 364.72V368H366.33ZM370.006 368.12C370.796 368.12 371.446 367.86 371.926 367.38L371.566 366.89C371.186 367.28 370.626 367.5 370.076 367.5C369.036 367.5 368.396 366.74 368.336 365.83H372.246V365.64C372.246 364.19 371.386 363.05 369.926 363.05C368.546 363.05 367.546 364.18 367.546 365.58C367.546 367.09 368.576 368.12 370.006 368.12ZM371.506 365.28H368.336C368.376 364.54 368.886 363.67 369.916 363.67C371.016 363.67 371.496 364.56 371.506 365.28ZM375.641 368.12C376.431 368.12 377.081 367.86 377.561 367.38L377.201 366.89C376.821 367.28 376.261 367.5 375.711 367.5C374.671 367.5 374.031 366.74 373.971 365.83H377.881V365.64C377.881 364.19 377.021 363.05 375.561 363.05C374.181 363.05 373.181 364.18 373.181 365.58C373.181 367.09 374.211 368.12 375.641 368.12ZM377.141 365.28H373.971C374.011 364.54 374.521 363.67 375.551 363.67C376.651 363.67 377.131 364.56 377.141 365.28ZM380.316 368.12C380.756 368.12 381.026 367.99 381.216 367.81L380.996 367.25C380.896 367.36 380.696 367.45 380.486 367.45C380.156 367.45 379.996 367.19 379.996 366.83V363.83H380.976V363.17H379.996V361.85H379.246V363.17H378.446V363.83H379.246V366.99C379.246 367.71 379.606 368.12 380.316 368.12ZM382.435 368.1C382.735 368.1 382.985 367.85 382.985 367.55C382.985 367.25 382.735 367 382.435 367C382.135 367 381.885 367.25 381.885 367.55C381.885 367.85 382.135 368.1 382.435 368.1ZM386.211 369.96C387.391 369.96 388.511 369.46 388.511 367.86V363.17H387.761V363.9C387.371 363.37 386.791 363.05 386.141 363.05C384.871 363.05 383.991 364.01 383.991 365.56C383.991 367.12 384.881 368.06 386.141 368.06C386.821 368.06 387.411 367.69 387.761 367.2V367.89C387.761 368.95 387.011 369.34 386.211 369.34C385.521 369.34 385.041 369.16 384.641 368.68L384.261 369.24C384.831 369.8 385.391 369.96 386.211 369.96ZM386.321 367.4C385.351 367.4 384.771 366.62 384.771 365.56C384.771 364.49 385.351 363.72 386.321 363.72C386.921 363.72 387.501 364.08 387.761 364.5V366.61C387.501 367.03 386.921 367.4 386.321 367.4ZM392.124 368.12C393.594 368.12 394.514 366.98 394.514 365.58C394.514 364.18 393.594 363.05 392.124 363.05C390.654 363.05 389.734 364.18 389.734 365.58C389.734 366.98 390.654 368.12 392.124 368.12ZM392.124 367.45C391.094 367.45 390.514 366.57 390.514 365.58C390.514 364.6 391.094 363.72 392.124 363.72C393.154 363.72 393.724 364.6 393.724 365.58C393.724 366.57 393.154 367.45 392.124 367.45ZM397.846 368.12C399.316 368.12 400.236 366.98 400.236 365.58C400.236 364.18 399.316 363.05 397.846 363.05C396.376 363.05 395.456 364.18 395.456 365.58C395.456 366.98 396.376 368.12 397.846 368.12ZM397.846 367.45C396.816 367.45 396.236 366.57 396.236 365.58C396.236 364.6 396.816 363.72 397.846 363.72C398.876 363.72 399.446 364.6 399.446 365.58C399.446 366.57 398.876 367.45 397.846 367.45ZM403.399 369.96C404.579 369.96 405.699 369.46 405.699 367.86V363.17H404.949V363.9C404.559 363.37 403.979 363.05 403.329 363.05C402.059 363.05 401.179 364.01 401.179 365.56C401.179 367.12 402.069 368.06 403.329 368.06C404.009 368.06 404.599 367.69 404.949 367.2V367.89C404.949 368.95 404.199 369.34 403.399 369.34C402.709 369.34 402.229 369.16 401.829 368.68L401.449 369.24C402.019 369.8 402.579 369.96 403.399 369.96ZM403.509 367.4C402.539 367.4 401.959 366.62 401.959 365.56C401.959 364.49 402.539 363.72 403.509 363.72C404.109 363.72 404.689 364.08 404.949 364.5V366.61C404.689 367.03 404.109 367.4 403.509 367.4ZM407.951 368V361.33H407.201V368H407.951ZM411.627 368.12C412.417 368.12 413.067 367.86 413.547 367.38L413.187 366.89C412.807 367.28 412.247 367.5 411.697 367.5C410.657 367.5 410.017 366.74 409.957 365.83H413.867V365.64C413.867 364.19 413.007 363.05 411.547 363.05C410.167 363.05 409.167 364.18 409.167 365.58C409.167 367.09 410.197 368.12 411.627 368.12ZM413.127 365.28H409.957C409.997 364.54 410.507 363.67 411.537 363.67C412.637 363.67 413.117 364.56 413.127 365.28ZM415.414 368.1C415.714 368.1 415.964 367.85 415.964 367.55C415.964 367.25 415.714 367 415.414 367C415.114 367 414.864 367.25 414.864 367.55C414.864 367.85 415.114 368.1 415.414 368.1ZM419.38 368.12C420.26 368.12 420.78 367.76 421.15 367.28L420.65 366.82C420.33 367.25 419.92 367.45 419.42 367.45C418.39 367.45 417.75 366.65 417.75 365.58C417.75 364.51 418.39 363.72 419.42 363.72C419.92 363.72 420.33 363.91 420.65 364.35L421.15 363.89C420.78 363.41 420.26 363.05 419.38 363.05C417.94 363.05 416.97 364.15 416.97 365.58C416.97 367.02 417.94 368.12 419.38 368.12ZM424.311 368.12C425.781 368.12 426.701 366.98 426.701 365.58C426.701 364.18 425.781 363.05 424.311 363.05C422.841 363.05 421.921 364.18 421.921 365.58C421.921 366.98 422.841 368.12 424.311 368.12ZM424.311 367.45C423.281 367.45 422.701 366.57 422.701 365.58C422.701 364.6 423.281 363.72 424.311 363.72C425.341 363.72 425.911 364.6 425.911 365.58C425.911 366.57 425.341 367.45 424.311 367.45ZM434.504 368V364.51C434.504 363.54 434.034 363.05 433.154 363.05C432.454 363.05 431.804 363.51 431.534 363.95C431.394 363.45 430.974 363.05 430.234 363.05C429.524 363.05 428.874 363.56 428.674 363.87V363.17H427.924V368H428.674V364.47C428.934 364.08 429.454 363.72 429.944 363.72C430.574 363.72 430.834 364.11 430.834 364.72V368H431.584V364.46C431.834 364.08 432.364 363.72 432.864 363.72C433.484 363.72 433.754 364.11 433.754 364.72V368H434.504ZM435.84 368.2L438.21 361.13H437.62L435.25 368.2H435.84ZM442.729 368V364.68C442.729 363.51 441.879 363.05 440.859 363.05C440.069 363.05 439.449 363.31 438.929 363.85L439.279 364.37C439.709 363.91 440.179 363.7 440.759 363.7C441.459 363.7 441.979 364.07 441.979 364.72V365.59C441.589 365.14 441.039 364.93 440.379 364.93C439.559 364.93 438.689 365.44 438.689 366.52C438.689 367.57 439.559 368.12 440.379 368.12C441.029 368.12 441.579 367.89 441.979 367.45V368H442.729ZM440.649 367.58C439.949 367.58 439.459 367.14 439.459 366.53C439.459 365.91 439.949 365.47 440.649 365.47C441.179 365.47 441.689 365.67 441.979 366.07V366.98C441.689 367.38 441.179 367.58 440.649 367.58ZM444.982 366.69V364.5C445.242 364.08 445.832 363.72 446.422 363.72C447.402 363.72 447.982 364.52 447.982 365.59C447.982 366.66 447.402 367.45 446.422 367.45C445.832 367.45 445.242 367.11 444.982 366.69ZM444.982 368V367.28C445.342 367.77 445.932 368.12 446.612 368.12C447.872 368.12 448.762 367.16 448.762 365.59C448.762 364.05 447.872 363.05 446.612 363.05C445.952 363.05 445.372 363.37 444.982 363.9V361.33H444.232V368H444.982ZM452.114 368.12C452.994 368.12 453.514 367.76 453.884 367.28L453.384 366.82C453.064 367.25 452.654 367.45 452.154 367.45C451.124 367.45 450.484 366.65 450.484 365.58C450.484 364.51 451.124 363.72 452.154 363.72C452.654 363.72 453.064 363.91 453.384 364.35L453.884 363.89C453.514 363.41 452.994 363.05 452.114 363.05C450.674 363.05 449.704 364.15 449.704 365.58C449.704 367.02 450.674 368.12 452.114 368.12ZM456.886 365.91V365.25H454.486V365.91H456.886ZM462.184 368V361.33H461.434V363.9C461.044 363.37 460.454 363.05 459.804 363.05C458.534 363.05 457.654 364.05 457.654 365.59C457.654 367.16 458.544 368.12 459.804 368.12C460.484 368.12 461.074 367.77 461.434 367.28V368H462.184ZM459.984 367.45C459.014 367.45 458.434 366.66 458.434 365.59C458.434 364.52 459.014 363.72 459.984 363.72C460.584 363.72 461.164 364.08 461.434 364.5V366.69C461.164 367.11 460.584 367.45 459.984 367.45ZM465.866 368.12C466.656 368.12 467.306 367.86 467.786 367.38L467.426 366.89C467.046 367.28 466.486 367.5 465.936 367.5C464.896 367.5 464.256 366.74 464.196 365.83H468.106V365.64C468.106 364.19 467.246 363.05 465.786 363.05C464.406 363.05 463.406 364.18 463.406 365.58C463.406 367.09 464.436 368.12 465.866 368.12ZM467.366 365.28H464.196C464.236 364.54 464.746 363.67 465.776 363.67C466.876 363.67 467.356 364.56 467.366 365.28ZM470.28 368V363.83H471.26V363.17H470.28V362.8C470.28 362.19 470.55 361.85 471.04 361.85C471.29 361.85 471.48 361.95 471.64 362.09L471.95 361.6C471.65 361.32 471.31 361.23 470.93 361.23C470.07 361.23 469.53 361.81 469.53 362.8V363.17H468.73V363.83H469.53V368H470.28ZM474.092 369.96C475.272 369.96 476.392 369.46 476.392 367.86V363.17H475.642V363.9C475.252 363.37 474.672 363.05 474.022 363.05C472.752 363.05 471.872 364.01 471.872 365.56C471.872 367.12 472.762 368.06 474.022 368.06C474.702 368.06 475.292 367.69 475.642 367.2V367.89C475.642 368.95 474.892 369.34 474.092 369.34C473.402 369.34 472.922 369.16 472.522 368.68L472.142 369.24C472.712 369.8 473.272 369.96 474.092 369.96ZM474.202 367.4C473.232 367.4 472.652 366.62 472.652 365.56C472.652 364.49 473.232 363.72 474.202 363.72C474.802 363.72 475.382 364.08 475.642 364.5V366.61C475.382 367.03 474.802 367.4 474.202 367.4ZM479.845 365.91V365.25H477.445V365.91H479.845ZM484.913 368V364.59C484.913 363.54 484.383 363.05 483.373 363.05C482.643 363.05 481.983 363.47 481.643 363.87V361.33H480.893V368H481.643V364.47C481.933 364.08 482.493 363.72 483.073 363.72C483.723 363.72 484.163 363.97 484.163 364.82V368H484.913ZM486.78 362.48C487.06 362.48 487.29 362.26 487.29 361.98C487.29 361.7 487.06 361.47 486.78 361.47C486.51 361.47 486.28 361.7 486.28 361.98C486.28 362.26 486.51 362.48 486.78 362.48ZM487.16 368V363.17H486.41V368H487.16ZM489.026 362.48C489.306 362.48 489.536 362.26 489.536 361.98C489.536 361.7 489.306 361.47 489.026 361.47C488.756 361.47 488.526 361.7 488.526 361.98C488.526 362.26 488.756 362.48 489.026 362.48ZM487.976 369.96C488.896 369.96 489.406 369.42 489.406 368.47V363.17H488.656V368.47C488.656 369.08 488.326 369.34 487.876 369.34C487.576 369.34 487.356 369.2 487.186 369.03L486.916 369.6C487.226 369.84 487.486 369.96 487.976 369.96Z" fill="#17A17E"/>
<path d="M359 369.33H490.156V369.53H359V369.33Z" fill="#17A17E"/>
<path d="M473.61 332V325.33H472.88L471.21 327.05L471.71 327.56L472.78 326.43V332H473.61ZM476.999 332V325.33H476.269L474.599 327.05L475.099 327.56L476.169 326.43V332H476.999ZM478.927 328.2C479.227 328.2 479.477 327.95 479.477 327.65C479.477 327.35 479.227 327.1 478.927 327.1C478.627 327.1 478.377 327.35 478.377 327.65C478.377 327.95 478.627 328.2 478.927 328.2ZM478.927 332.1C479.227 332.1 479.477 331.85 479.477 331.55C479.477 331.25 479.227 331 478.927 331C478.627 331 478.377 331.25 478.377 331.55C478.377 331.85 478.627 332.1 478.927 332.1ZM482.742 332.12C484.212 332.12 485.102 331.31 485.102 330.2C485.102 329.13 484.172 328.61 483.562 328.56C484.192 328.45 485.002 327.97 485.002 327.01C485.002 325.88 484.022 325.23 482.742 325.23C481.712 325.23 480.942 325.68 480.462 326.26L480.922 326.78C481.412 326.25 481.952 325.97 482.682 325.97C483.492 325.97 484.172 326.37 484.172 327.11C484.172 327.88 483.462 328.21 482.622 328.21C482.352 328.21 482.042 328.21 481.932 328.2V328.96C482.032 328.95 482.342 328.95 482.622 328.95C483.602 328.95 484.282 329.3 484.282 330.13C484.282 330.9 483.692 331.38 482.722 331.38C481.932 331.38 481.252 331.02 480.862 330.5L480.372 331.02C480.782 331.62 481.612 332.12 482.742 332.12ZM488.708 332.12C490.528 332.12 491.258 330.29 491.258 328.67C491.258 327.04 490.528 325.23 488.708 325.23C486.878 325.23 486.158 327.04 486.158 328.67C486.158 330.29 486.878 332.12 488.708 332.12ZM488.708 331.38C487.438 331.38 487.008 330 487.008 328.67C487.008 327.34 487.438 325.97 488.708 325.97C489.978 325.97 490.408 327.34 490.408 328.67C490.408 330 489.978 331.38 488.708 331.38ZM500.84 332L498.15 325.33H497.12L494.44 332H495.39L495.98 330.52H499.3L499.89 332H500.84ZM499.05 329.78H496.22L497.64 326.19L499.05 329.78ZM508.242 332V325.33H507.052L504.972 330.35L502.902 325.33H501.712V332H502.542V326.51L504.802 332H505.142L507.412 326.51V332H508.242Z" fill="#121517"/>
<path d="M343.164 248V241.232H345.588V239.996H339.336V241.232H341.76V248H343.164ZM347.366 241.496C347.798 241.496 348.146 241.148 348.146 240.716C348.146 240.284 347.798 239.936 347.366 239.936C346.946 239.936 346.586 240.284 346.586 240.716C346.586 241.148 346.946 241.496 347.366 241.496ZM348.002 248V242.204H346.742V248H348.002ZM351.376 248.144C351.964 248.144 352.336 247.988 352.564 247.772L352.264 246.824C352.168 246.932 351.94 247.028 351.7 247.028C351.34 247.028 351.148 246.74 351.148 246.344V243.308H352.324V242.204H351.148V240.62H349.888V242.204H348.928V243.308H349.888V246.656C349.888 247.616 350.404 248.144 351.376 248.144ZM354.728 248V239.996H353.468V248H354.728ZM359.039 248.144C359.963 248.144 360.815 247.856 361.391 247.304L360.815 246.476C360.407 246.884 359.735 247.112 359.171 247.112C358.079 247.112 357.419 246.392 357.323 245.516H361.799V245.216C361.799 243.392 360.683 242.06 358.943 242.06C357.227 242.06 356.003 243.416 356.003 245.096C356.003 246.932 357.299 248.144 359.039 248.144ZM360.575 244.628H357.311C357.371 243.92 357.863 243.092 358.943 243.092C360.083 243.092 360.551 243.944 360.575 244.628Z" fill="#121517"/>
<path d="M342.588 306.144C344.748 306.144 345.684 305.004 345.684 303.672C345.684 300.684 341.028 301.608 341.028 300.12C341.028 299.52 341.556 299.124 342.384 299.124C343.224 299.124 344.076 299.412 344.7 300.036L345.504 298.992C344.76 298.272 343.752 297.876 342.504 297.876C340.752 297.876 339.588 298.896 339.588 300.216C339.588 303.168 344.256 302.124 344.256 303.804C344.256 304.332 343.8 304.896 342.648 304.896C341.532 304.896 340.668 304.38 340.116 303.792L339.336 304.872C340.044 305.628 341.112 306.144 342.588 306.144ZM348.505 306.144C349.093 306.144 349.465 305.988 349.693 305.772L349.393 304.824C349.297 304.932 349.069 305.028 348.829 305.028C348.469 305.028 348.277 304.74 348.277 304.344V301.308H349.453V300.204H348.277V298.62H347.017V300.204H346.057V301.308H347.017V304.656C347.017 305.616 347.533 306.144 348.505 306.144ZM355.397 306V302.16C355.397 300.6 354.269 300.06 352.985 300.06C352.061 300.06 351.221 300.36 350.549 300.996L351.065 301.872C351.569 301.38 352.133 301.14 352.781 301.14C353.585 301.14 354.137 301.548 354.137 302.22V303.084C353.717 302.592 353.045 302.34 352.265 302.34C351.317 302.34 350.249 302.892 350.249 304.224C350.249 305.508 351.317 306.144 352.265 306.144C353.033 306.144 353.705 305.868 354.137 305.376V306H355.397ZM352.757 305.28C352.049 305.28 351.521 304.872 351.521 304.248C351.521 303.612 352.049 303.204 352.757 303.204C353.309 303.204 353.849 303.408 354.137 303.804V304.68C353.849 305.076 353.309 305.28 352.757 305.28ZM358.291 306V302.052C358.543 301.644 359.251 301.284 359.779 301.284C359.935 301.284 360.067 301.296 360.175 301.32V300.072C359.419 300.072 358.723 300.504 358.291 301.056V300.204H357.031V306H358.291ZM362.931 306.144C363.519 306.144 363.891 305.988 364.119 305.772L363.819 304.824C363.723 304.932 363.495 305.028 363.255 305.028C362.895 305.028 362.703 304.74 362.703 304.344V301.308H363.879V300.204H362.703V298.62H361.443V300.204H360.483V301.308H361.443V304.656C361.443 305.616 361.959 306.144 362.931 306.144Z" fill="#121517"/>
<path d="M455.336 306V304.764H451.256V302.544H455.252V301.308H451.256V299.232H455.336V297.996H449.852V306H455.336ZM461.914 306V301.92C461.914 300.732 461.29 300.06 460.042 300.06C459.13 300.06 458.386 300.54 458.002 300.996V300.204H456.742V306H458.002V301.956C458.29 301.56 458.842 301.176 459.49 301.176C460.198 301.176 460.654 301.476 460.654 302.376V306H461.914ZM468.89 306V297.996H467.63V301.008C467.162 300.396 466.49 300.06 465.77 300.06C464.27 300.06 463.19 301.236 463.19 303.108C463.19 305.016 464.282 306.144 465.77 306.144C466.514 306.144 467.186 305.784 467.63 305.208V306H468.89ZM466.13 305.028C465.134 305.028 464.498 304.224 464.498 303.108C464.498 301.98 465.134 301.176 466.13 301.176C466.73 301.176 467.342 301.524 467.63 301.956V304.26C467.342 304.692 466.73 305.028 466.13 305.028Z" fill="#121517"/>
<g filter="url(#filter2_d)">
<path d="M317 202C317 199.791 318.791 198 321 198H563C565.209 198 567 199.791 567 202V227H317V202Z" fill="#17A17E"/>
<path d="M317.5 202C317.5 200.067 319.067 198.5 321 198.5H563C564.933 198.5 566.5 200.067 566.5 202V226.5H317.5V202Z" stroke="#EAEDEF"/>
</g>
<path d="M342.272 214.997L344.368 209.661H343.304L341.688 213.981L340.072 209.661H339.008L341.104 214.997H342.272ZM345.887 214.997V209.661H344.951V214.997H345.887ZM350.677 214.997V214.173H347.957V212.693H350.621V211.869H347.957V210.485H350.677V209.661H347.021V214.997H350.677ZM356.718 214.997L358.238 209.661H357.19L356.158 213.773L355.054 209.661H354.31L353.206 213.773L352.166 209.661H351.118L352.646 214.997H353.646L354.678 211.061L355.718 214.997H356.718ZM365.72 214.997L363.624 209.661H362.456L360.36 214.997H361.424L361.816 213.973H364.264L364.656 214.997H365.72ZM364 213.149H362.08L363.04 210.605L364 213.149ZM367.238 214.997V213.005H368.646C369.758 213.005 370.39 212.237 370.39 211.333C370.39 210.429 369.766 209.661 368.646 209.661H366.302V214.997H367.238ZM368.518 212.181H367.238V210.485H368.518C369.046 210.485 369.43 210.821 369.43 211.333C369.43 211.845 369.046 212.181 368.518 212.181ZM372.106 214.997V213.005H373.514C374.626 213.005 375.258 212.237 375.258 211.333C375.258 210.429 374.634 209.661 373.514 209.661H371.17V214.997H372.106ZM373.386 212.181H372.106V210.485H373.386C373.914 210.485 374.298 210.821 374.298 211.333C374.298 211.845 373.914 212.181 373.386 212.181ZM378.525 215.093C380.125 215.093 381.253 213.925 381.253 212.333C381.253 210.741 380.125 209.573 378.525 209.573C376.925 209.573 375.797 210.741 375.797 212.333C375.797 213.925 376.925 215.093 378.525 215.093ZM378.525 214.261C377.445 214.261 376.757 213.429 376.757 212.333C376.757 211.229 377.445 210.405 378.525 210.405C379.597 210.405 380.293 211.229 380.293 212.333C380.293 213.429 379.597 214.261 378.525 214.261ZM383.09 214.997V209.661H382.154V214.997H383.09ZM388.848 214.997V209.661H387.912V213.365L385.184 209.661H384.224V214.997H385.16V211.189L387.944 214.997H388.848ZM392.19 214.997V210.485H393.806V209.661H389.638V210.485H391.254V214.997H392.19ZM400.143 214.997V209.661H398.823L397.367 213.173L395.919 209.661H394.599V214.997H395.535V211.037L397.167 214.997H397.567L399.207 211.037V214.997H400.143ZM404.935 214.997V214.173H402.215V212.693H404.879V211.869H402.215V210.485H404.935V209.661H401.279V214.997H404.935ZM410.52 214.997V209.661H409.584V213.365L406.856 209.661H405.896V214.997H406.832V211.189L409.616 214.997H410.52ZM413.862 214.997V210.485H415.478V209.661H411.31V210.485H412.926V214.997H413.862Z" fill="white"/>
<path d="M351 324.5C348.516 324.5 346.5 326.516 346.5 329C346.5 331.484 348.516 333.5 351 333.5C353.484 333.5 355.5 331.484 355.5 329C355.5 326.516 353.484 324.5 351 324.5Z" stroke="#121517" stroke-width="0.75" stroke-miterlimit="10"/>
<path d="M351 326V329.375H353.25" stroke="#121517" stroke-width="0.75" stroke-linecap="round" stroke-linejoin="round"/>
<path d="M461 324.5C458.516 324.5 456.5 326.516 456.5 329C456.5 331.484 458.516 333.5 461 333.5C463.484 333.5 465.5 331.484 465.5 329C465.5 326.516 463.484 324.5 461 324.5Z" stroke="#121517" stroke-width="0.75" stroke-miterlimit="10"/>
<path d="M461 326V329.375H463.25" stroke="#121517" stroke-width="0.75" stroke-linecap="round" stroke-linejoin="round"/>
<path d="M349.248 366.443L351.51 368.035C351.576 368.065 351.649 368.077 351.722 368.071C351.795 368.066 351.865 368.042 351.926 368.002C351.987 367.962 352.037 367.908 352.072 367.844C352.107 367.78 352.125 367.708 352.125 367.635V362.364C352.125 362.292 352.107 362.22 352.072 362.156C352.037 362.092 351.987 362.037 351.926 361.998C351.865 361.958 351.795 361.934 351.722 361.928C351.649 361.923 351.576 361.935 351.51 361.965L349.248 363.557C349.191 363.597 349.144 363.651 349.112 363.713C349.079 363.775 349.063 363.844 349.062 363.914V366.085C349.063 366.156 349.079 366.225 349.112 366.287C349.144 366.349 349.191 366.403 349.248 366.443Z" stroke="#121517" stroke-width="0.9375" stroke-linecap="round" stroke-linejoin="round"/>
<path d="M346.328 368.5H341.297C340.92 368.499 340.559 368.349 340.293 368.082C340.026 367.816 339.876 367.455 339.875 367.078V362.922C339.876 362.545 340.026 362.184 340.293 361.918C340.559 361.651 340.92 361.501 341.297 361.5H346.341C346.715 361.501 347.072 361.65 347.336 361.914C347.6 362.178 347.749 362.535 347.75 362.909V367.078C347.749 367.455 347.599 367.816 347.332 368.082C347.066 368.349 346.705 368.499 346.328 368.5Z" stroke="#121517" stroke-width="0.9375" stroke-miterlimit="10"/>
<defs>
<filter id="filter0_d" x="0.759312" y="0.183381" width="588.481" height="430.481" filterUnits="userSpaceOnUse" color-interpolation-filters="sRGB">
<feFlood flood-opacity="0" result="BackgroundImageFix"/>
<feColorMatrix in="SourceAlpha" type="matrix" values="0 0 0 0 0 0 0 0 0 0 0 0 0 0 0 0 0 0 127 0"/>
<feOffset dy="4.42407"/>
<feGaussianBlur stdDeviation="22.1203"/>
<feColorMatrix type="matrix" values="0 0 0 0 0.329412 0 0 0 0 0.364706 0 0 0 0 0.388235 0 0 0 0.2 0"/>
<feBlend mode="normal" in2="BackgroundImageFix" result="effect1_dropShadow"/>
<feBlend mode="normal" in="SourceGraphic" in2="effect1_dropShadow" result="shape"/>
</filter>
<filter id="filter1_d" x="277" y="162" width="330" height="276" filterUnits="userSpaceOnUse" color-interpolation-filters="sRGB">
<feFlood flood-opacity="0" result="BackgroundImageFix"/>
<feColorMatrix in="SourceAlpha" type="matrix" values="0 0 0 0 0 0 0 0 0 0 0 0 0 0 0 0 0 0 127 0"/>
<feOffset dy="4"/>
<feGaussianBlur stdDeviation="20"/>
<feColorMatrix type="matrix" values="0 0 0 0 0.329412 0 0 0 0 0.364706 0 0 0 0 0.388235 0 0 0 0.1 0"/>
<feBlend mode="normal" in2="BackgroundImageFix" result="effect1_dropShadow"/>
<feBlend mode="normal" in="SourceGraphic" in2="effect1_dropShadow" result="shape"/>
</filter>
<filter id="filter2_d" x="277" y="162" width="330" height="109" filterUnits="userSpaceOnUse" color-interpolation-filters="sRGB">
<feFlood flood-opacity="0" result="BackgroundImageFix"/>
<feColorMatrix in="SourceAlpha" type="matrix" values="0 0 0 0 0 0 0 0 0 0 0 0 0 0 0 0 0 0 127 0"/>
<feOffset dy="4"/>
<feGaussianBlur stdDeviation="20"/>
<feColorMatrix type="matrix" values="0 0 0 0 0.329412 0 0 0 0 0.364706 0 0 0 0 0.388235 0 0 0 0.1 0"/>
<feBlend mode="normal" in2="BackgroundImageFix" result="effect1_dropShadow"/>
<feBlend mode="normal" in="SourceGraphic" in2="effect1_dropShadow" result="shape"/>
</filter>
</defs>
</svg>
