<svg width="231" height="229" xmlns="http://www.w3.org/2000/svg"><path d="M173.603 18.57c7.65 3.827 20.734 14.126 26.98 20.185 14.055 13.613 23.995 51.057 24.386 70.18.262 12.842-1.091 30.05-5.407 42.115-5.979 16.715-9.117 18.864-16.741 30.52-14.025 21.449-32.371 31.396-56.783 37.418-19.473 4.806-22.154 2.993-41.308.534-12.049-1.543-25.199-5.536-35.956-11.279-26.27-14.012-32.016-21.53-47.826-46.541-7.98-12.625-11.375-18.87-13.237-33.949L7 105.74c-.056-13.199 4.158-26.512 8.222-38.593 2.084-6.178 5.484-9.326 8.473-14.84C51.318 1.28 129.137-3.677 173.603 18.57zm-31.088 55.752c7.66 6.08 12.7 19.1 13.137 28.704.664 14.522 1.297 20.56-7.418 32.981-6.305 8.974-14.52 14.651-25.207 16.73-14.81 2.88-19.746 1.167-30.762-8.628-6.676-5.94-11.634-20.394-12.807-29.178-1.822-13.624 2.018-22.541 7.572-34.328 12.292-26.087 36.43-21.412 55.485-6.28zm-60.529 2.161c-5.243 11.538-10.967 25.311-8.316 38.153 3.939 19.061 10.555 35.567 29.849 42.495 16.998 6.105 39.324-3.384 49.613-19.16 7.513-11.517 11.828-23.568 8.99-37.475-3.037-14.891-4.028-21.441-15.742-32.343-20.118-18.735-52.096-18.735-64.394 8.33zm91.732 14.166c3.754 9.918 4.094 15.61 2 26.112-4.604 23.07-15.004 40.677-35.825 53.229-15.34 9.246-31.788.481-45.849-6.028-4.62-2.142-14.69-8.412-17.892-12.158-15.768-18.481-16.16-50.466-7.497-71.332 22.435-54.016 87.29-36.813 105.063 10.177zm-20.352-43.646c18.593 9.917 27.569 20.537 36.093 39.402 15.334 33.93-2.244 84.188-39.337 98.535-13.365 5.164-17.132 4.497-30.89 2.913-12.525-1.446-17.66-2.585-28.864-8.605-5.037-2.702-18.48-11.891-22.232-15.942-20.458-22.121-26.905-58.985-18.634-86.141 15.126-49.673 63.568-51.652 103.864-30.162zM44.208 74.726c-7.347 31.08-7.451 35.255 3.11 68.637 5.665 17.886 23.767 34.041 40.232 42.438 30.701 15.65 67.655 14.868 90.326-13.484 7.988-9.998 9.244-9.02 15.434-25.803 3.778-10.235 6.363-22.874 7.42-33.711 1.397-14.24-2.85-20.496-7.67-32.878-6.544-16.82-25.902-33.037-42.258-40.332-40.518-12.536-93.01-22.313-106.594 35.133zm105.595-48.6c8.671 3.121 21.823 10.503 29.513 15.682 20.4 13.738 25.971 40.31 27.56 63.483.639 9.337-1.251 32.556-4.221 41.348-3.033 9-10.12 21.726-15.743 29.435-8.422 11.544-12.934 14.22-25.032 20.85-19.367 10.611-55.582 12.654-75.344 2.182-4.823-2.556-9.704-5.355-14.387-8.17-4.876-2.94-8.65-6.283-13.505-9.113-10.514-6.133-16.49-13.5-21.345-24.552-8.853-20.16-13.635-56.858-7.612-77.941C45.611 23.623 99.792 8.133 149.803 26.127zM24.125 83.334c-1.61 5.869-1.822 12.18-2.854 18.465-1.244 7.598 2.09 29.407 4.124 37.405 7.015 27.626 8.857 34.156 32.013 50.768 18.603 13.341 35.002 24.355 58.937 24.022 21.19-.297 46.208-3.515 63.072-19.336 14.19-13.315 25.767-34.738 29.778-53.829 5.466-26.016 2.431-48.419-4.687-73.508-2.22-7.827-10.659-20.111-16.616-25.62-6.158-5.692-18.293-10.962-25.772-15.53-53.817-32.884-122.107-.603-137.995 57.163zm-.709-39.352c-4.15 5.324-5.902 10.452-9.525 15.978-2.544 3.88-5.327 13.29-6.7 18.063-16.423 57.078-2.97 68.95 22.703 108.924 17.697 27.551 65.892 41.595 96.737 42.05 10.354.149 22.734-3.215 32.663-6.414 21.983-7.084 31.223-14.09 45.335-31.89 12.183-15.364 22.92-33.458 24.957-53.28 2.762-26.865 1.897-41.585-6.38-67.315-7.446-23.165-12.908-30.455-32.217-44.969C175.536 13.515 156.672 5.93 137.726 2.18c-42.21-8.363-87.75 7.719-114.31 41.802zm100.766 64.965c.379 4.616 2.497 8.65-2.085 12.054-3.066-.567-6.868-4.527-8.612-7.05-2.119-3.053-1.578-10.543-.775-14.016 11.912-4.359 10.619-1.348 11.472 9.012zm-12.05-17.063c-3.833 2.191-5.119 2.73-5.803 7.63-.433 3.082-.576 10.758.444 13.468 1.516 4.016 10.823 13.512 15.298 11.819 6.001-2.272 9.15-21.051 1.062-31.117-1.766-2.201-1.225-2.242-4.225-2.577-2.154-.244-5.256-.097-6.777.777zm-14.326 20.615c-3.14-11.525 3.244-29.006 13.028-35.53 6.379-4.248 23.362 5.988 25.026 20.812 1.653 14.724 3.873 29.08-12.316 35.26-12.788 4.88-22.832-9.892-25.738-20.542zm-6.67-3.216c3.004 24.05 32.283 44.824 48.89 18.398 6.818-10.84 4.928-37.36-6.18-47.272-3.647-3.25-5.43-3.693-9.399-5.98-20.04-11.533-35.041 21.018-33.311 34.854zM60.713 76.439c-10.973 23.015-8.55 59.774 7.682 78.715 4.246 4.95 13.455 10.975 19.294 13.948 15.178 7.736 35.609 16.474 51.861 6.26 21.345-13.411 36.507-34.861 39.403-60.192 1.314-11.496 2.336-17.939-3.062-28.669-6.795-13.494-17.25-27.688-30.807-35.633-34.66-20.302-66.286-12.373-84.371 25.571z" fill="#6AFBCF" fill-rule="evenodd"/></svg>