<?xml version="1.0" encoding="utf-8"?>
<!-- Generator: Adobe Illustrator 25.1.0, SVG Export Plug-In . SVG Version: 6.00 Build 0)  -->
<svg version="1.1" id="Layer_1" xmlns="http://www.w3.org/2000/svg" xmlns:xlink="http://www.w3.org/1999/xlink" x="0px" y="0px"
	 viewBox="0 0 101.4 36.3" style="enable-background:new 0 0 101.4 36.3;" xml:space="preserve">
<style type="text/css">
	.st0{fill:#17A17E;}
</style>
<path class="st0" d="M4,6c0.7,0.3,1,0.5,1,1.1c0,1-0.7,1.5-1.6,1.5c-0.8,0-1.6-0.4-2.2-1.3l-1,1.3c0.5,0.7,1.5,1.5,2.9,1.5
	c2.3,0,3.8-1.4,3.8-3.4c0-0.9-0.4-1.6-1.5-2.1L4,4C3.6,3.8,3.2,3.6,3.2,3c0-0.8,0.7-1.2,1.6-1.2c0.7,0,1.4,0.4,1.9,1l1-1.3
	C7.2,0.8,6.3,0.2,4.8,0.2C3,0.2,1.3,1.6,1.3,3.4c0,1.4,0.9,1.9,1.3,2C3.1,5.6,3.6,5.8,4,6z M7.7,7.2c0,1.7,0.9,2.9,2.6,2.9
	c0.8,0,1.7-0.4,2.4-1.2h0c-0.1,0.4-0.1,0.7,0,1.1h1.7c-0.1-0.5,0-1,0.1-1.5l0.8-5.2h-1.8l-0.1,0.8h0c-0.3-0.7-1-1.1-1.9-1.1
	C9.3,3.1,7.7,5,7.7,7.2z M13,6.2c0,1.4-0.9,2.4-2.1,2.4C10,8.7,9.5,7.9,9.5,7c0-1.3,0.9-2.5,2.1-2.5C12.5,4.5,13,5.3,13,6.2z
	 M17.5,10h1.7l3.7-6.8h-1.8l-2.5,4.9l-1-4.9h-1.8L17.5,10z M26.2,7.3c1.9,0,3.1-1.1,3.1-2.4c0-1-0.8-1.8-2.4-1.8
	c-2.3,0-4.3,1.8-4.3,4.2c0,1.7,1.1,2.9,2.8,2.9c1.5,0,2.7-0.7,3.2-1.1l-0.5-1c-0.4,0.3-1.4,0.7-2.2,0.7c-0.8,0-1.5-0.5-1.5-1.5
	C25,7.3,25.5,7.3,26.2,7.3z M26.8,4.4c0.6,0,0.9,0.3,0.9,0.7c0,0.7-0.8,1-2.4,1c-0.2,0-0.5,0-0.8,0C24.8,5.1,25.7,4.4,26.8,4.4z
	 M39.8,6.1c0-1.8-1.2-3-3-3c-2.2,0-4.1,1.7-4.1,4.1c0,1.8,1.2,3,3,3C37.9,10.2,39.8,8.5,39.8,6.1z M35.9,8.7c-0.9,0-1.4-0.7-1.4-1.7
	c0-1.3,0.8-2.5,2.1-2.5c0.9,0,1.4,0.7,1.4,1.7C38,7.5,37.1,8.7,35.9,8.7z M42.1,10h1.7l3.7-6.8h-1.8l-2.5,4.9l-1-4.9h-1.8L42.1,10z
	 M50.8,7.3c1.9,0,3.1-1.1,3.1-2.4c0-1-0.8-1.8-2.4-1.8c-2.3,0-4.3,1.8-4.3,4.2c0,1.7,1.1,2.9,2.8,2.9c1.5,0,2.7-0.7,3.2-1.1l-0.5-1
	c-0.4,0.3-1.4,0.7-2.2,0.7c-0.8,0-1.5-0.5-1.5-1.5C49.6,7.3,50.1,7.3,50.8,7.3z M51.4,4.4c0.6,0,0.9,0.3,0.9,0.7c0,0.7-0.8,1-2.4,1
	c-0.2,0-0.5,0-0.8,0C49.5,5.1,50.3,4.4,51.4,4.4z M59,3.1c-0.7,0-1.4,0.5-1.8,1.2h0c0-0.3,0.1-0.7,0.1-1.1h-1.8
	c0.1,0.5,0,0.7-0.1,1.2L54.6,10h1.8l0.5-3.3c0.2-1,0.5-2,1.7-2c0.2,0,0.5,0,0.7,0.1h0.1l0.4-1.6C59.7,3.2,59.5,3.1,59,3.1z M64,10
	h1.7l1.5-9.7h-3.5l-0.2,1.4h1.7L64,10z M72.1,1.8h3.8c0.1-0.5,0.2-1,0.3-1.5h-4.9L69.6,5l0.7,0.5C70.8,5.2,71.5,5,72.1,5
	c0.9,0,1.6,0.5,1.6,1.5c0,1.6-1.2,2.1-2,2.1c-1.1,0-1.7-0.6-2.1-1.2l-1.1,1.1c0.2,0.3,1.2,1.6,2.9,1.6c2.1,0,4.2-1.4,4.2-3.8
	c0-1.7-1.1-2.6-2.6-2.6c-0.5,0-1.1,0.1-1.6,0.3L72.1,1.8z M78,9.8l0.7,0.5L86,0.6l-0.7-0.5C82.9,3.3,80.4,6.6,78,9.8z M79.3,5.1
	c1.5,0,2.7-1.2,2.7-2.8c0-1.2-0.8-2-1.9-2c-1.5,0-2.7,1.2-2.7,2.8C77.4,4.3,78.1,5.1,79.3,5.1z M79.5,4c-0.6,0-0.9-0.4-0.9-1.1
	c0-0.9,0.5-1.6,1.3-1.6c0.6,0,0.9,0.4,0.9,1.1C80.8,3.3,80.3,4,79.5,4z M83.9,10.2c1.5,0,2.7-1.1,2.7-2.8c0-1.2-0.8-2-2-2
	c-1.5,0-2.7,1.2-2.7,2.8C82,9.4,82.8,10.2,83.9,10.2z M84.1,9.1c-0.6,0-0.9-0.4-0.9-1.1c0-0.9,0.5-1.6,1.3-1.6
	c0.6,0,0.9,0.4,0.9,1.1C85.5,8.4,84.9,9.1,84.1,9.1z M17.2,24.2c0,1.7,0.9,2.9,2.6,2.9c0.8,0,1.7-0.3,2.4-1.2h0
	c-0.1,0.4-0.1,0.7,0,1.1h1.7c-0.1-0.5,0-1,0.1-1.5l0.8-5.2H23l-0.1,0.8h0c-0.3-0.7-1-1.1-1.9-1.1C18.8,20.1,17.2,22,17.2,24.2z
	 M22.6,23.2c0,1.4-0.9,2.5-2.1,2.5c-0.9,0-1.5-0.8-1.5-1.7c0-1.3,0.9-2.5,2.1-2.5C22,21.5,22.6,22.3,22.6,23.2z M36.6,20.1
	c-0.9,0-1.8,0.5-2.3,1.3c-0.2-0.9-0.7-1.3-1.6-1.3c-0.8,0-1.7,0.5-2.1,1.1h0c0-0.3,0.1-0.6,0-1h-1.8c0.1,0.5,0,0.7-0.1,1.2L27.9,27
	h1.8l0.6-3.5c0.2-1.1,0.7-1.9,1.5-1.9c0.8,0,0.9,0.7,0.8,1.6L31.9,27h1.8l0.6-3.5c0.2-1.2,0.7-1.9,1.6-1.9c0.8,0,0.9,0.8,0.7,1.6
	l-0.3,2c-0.1,0.8-0.2,1.2-0.1,1.8h1.8c-0.1-0.5,0-1,0.1-1.5l0.4-2.6C38.6,21.4,38.3,20.1,36.6,20.1z M46.4,23.1c0-1.8-1.2-3-3-3
	c-2.2,0-4.1,1.7-4.1,4.1c0,1.8,1.2,3,3,3C44.5,27.2,46.4,25.5,46.4,23.1z M42.5,25.7c-0.9,0-1.4-0.7-1.4-1.7c0-1.3,0.8-2.5,2.1-2.5
	c0.9,0,1.4,0.7,1.4,1.7C44.6,24.5,43.7,25.7,42.5,25.7z M51.8,20.1c-0.9,0-1.7,0.4-2.1,1.1h0c0-0.3,0.1-0.6,0-1h-1.8
	c0.1,0.5,0,0.7-0.1,1.2L47,27h1.8l0.6-3.7c0.2-1,0.6-1.7,1.6-1.7c1,0,1,0.8,0.9,1.8l-0.3,1.9c-0.1,0.8-0.2,1.2-0.1,1.8h1.8
	c-0.1-0.5,0-1,0.1-1.5l0.4-2.5C53.9,21.4,53.7,20.1,51.8,20.1z M57.5,25.7c-0.6,0-0.7-0.3-0.6-1.3l0.4-2.7h1.5l0.2-1.4h-1.5l0.1-0.4
	c0.1-0.6,0.2-1,0.1-1.6H56c0.1,0.5,0,0.7,0,1.2l-0.1,0.7h-1l-0.2,1.4h1l-0.5,3.1c-0.3,1.8,0.1,2.4,1.5,2.4c0.7,0,1.3-0.2,1.4-0.2
	l0.1-1.4C58.1,25.5,57.8,25.7,57.5,25.7z M63.8,20.1c-0.9,0-1.7,0.4-2.1,1.1h0l0.5-2.9c0.1-0.3,0.1-0.6,0-1h-1.8
	c0.1,0.5,0,0.7-0.1,1.2L59,27h1.8l0.6-3.7c0.2-1,0.6-1.7,1.6-1.7c1,0,1,0.8,0.9,1.8l-0.3,1.9c-0.1,0.8-0.2,1.2-0.1,1.8h1.8
	c-0.1-0.5,0-1,0.1-1.5l0.4-2.5C66,21.4,65.7,20.1,63.8,20.1z M67.6,24.2h1.5l1.2-6.9h-1.8L67.6,24.2z M69.1,26
	c0-0.6-0.4-0.9-0.9-0.9c-0.7,0-1.3,0.5-1.3,1.2c0,0.5,0.4,0.9,1,0.9C68.5,27.2,69.1,26.7,69.1,26z"/>
<g>
	<path class="st0" d="M95.1,36c-8.4,0-13.6-4.4-17.7-14.6c-0.2-0.5,0-1.1,0.6-1.3c0.5-0.2,1.1,0,1.3,0.6
		c4.6,11.4,10.1,14.8,20.9,12.9c0.5-0.1,1.1,0.3,1.2,0.8s-0.3,1.1-0.8,1.2C98.6,35.8,96.8,36,95.1,36z"/>
</g>
</svg>
