<?xml version="1.0" encoding="UTF-8"?>
<!-- Generator: Adobe Illustrator 25.1.0, SVG Export Plug-In . SVG Version: 6.00 Build 0)  -->
<svg version="1.1" id="Layer_1" xmlns="http://www.w3.org/2000/svg" xmlns:xlink="http://www.w3.org/1999/xlink" x="0px" y="0px" viewBox="0 0 30 40.1" style="enable-background:new 0 0 30 40.1;" xml:space="preserve">
<style type="text/css">
	.st0{fill:none;stroke:#121517;stroke-width:2.4609;stroke-linejoin:round;}
</style>
<path class="st0" d="M21.6,4.4h2.6c1,0,2,0.4,2.8,1.2c0.7,0.7,1.2,1.7,1.2,2.8v26.2c0,1-0.4,2-1.2,2.8c-0.7,0.7-1.7,1.2-2.8,1.2H5.8  c-1,0-2-0.4-2.8-1.2c-0.7-0.7-1.2-1.7-1.2-2.8V8.3c0-1,0.4-2,1.2-2.8c0.7-0.7,1.7-1.2,2.8-1.2h2.6"/>
<path class="st0" d="M19.4,1.7h-8.8c-1.2,0-2.1,1-2.1,2.1v1C8.4,6,9.4,7,10.6,7h8.8c1.2,0,2.1-1,2.1-2.1v-1  C21.6,2.7,20.6,1.7,19.4,1.7z"/>
</svg>