<svg width="44" height="44" viewBox="0 0 44 44" fill="none" xmlns="http://www.w3.org/2000/svg">
<path d="M35.75 6.875H8.25C5.97183 6.875 4.125 8.72183 4.125 11V35.75C4.125 38.0282 5.97183 39.875 8.25 39.875H35.75C38.0282 39.875 39.875 38.0282 39.875 35.75V11C39.875 8.72183 38.0282 6.875 35.75 6.875Z" stroke="#121517" stroke-width="2.75" stroke-linejoin="round"/>
<path d="M34.1877 6.875H9.81234C6.67648 6.875 4.125 9.46602 4.125 12.65V17.875H5.5C5.5 16.5 6.875 15.125 8.25 15.125H35.75C37.125 15.125 38.5 16.5 38.5 17.875H39.875V12.65C39.875 9.46602 37.3235 6.875 34.1877 6.875Z" fill="#121517"/>
<path d="M25.4375 22C26.5766 22 27.5 21.0766 27.5 19.9375C27.5 18.7984 26.5766 17.875 25.4375 17.875C24.2984 17.875 23.375 18.7984 23.375 19.9375C23.375 21.0766 24.2984 22 25.4375 22Z" fill="#121517"/>
<path d="M32.3125 22C33.4516 22 34.375 21.0766 34.375 19.9375C34.375 18.7984 33.4516 17.875 32.3125 17.875C31.1734 17.875 30.25 18.7984 30.25 19.9375C30.25 21.0766 31.1734 22 32.3125 22Z" fill="#121517"/>
<path d="M25.4375 28.875C26.5766 28.875 27.5 27.9516 27.5 26.8125C27.5 25.6734 26.5766 24.75 25.4375 24.75C24.2984 24.75 23.375 25.6734 23.375 26.8125C23.375 27.9516 24.2984 28.875 25.4375 28.875Z" fill="#121517"/>
<path d="M32.3125 28.875C33.4516 28.875 34.375 27.9516 34.375 26.8125C34.375 25.6734 33.4516 24.75 32.3125 24.75C31.1734 24.75 30.25 25.6734 30.25 26.8125C30.25 27.9516 31.1734 28.875 32.3125 28.875Z" fill="#121517"/>
<path d="M11.6875 28.875C12.8266 28.875 13.75 27.9516 13.75 26.8125C13.75 25.6734 12.8266 24.75 11.6875 24.75C10.5484 24.75 9.625 25.6734 9.625 26.8125C9.625 27.9516 10.5484 28.875 11.6875 28.875Z" fill="#121517"/>
<path d="M18.5625 28.875C19.7016 28.875 20.625 27.9516 20.625 26.8125C20.625 25.6734 19.7016 24.75 18.5625 24.75C17.4234 24.75 16.5 25.6734 16.5 26.8125C16.5 27.9516 17.4234 28.875 18.5625 28.875Z" fill="#121517"/>
<path d="M11.6875 35.75C12.8266 35.75 13.75 34.8266 13.75 33.6875C13.75 32.5484 12.8266 31.625 11.6875 31.625C10.5484 31.625 9.625 32.5484 9.625 33.6875C9.625 34.8266 10.5484 35.75 11.6875 35.75Z" fill="#121517"/>
<path d="M18.5625 35.75C19.7016 35.75 20.625 34.8266 20.625 33.6875C20.625 32.5484 19.7016 31.625 18.5625 31.625C17.4234 31.625 16.5 32.5484 16.5 33.6875C16.5 34.8266 17.4234 35.75 18.5625 35.75Z" fill="#121517"/>
<path d="M25.4375 35.75C26.5766 35.75 27.5 34.8266 27.5 33.6875C27.5 32.5484 26.5766 31.625 25.4375 31.625C24.2984 31.625 23.375 32.5484 23.375 33.6875C23.375 34.8266 24.2984 35.75 25.4375 35.75Z" fill="#121517"/>
<path d="M11 4.125V6.875" stroke="#121517" stroke-width="2.75" stroke-linecap="round" stroke-linejoin="round"/>
<path d="M33 4.125V6.875" stroke="#121517" stroke-width="2.75" stroke-linecap="round" stroke-linejoin="round"/>
</svg>
