<svg width="53" height="51" viewBox="0 0 53 51" fill="none" xmlns="http://www.w3.org/2000/svg">
<path d="M42.5751 5.33737C45.4451 9.64137 44.8501 16.4998 46.4951 22.4484C48.1751 28.397 52.0601 33.4008 52.3751 38.7546C52.7251 44.1084 49.5051 49.847 44.7101 50.7568C39.8801 51.6316 33.4401 47.7125 27.1401 47.5026C20.8751 47.2926 14.7501 50.7918 9.95512 49.882C5.12512 48.9722 1.66012 43.6535 1.03012 38.2647C0.400124 32.841 2.64012 27.3123 5.58012 23.1832C8.48512 19.0192 12.0901 16.2198 15.8001 12.1958C19.4751 8.13672 23.2201 2.81795 28.2951 1.06836C33.3351 -0.716226 39.7051 1.03337 42.5751 5.33737Z" fill="#DCFAF2"/>
</svg>