<svg width="59" height="58" viewBox="0 0 59 58" fill="none" xmlns="http://www.w3.org/2000/svg">
<path d="M46.3771 3.72681C50.3721 7.62781 51.1711 14.9128 53.4271 21.7278C55.6361 28.5898 59.2551 34.9348 57.6101 39.4938C55.9651 44.0528 49.0561 46.7788 43.2281 49.6928C37.4471 52.6538 32.7001 55.8498 27.2481 56.8838C21.7961 57.8708 15.6391 56.6958 11.2211 53.3118C6.75607 49.8808 4.07707 44.2878 2.33807 38.4598C0.599074 32.6318 -0.199926 26.6158 2.00907 22.1038C4.21807 17.5918 9.38807 14.5368 14.2291 10.9178C19.0701 7.29882 23.5351 3.02182 29.3631 1.18882C35.1911 -0.691185 42.3351 -0.174186 46.3771 3.72681Z" fill="#DCFAF2"/>
</svg>
