<svg width="53" height="53" viewBox="0 0 53 53" fill="none" xmlns="http://www.w3.org/2000/svg">
<path d="M43.6159 6.27417C48.3636 9.03093 52.6136 13.1661 52.8434 17.6841C53.0731 22.2021 49.3208 27.103 46.8321 31.7359C44.3433 36.3688 43.1181 40.6954 40.2848 43.4139C37.4132 46.1706 32.9334 47.3576 26.9987 49.3486C21.064 51.3396 13.6744 54.1729 8.42886 52.2202C3.14507 50.2675 0.0437115 43.4905 0.962632 37.5175C1.88155 31.5445 6.89733 26.3373 8.69688 19.8665C10.5347 13.4341 9.19463 5.77642 11.9514 2.36875C14.7082 -1.00062 21.5618 -0.119989 27.6113 1.02866C33.6609 2.13902 38.9064 3.51741 43.6159 6.27417Z" fill="#DCFAF2"/>
</svg>