<svg width="60" height="54" viewBox="0 0 60 54" fill="none" xmlns="http://www.w3.org/2000/svg">
<path d="M41.1677 5.20741C48.1246 6.68855 57.8194 7.99017 59.6596 12.1643C61.4998 16.3833 55.4855 23.4749 51.1767 29.3546C46.823 35.1894 44.13 39.8572 40.1803 44.6148C36.2306 49.3276 30.9793 54.2198 25.9972 53.8608C21.0152 53.5017 16.2576 47.9362 12.7118 43.0439C9.12117 38.1965 6.69748 34.0224 4.45332 29.2648C2.25405 24.5521 0.279188 19.2558 1.17685 14.3636C2.02963 9.47131 5.79982 5.02788 10.3779 2.78372C14.956 0.539561 20.342 0.494678 25.1445 1.30257C29.947 2.11047 34.166 3.77115 41.1677 5.20741Z" fill="#DCFAF2"/>
</svg>