<svg width="48" height="55" viewBox="0 0 48 55" fill="none" xmlns="http://www.w3.org/2000/svg">
<path d="M38.4874 15.45C42.7624 19.4625 42.3125 22.0875 44 25.5C45.6875 28.9125 49.5499 33.1125 47.1124 37.05C44.6749 40.95 41.5999 43.7625 38.1874 45.3375C34.8124 46.9125 31.1749 47.175 25.9249 49.35C20.6749 51.525 13.8499 55.575 9.08738 54.4874C4.32488 53.3624 1.62488 47.0625 0.687378 40.95C-0.250122 34.875 0.537377 28.95 1.66238 22.35C2.74988 15.75 4.13738 8.51245 8.48738 4.53745C12.8749 0.599953 20.1874 -0.0750462 25.5124 2.62495C30.8749 5.36245 34.2499 11.475 38.4874 15.45Z" fill="#DCFAF2"/>
</svg>