<svg width="44" height="44" viewBox="0 0 44 44" fill="none" xmlns="http://www.w3.org/2000/svg">
<path d="M11.25 4.125C9.59315 4.125 8.25 5.46815 8.25 7.125V37.875C8.25 38.9796 9.14543 39.875 10.25 39.875H28.875C29.6344 39.875 30.25 39.2594 30.25 38.5C30.25 37.7406 29.6344 37.125 28.875 37.125H11V6.875H24.75V13.125C24.75 14.2296 25.6454 15.125 26.75 15.125H33V16.5C33 17.2594 33.6156 17.875 34.375 17.875C35.1344 17.875 35.75 17.2594 35.75 16.5V13.7824C35.75 13.4093 35.6011 13.0516 35.3364 12.7886L27.0864 4.53857C26.8234 4.27386 26.4657 4.125 26.0926 4.125H11.25ZM27.5 8.80054L31.0745 12.375H27.5V8.80054ZM15.125 17.875C14.3656 17.875 13.75 18.4906 13.75 19.25C13.75 20.0094 14.3656 20.625 15.125 20.625H28.875C29.6344 20.625 30.25 20.0094 30.25 19.25C30.25 18.4906 29.6344 17.875 28.875 17.875H15.125ZM38.5 20.625C37.7406 20.625 37.125 21.2406 37.125 22V23.375C34.7875 23.7875 33 25.7125 33 28.1875C33 30.9375 35.0625 33 37.8125 33H39.1875C40.2875 33 41.25 33.9625 41.25 35.0625C41.25 36.1625 40.2875 37.125 39.1875 37.125H35.75C34.9906 37.125 34.375 37.7406 34.375 38.5C34.375 39.2594 34.9906 39.875 35.75 39.875H37.125V41.25C37.125 42.0094 37.7406 42.625 38.5 42.625C39.2594 42.625 39.875 42.0094 39.875 41.25V39.875C42.2125 39.4625 44 37.5375 44 35.0625C44 32.3125 41.9375 30.25 39.1875 30.25H37.8125C36.7125 30.25 35.75 29.2875 35.75 28.1875C35.75 27.0875 36.7125 26.125 37.8125 26.125H41.25C42.0094 26.125 42.625 25.5094 42.625 24.75C42.625 23.9906 42.0094 23.375 41.25 23.375H39.875V22C39.875 21.2406 39.2594 20.625 38.5 20.625ZM15.125 24.75C14.3656 24.75 13.75 25.3656 13.75 26.125C13.75 26.8844 14.3656 27.5 15.125 27.5H22C22.7594 27.5 23.375 26.8844 23.375 26.125C23.375 25.3656 22.7594 24.75 22 24.75H15.125ZM27.5 24.75C26.7406 24.75 26.125 25.3656 26.125 26.125C26.125 26.8844 26.7406 27.5 27.5 27.5H28.875C29.6344 27.5 30.25 26.8844 30.25 26.125C30.25 25.3656 29.6344 24.75 28.875 24.75H27.5ZM15.125 30.25C14.3656 30.25 13.75 30.8656 13.75 31.625C13.75 32.3844 14.3656 33 15.125 33H22C22.7594 33 23.375 32.3844 23.375 31.625C23.375 30.8656 22.7594 30.25 22 30.25H15.125ZM27.5 30.25C26.7406 30.25 26.125 30.8656 26.125 31.625C26.125 32.3844 26.7406 33 27.5 33H28.875C29.6344 33 30.25 32.3844 30.25 31.625C30.25 30.8656 29.6344 30.25 28.875 30.25H27.5Z" fill="#121517"/>
</svg>