<svg width="290" height="137" viewBox="0 0 290 137" fill="none" xmlns="http://www.w3.org/2000/svg">
<g filter="url(#filter0_d)">
<rect x="29" y="26" width="232" height="78" rx="3.85882" fill="white"/>
<rect x="29.4824" y="26.4824" width="231.035" height="77.0353" rx="3.37647" stroke="#EAEDEF" stroke-width="0.964706"/>
</g>
<path d="M51.4824 62.8588C51.4824 60.9941 52.9941 59.4824 54.8588 59.4824H170.518V86.5176H54.8588C52.9941 86.5176 51.4824 85.0059 51.4824 83.1412V62.8588Z" fill="white" stroke="#D0D7DC" stroke-width="0.964706"/>
<path d="M236.518 62.8588C236.518 60.9941 235.006 59.4824 233.141 59.4824H165.482V86.5176H233.141C235.006 86.5176 236.518 85.0059 236.518 83.1412V62.8588Z" fill="#17A17E" stroke="#D0D7DC" stroke-width="0.964706"/>
<path d="M54.88 48V41.33H53.71V48H54.88ZM62.0779 48V41.33H60.9079V45.96L57.4979 41.33H56.2979V48H57.4679V43.24L60.9479 48H62.0779ZM66.8752 48L69.4952 41.33H68.1652L66.1452 46.73L64.1252 41.33H62.7952L65.4152 48H66.8752ZM73.1384 48.12C75.1384 48.12 76.5484 46.66 76.5484 44.67C76.5484 42.68 75.1384 41.22 73.1384 41.22C71.1384 41.22 69.7284 42.68 69.7284 44.67C69.7284 46.66 71.1384 48.12 73.1384 48.12ZM73.1384 47.08C71.7884 47.08 70.9284 46.04 70.9284 44.67C70.9284 43.29 71.7884 42.26 73.1384 42.26C74.4784 42.26 75.3484 43.29 75.3484 44.67C75.3484 46.04 74.4784 47.08 73.1384 47.08ZM78.8448 48V41.33H77.6748V48H78.8448ZM83.4627 48.12C84.8127 48.12 85.6327 47.42 86.1427 46.62L85.1427 46.11C84.8227 46.67 84.1827 47.08 83.4627 47.08C82.1427 47.08 81.1627 46.07 81.1627 44.67C81.1627 43.27 82.1427 42.26 83.4627 42.26C84.1827 42.26 84.8227 42.68 85.1427 43.23L86.1427 42.72C85.6427 41.92 84.8127 41.22 83.4627 41.22C81.4927 41.22 79.9627 42.62 79.9627 44.67C79.9627 46.72 81.4927 48.12 83.4627 48.12ZM91.6491 48V46.97H88.2491V45.12H91.5791V44.09H88.2491V42.36H91.6491V41.33H87.0791V48H91.6491ZM97.929 48L98.509 46.26H99.579L99.789 45.57H98.739L99.339 43.77H100.379L100.579 43.09H99.569L100.159 41.33H99.359L98.779 43.09H97.769L98.349 41.33H97.549L96.969 43.09H95.919L95.709 43.77H96.729L96.139 45.57H95.119L94.899 46.26H95.899L95.319 48H96.119L96.699 46.26H97.719L97.129 48H97.929ZM97.939 45.57H96.939L97.529 43.77H98.539L97.939 45.57ZM103.863 48V41.33H102.843L100.923 43.27L101.603 43.98L102.693 42.85V48H103.863Z" fill="#121517"/>
<path d="M66.794 78.4H67.648V77.154C69.804 76.986 70.616 75.698 70.616 74.424C70.616 72.604 69.09 72.058 67.648 71.652V68.614C68.432 68.726 69.146 69.076 69.706 69.678L70.406 68.824C69.72 68.11 68.81 67.662 67.648 67.55V66.248H66.794V67.536C65.1 67.634 63.882 68.656 63.882 70.112C63.882 71.834 65.366 72.31 66.794 72.702V76.118C65.674 75.992 64.82 75.418 64.274 74.802L63.588 75.684C64.288 76.482 65.366 77.07 66.794 77.154V78.4ZM69.412 74.522C69.412 75.18 68.978 75.978 67.648 76.118V72.94C68.628 73.234 69.412 73.612 69.412 74.522ZM65.086 70.042C65.086 69.216 65.786 68.642 66.794 68.572V71.428C65.842 71.148 65.086 70.826 65.086 70.042ZM74.9528 77V67.662H73.9308L71.5928 70.07L72.2928 70.784L73.7908 69.202V77H74.9528ZM78.507 76.664C78.507 75.992 78.087 75.6 77.625 75.6C77.205 75.6 76.883 75.95 76.883 76.356C76.883 76.776 77.163 77.07 77.555 77.07C77.625 77.07 77.723 77.056 77.751 77.042C77.695 77.504 77.289 78.05 76.841 78.344L77.359 78.778C78.003 78.316 78.507 77.518 78.507 76.664ZM83.116 77.168C85.664 77.168 86.686 74.606 86.686 72.338C86.686 70.056 85.664 67.522 83.116 67.522C80.554 67.522 79.546 70.056 79.546 72.338C79.546 74.606 80.554 77.168 83.116 77.168ZM83.116 76.132C81.338 76.132 80.736 74.2 80.736 72.338C80.736 70.476 81.338 68.558 83.116 68.558C84.894 68.558 85.496 70.476 85.496 72.338C85.496 74.2 84.894 76.132 83.116 76.132ZM91.6883 77.168C94.2363 77.168 95.2583 74.606 95.2583 72.338C95.2583 70.056 94.2363 67.522 91.6883 67.522C89.1263 67.522 88.1183 70.056 88.1183 72.338C88.1183 74.606 89.1263 77.168 91.6883 77.168ZM91.6883 76.132C89.9103 76.132 89.3083 74.2 89.3083 72.338C89.3083 70.476 89.9103 68.558 91.6883 68.558C93.4663 68.558 94.0683 70.476 94.0683 72.338C94.0683 74.2 93.4663 76.132 91.6883 76.132ZM100.261 77.168C102.809 77.168 103.831 74.606 103.831 72.338C103.831 70.056 102.809 67.522 100.261 67.522C97.6986 67.522 96.6906 70.056 96.6906 72.338C96.6906 74.606 97.6986 77.168 100.261 77.168ZM100.261 76.132C98.4826 76.132 97.8806 74.2 97.8806 72.338C97.8806 70.476 98.4826 68.558 100.261 68.558C102.039 68.558 102.641 70.476 102.641 72.338C102.641 74.2 102.039 76.132 100.261 76.132ZM105.721 77.14C106.141 77.14 106.491 76.79 106.491 76.37C106.491 75.95 106.141 75.6 105.721 75.6C105.301 75.6 104.951 75.95 104.951 76.37C104.951 76.79 105.301 77.14 105.721 77.14ZM111.184 77.168C113.732 77.168 114.754 74.606 114.754 72.338C114.754 70.056 113.732 67.522 111.184 67.522C108.622 67.522 107.614 70.056 107.614 72.338C107.614 74.606 108.622 77.168 111.184 77.168ZM111.184 76.132C109.406 76.132 108.804 74.2 108.804 72.338C108.804 70.476 109.406 68.558 111.184 68.558C112.962 68.558 113.564 70.476 113.564 72.338C113.564 74.2 112.962 76.132 111.184 76.132ZM119.757 77.168C122.305 77.168 123.327 74.606 123.327 72.338C123.327 70.056 122.305 67.522 119.757 67.522C117.195 67.522 116.187 70.056 116.187 72.338C116.187 74.606 117.195 77.168 119.757 77.168ZM119.757 76.132C117.979 76.132 117.377 74.2 117.377 72.338C117.377 70.476 117.979 68.558 119.757 68.558C121.535 68.558 122.137 70.476 122.137 72.338C122.137 74.2 121.535 76.132 119.757 76.132Z" fill="#121517"/>
<path d="M179.666 76V73.012H181.778C183.446 73.012 184.394 71.86 184.394 70.504C184.394 69.148 183.458 67.996 181.778 67.996H178.262V76H179.666ZM181.586 71.776H179.666V69.232H181.586C182.378 69.232 182.954 69.736 182.954 70.504C182.954 71.272 182.378 71.776 181.586 71.776ZM190.093 76V72.16C190.093 70.6 188.965 70.06 187.681 70.06C186.757 70.06 185.917 70.36 185.245 70.996L185.761 71.872C186.265 71.38 186.829 71.14 187.477 71.14C188.281 71.14 188.833 71.548 188.833 72.22V73.084C188.413 72.592 187.741 72.34 186.961 72.34C186.013 72.34 184.945 72.892 184.945 74.224C184.945 75.508 186.013 76.144 186.961 76.144C187.729 76.144 188.401 75.868 188.833 75.376V76H190.093ZM187.453 75.28C186.745 75.28 186.217 74.872 186.217 74.248C186.217 73.612 186.745 73.204 187.453 73.204C188.005 73.204 188.545 73.408 188.833 73.804V74.68C188.545 75.076 188.005 75.28 187.453 75.28ZM191.474 78.268C191.654 78.316 192.002 78.352 192.182 78.352C193.082 78.34 193.778 78.028 194.174 77.044L196.97 70.204H195.614L193.922 74.548L192.23 70.204H190.886L193.262 76.072L192.974 76.732C192.806 77.116 192.542 77.236 192.146 77.236C192.002 77.236 191.798 77.2 191.666 77.14L191.474 78.268ZM207.815 76V67.996H206.411V73.552L202.319 67.996H200.879V76H202.283V70.288L206.459 76H207.815ZM212.096 76.144C213.956 76.144 215.084 74.764 215.084 73.096C215.084 71.44 213.956 70.06 212.096 70.06C210.26 70.06 209.12 71.44 209.12 73.096C209.12 74.764 210.26 76.144 212.096 76.144ZM212.096 75.028C211.028 75.028 210.428 74.128 210.428 73.096C210.428 72.076 211.028 71.176 212.096 71.176C213.176 71.176 213.776 72.076 213.776 73.096C213.776 74.128 213.176 75.028 212.096 75.028ZM222.731 76L224.531 70.204H223.223L221.999 74.416L220.619 70.204H219.515L218.135 74.416L216.911 70.204H215.603L217.403 76H218.723L220.067 71.752L221.411 76H222.731Z" fill="white"/>
<defs>
<filter id="filter0_d" x="0.0588226" y="0.917646" width="289.882" height="135.882" filterUnits="userSpaceOnUse" color-interpolation-filters="sRGB">
<feFlood flood-opacity="0" result="BackgroundImageFix"/>
<feColorMatrix in="SourceAlpha" type="matrix" values="0 0 0 0 0 0 0 0 0 0 0 0 0 0 0 0 0 0 127 0"/>
<feOffset dy="3.85882"/>
<feGaussianBlur stdDeviation="14.4706"/>
<feColorMatrix type="matrix" values="0 0 0 0 0.329412 0 0 0 0 0.364706 0 0 0 0 0.388235 0 0 0 0.15 0"/>
<feBlend mode="normal" in2="BackgroundImageFix" result="effect1_dropShadow"/>
<feBlend mode="normal" in="SourceGraphic" in2="effect1_dropShadow" result="shape"/>
</filter>
</defs>
</svg>