<?xml version="1.0" encoding="UTF-8"?>
<!-- Generator: Adobe Illustrator 25.1.0, SVG Export Plug-In . SVG Version: 6.00 Build 0)  -->
<svg version="1.1" id="Layer_1" xmlns="http://www.w3.org/2000/svg" xmlns:xlink="http://www.w3.org/1999/xlink" x="0px" y="0px" viewBox="0 0 40.3 61.5" style="enable-background:new 0 0 40.3 61.5;" xml:space="preserve">
<style type="text/css">
	.st0{fill:#FD5C73;}
	.st1{fill:#FCD35C;}
	.st2{fill:#09C7F9;}
</style>
<circle class="st0" cx="5" cy="49" r="5"/>
<circle class="st1" cx="19.3" cy="7" r="7"/>
<g>
	<polygon class="st2" points="29.1,55.8 29.1,55.8 29.1,55.8  "/>
	<polygon class="st2" points="29.1,55.8 29.1,55.8 29.1,55.8  "/>
	<path class="st2" d="M35.8,59.6C35.8,59.6,35.8,59.6,35.8,59.6C35.8,59.6,35.8,59.6,35.8,59.6C35.8,59.6,35.8,59.6,35.8,59.6   C35.8,59.5,35.8,59.5,35.8,59.6c0.1-0.1,0.1-0.2,0.1-0.2c0.1-0.1,0.2-0.3,0.3-0.6c0.2-0.5,0.6-1.2,1-2c0.7-1.7,1.6-4.1,2.3-6.9   c1.2-5.4,1.7-13-3.3-19.2c-2.7-3.3-6.4-4.9-10.1-5.7c-3.7-0.7-7.5-0.6-10.9-0.2c-3.4,0.4-6.5,1.1-8.8,1.8c-1.1,0.3-2.1,0.6-2.7,0.8   c-0.3,0.1-0.6,0.2-0.8,0.3c-0.1,0-0.2,0.1-0.2,0.1c0,0,0,0-0.1,0c0,0,0,0,0,0c0,0,0,0,0,0c0,0,0,0,0,0l0,0c-2,0.7-3,2.9-2.3,4.9   c0.7,2,2.9,3,4.9,2.3l0,0c0,0,0,0,0,0c0,0,0,0,0,0c0,0,0,0,0,0c0,0,0,0,0,0c0,0,0.1,0,0.1-0.1c0.1,0,0.3-0.1,0.6-0.2   c0.6-0.2,1.4-0.4,2.4-0.7c2-0.6,4.8-1.2,7.7-1.5c3-0.4,5.9-0.4,8.5,0.1c2.6,0.5,4.4,1.5,5.6,3c2.8,3.4,2.9,8,1.8,12.6   c-0.5,2.2-1.2,4.1-1.8,5.5c-0.3,0.7-0.6,1.3-0.8,1.6c-0.1,0.2-0.2,0.3-0.2,0.4c0,0,0,0.1,0,0.1c0,0,0,0,0,0c0,0,0,0,0,0l0,0   c-1,1.9-0.4,4.2,1.5,5.3C32.4,62.1,34.8,61.4,35.8,59.6L35.8,59.6z"/>
</g>
</svg>