<svg width="372" height="173" viewBox="0 0 372 173" fill="none" xmlns="http://www.w3.org/2000/svg">
<g filter="url(#filter0_d)">
<rect x="29" y="26" width="314" height="114" rx="3.85882" fill="white"/>
<rect x="29.4824" y="26.4824" width="313.035" height="113.035" rx="3.37647" stroke="#EAEDEF" stroke-width="0.964706"/>
</g>
<path d="M52.4824 63C52.4824 61.0573 54.0573 59.4824 56 59.4824H316C317.943 59.4824 319.518 61.0573 319.518 63V119C319.518 120.943 317.943 122.518 316 122.518H56C54.0573 122.518 52.4824 120.943 52.4824 119V63Z" fill="white" stroke="#D0D7DC" stroke-width="0.964706"/>
<path d="M59.06 48L60.96 41.33H59.65L58.36 46.47L56.98 41.33H56.05L54.67 46.47L53.37 41.33H52.06L53.97 48H55.22L56.51 43.08L57.81 48H59.06ZM64.6579 48.12C66.6579 48.12 68.0679 46.66 68.0679 44.67C68.0679 42.68 66.6579 41.22 64.6579 41.22C62.6579 41.22 61.2479 42.68 61.2479 44.67C61.2479 46.66 62.6579 48.12 64.6579 48.12ZM64.6579 47.08C63.3079 47.08 62.4479 46.04 62.4479 44.67C62.4479 43.29 63.3079 42.26 64.6579 42.26C65.9979 42.26 66.8679 43.29 66.8679 44.67C66.8679 46.04 65.9979 47.08 64.6579 47.08ZM74.3544 48L72.7244 45.38C73.5244 45.25 74.3044 44.61 74.3044 43.42C74.3044 42.19 73.4444 41.33 72.1244 41.33H69.1944V48H70.3644V45.51H71.5244L73.0044 48H74.3544ZM71.9644 44.48H70.3644V42.36H71.9644C72.6244 42.36 73.1044 42.78 73.1044 43.42C73.1044 44.06 72.6244 44.48 71.9644 44.48ZM80.9037 48L77.9937 44.48L80.7037 41.33H79.2537L76.6437 44.51V41.33H75.4737V48H76.6437V45.87L77.2237 45.19L79.4637 48H80.9037ZM82.8546 48V45.12H86.1846V44.09H82.8546V42.36H86.2546V41.33H81.6846V48H82.8546ZM91.4098 48V46.97H88.4698V41.33H87.2998V48H91.4098ZM95.2731 48.12C97.2731 48.12 98.6831 46.66 98.6831 44.67C98.6831 42.68 97.2731 41.22 95.2731 41.22C93.2731 41.22 91.8631 42.68 91.8631 44.67C91.8631 46.66 93.2731 48.12 95.2731 48.12ZM95.2731 47.08C93.9231 47.08 93.0631 46.04 93.0631 44.67C93.0631 43.29 93.9231 42.26 95.2731 42.26C96.6131 42.26 97.4831 43.29 97.4831 44.67C97.4831 46.04 96.6131 47.08 95.2731 47.08ZM105.964 48L107.864 41.33H106.554L105.264 46.47L103.884 41.33H102.954L101.574 46.47L100.274 41.33H98.9643L100.874 48H102.124L103.414 43.08L104.714 48H105.964ZM117.216 48L114.596 41.33H113.136L110.516 48H111.846L112.336 46.72H115.396L115.886 48H117.216ZM115.066 45.69H112.666L113.866 42.51L115.066 45.69ZM120.793 48.12C122.143 48.12 122.963 47.42 123.473 46.62L122.473 46.11C122.153 46.67 121.513 47.08 120.793 47.08C119.473 47.08 118.493 46.07 118.493 44.67C118.493 43.27 119.473 42.26 120.793 42.26C121.513 42.26 122.153 42.68 122.473 43.23L123.473 42.72C122.973 41.92 122.143 41.22 120.793 41.22C118.823 41.22 117.293 42.62 117.293 44.67C117.293 46.72 118.823 48.12 120.793 48.12ZM127.169 48V42.36H129.189V41.33H123.979V42.36H125.999V48H127.169ZM131.351 48V41.33H130.181V48H131.351ZM135.879 48.12C137.879 48.12 139.289 46.66 139.289 44.67C139.289 42.68 137.879 41.22 135.879 41.22C133.879 41.22 132.469 42.68 132.469 44.67C132.469 46.66 133.879 48.12 135.879 48.12ZM135.879 47.08C134.529 47.08 133.669 46.04 133.669 44.67C133.669 43.29 134.529 42.26 135.879 42.26C137.219 42.26 138.089 43.29 138.089 44.67C138.089 46.04 137.219 47.08 135.879 47.08ZM146.195 48V41.33H145.025V45.96L141.615 41.33H140.415V48H141.585V43.24L145.065 48H146.195Z" fill="#121517"/>
<path d="M83.588 82.144C85.748 82.144 86.684 81.004 86.684 79.672C86.684 76.684 82.028 77.608 82.028 76.12C82.028 75.52 82.556 75.124 83.384 75.124C84.224 75.124 85.076 75.412 85.7 76.036L86.504 74.992C85.76 74.272 84.752 73.876 83.504 73.876C81.752 73.876 80.588 74.896 80.588 76.216C80.588 79.168 85.256 78.124 85.256 79.804C85.256 80.332 84.8 80.896 83.648 80.896C82.532 80.896 81.668 80.38 81.116 79.792L80.336 80.872C81.044 81.628 82.112 82.144 83.588 82.144ZM90.617 82.144C91.541 82.144 92.393 81.856 92.969 81.304L92.393 80.476C91.985 80.884 91.313 81.112 90.749 81.112C89.657 81.112 88.997 80.392 88.901 79.516H93.377V79.216C93.377 77.392 92.261 76.06 90.521 76.06C88.805 76.06 87.581 77.416 87.581 79.096C87.581 80.932 88.877 82.144 90.617 82.144ZM92.153 78.628H88.889C88.949 77.92 89.441 77.092 90.521 77.092C91.661 77.092 92.129 77.944 92.153 78.628ZM99.7927 82V77.92C99.7927 76.732 99.1687 76.06 97.9207 76.06C97.0087 76.06 96.2647 76.54 95.8807 76.996V76.204H94.6207V82H95.8807V77.956C96.1687 77.56 96.7207 77.176 97.3687 77.176C98.0767 77.176 98.5327 77.476 98.5327 78.376V82H99.7927ZM106.769 82V73.996H105.509V77.008C105.041 76.396 104.369 76.06 103.649 76.06C102.149 76.06 101.069 77.236 101.069 79.108C101.069 81.016 102.161 82.144 103.649 82.144C104.393 82.144 105.065 81.784 105.509 81.208V82H106.769ZM104.009 81.028C103.013 81.028 102.377 80.224 102.377 79.108C102.377 77.98 103.013 77.176 104.009 77.176C104.609 77.176 105.221 77.524 105.509 77.956V80.26C105.221 80.692 104.609 81.028 104.009 81.028ZM116.824 82V73.996H115.564V77.008C115.096 76.396 114.424 76.06 113.704 76.06C112.204 76.06 111.124 77.236 111.124 79.108C111.124 81.016 112.216 82.144 113.704 82.144C114.448 82.144 115.12 81.784 115.564 81.208V82H116.824ZM114.064 81.028C113.068 81.028 112.432 80.224 112.432 79.108C112.432 77.98 113.068 77.176 114.064 77.176C114.664 77.176 115.276 77.524 115.564 77.956V80.26C115.276 80.692 114.664 81.028 114.064 81.028ZM121.133 82.144C122.057 82.144 122.909 81.856 123.485 81.304L122.909 80.476C122.501 80.884 121.829 81.112 121.265 81.112C120.173 81.112 119.513 80.392 119.417 79.516H123.893V79.216C123.893 77.392 122.777 76.06 121.037 76.06C119.321 76.06 118.097 77.416 118.097 79.096C118.097 80.932 119.393 82.144 121.133 82.144ZM122.669 78.628H119.405C119.465 77.92 119.957 77.092 121.037 77.092C122.177 77.092 122.645 77.944 122.669 78.628ZM127.116 82.144C128.676 82.144 129.528 81.364 129.528 80.344C129.528 78.04 126.024 78.808 126.024 77.776C126.024 77.368 126.444 77.068 127.104 77.068C127.824 77.068 128.472 77.368 128.82 77.764L129.348 76.876C128.82 76.408 128.076 76.06 127.092 76.06C125.628 76.06 124.812 76.876 124.812 77.824C124.812 80.044 128.316 79.228 128.316 80.368C128.316 80.824 127.932 81.148 127.176 81.148C126.42 81.148 125.616 80.752 125.208 80.332L124.632 81.244C125.232 81.832 126.132 82.144 127.116 82.144ZM131.42 75.496C131.852 75.496 132.2 75.148 132.2 74.716C132.2 74.284 131.852 73.936 131.42 73.936C131 73.936 130.64 74.284 130.64 74.716C130.64 75.148 131 75.496 131.42 75.496ZM132.056 82V76.204H130.796V82H132.056ZM136.043 84.352C137.471 84.352 139.019 83.788 139.019 81.7V76.204H137.759V77.008C137.291 76.396 136.631 76.06 135.899 76.06C134.411 76.06 133.331 77.164 133.331 79.036C133.331 80.944 134.423 82.012 135.899 82.012C136.655 82.012 137.315 81.628 137.759 81.052V81.748C137.759 82.936 136.871 83.32 136.043 83.32C135.275 83.32 134.675 83.116 134.207 82.576L133.619 83.488C134.327 84.136 135.059 84.352 136.043 84.352ZM136.271 80.896C135.275 80.896 134.639 80.152 134.639 79.036C134.639 77.92 135.275 77.176 136.271 77.176C136.859 77.176 137.483 77.524 137.759 77.956V80.116C137.483 80.548 136.859 80.896 136.271 80.896ZM145.824 82V77.92C145.824 76.732 145.2 76.06 143.952 76.06C143.04 76.06 142.296 76.54 141.912 76.996V76.204H140.652V82H141.912V77.956C142.2 77.56 142.752 77.176 143.4 77.176C144.108 77.176 144.564 77.476 144.564 78.376V82H145.824ZM153.099 81.028C152.103 81.028 151.467 80.224 151.467 79.096C151.467 77.98 152.103 77.176 153.099 77.176C153.687 77.176 154.311 77.524 154.587 77.956V80.248C154.311 80.668 153.687 81.028 153.099 81.028ZM152.727 82.144C153.459 82.144 154.119 81.82 154.587 81.196V84.208H155.847V76.204H154.587V76.996C154.155 76.42 153.483 76.06 152.727 76.06C151.227 76.06 150.159 77.188 150.159 79.096C150.159 81.004 151.227 82.144 152.727 82.144ZM162.652 82V76.204H161.392V80.272C161.092 80.668 160.54 81.028 159.904 81.028C159.196 81.028 158.74 80.752 158.74 79.852V76.204H157.48V80.308C157.48 81.496 158.092 82.144 159.34 82.144C160.252 82.144 160.972 81.7 161.392 81.232V82H162.652ZM166.965 82.144C167.889 82.144 168.741 81.856 169.317 81.304L168.741 80.476C168.333 80.884 167.661 81.112 167.097 81.112C166.005 81.112 165.345 80.392 165.249 79.516H169.725V79.216C169.725 77.392 168.609 76.06 166.869 76.06C165.153 76.06 163.929 77.416 163.929 79.096C163.929 80.932 165.225 82.144 166.965 82.144ZM168.501 78.628H165.237C165.297 77.92 165.789 77.092 166.869 77.092C168.009 77.092 168.477 77.944 168.501 78.628ZM172.948 82.144C174.508 82.144 175.36 81.364 175.36 80.344C175.36 78.04 171.856 78.808 171.856 77.776C171.856 77.368 172.276 77.068 172.936 77.068C173.656 77.068 174.304 77.368 174.652 77.764L175.18 76.876C174.652 76.408 173.908 76.06 172.924 76.06C171.46 76.06 170.644 76.876 170.644 77.824C170.644 80.044 174.148 79.228 174.148 80.368C174.148 80.824 173.764 81.148 173.008 81.148C172.252 81.148 171.448 80.752 171.04 80.332L170.464 81.244C171.064 81.832 171.964 82.144 172.948 82.144ZM178.369 82.144C178.957 82.144 179.329 81.988 179.557 81.772L179.257 80.824C179.161 80.932 178.933 81.028 178.693 81.028C178.333 81.028 178.141 80.74 178.141 80.344V77.308H179.317V76.204H178.141V74.62H176.881V76.204H175.921V77.308H176.881V80.656C176.881 81.616 177.396 82.144 178.369 82.144ZM181.085 75.496C181.517 75.496 181.865 75.148 181.865 74.716C181.865 74.284 181.517 73.936 181.085 73.936C180.665 73.936 180.305 74.284 180.305 74.716C180.305 75.148 180.665 75.496 181.085 75.496ZM181.721 82V76.204H180.461V82H181.721ZM185.971 82.144C187.831 82.144 188.959 80.764 188.959 79.096C188.959 77.44 187.831 76.06 185.971 76.06C184.135 76.06 182.995 77.44 182.995 79.096C182.995 80.764 184.135 82.144 185.971 82.144ZM185.971 81.028C184.903 81.028 184.303 80.128 184.303 79.096C184.303 78.076 184.903 77.176 185.971 77.176C187.051 77.176 187.651 78.076 187.651 79.096C187.651 80.128 187.051 81.028 185.971 81.028ZM195.406 82V77.92C195.406 76.732 194.782 76.06 193.534 76.06C192.622 76.06 191.878 76.54 191.494 76.996V76.204H190.234V82H191.494V77.956C191.782 77.56 192.334 77.176 192.982 77.176C193.69 77.176 194.146 77.476 194.146 78.376V82H195.406ZM202.215 82V77.92C202.215 76.732 201.591 76.06 200.343 76.06C199.431 76.06 198.687 76.54 198.303 76.996V76.204H197.043V82H198.303V77.956C198.591 77.56 199.143 77.176 199.791 77.176C200.499 77.176 200.955 77.476 200.955 78.376V82H202.215ZM208.651 82V78.16C208.651 76.6 207.523 76.06 206.239 76.06C205.315 76.06 204.475 76.36 203.803 76.996L204.319 77.872C204.823 77.38 205.387 77.14 206.035 77.14C206.839 77.14 207.391 77.548 207.391 78.22V79.084C206.971 78.592 206.299 78.34 205.519 78.34C204.571 78.34 203.503 78.892 203.503 80.224C203.503 81.508 204.571 82.144 205.519 82.144C206.287 82.144 206.959 81.868 207.391 81.376V82H208.651ZM206.011 81.28C205.303 81.28 204.775 80.872 204.775 80.248C204.775 79.612 205.303 79.204 206.011 79.204C206.563 79.204 207.103 79.408 207.391 79.804V80.68C207.103 81.076 206.563 81.28 206.011 81.28ZM210.909 75.496C211.341 75.496 211.689 75.148 211.689 74.716C211.689 74.284 211.341 73.936 210.909 73.936C210.489 73.936 210.129 74.284 210.129 74.716C210.129 75.148 210.489 75.496 210.909 75.496ZM211.545 82V76.204H210.285V82H211.545ZM214.439 82V78.052C214.691 77.644 215.399 77.284 215.927 77.284C216.083 77.284 216.215 77.296 216.323 77.32V76.072C215.567 76.072 214.871 76.504 214.439 77.056V76.204H213.179V82H214.439ZM220.015 82.144C220.939 82.144 221.791 81.856 222.367 81.304L221.791 80.476C221.383 80.884 220.711 81.112 220.147 81.112C219.055 81.112 218.395 80.392 218.299 79.516H222.775V79.216C222.775 77.392 221.659 76.06 219.919 76.06C218.203 76.06 216.979 77.416 216.979 79.096C216.979 80.932 218.275 82.144 220.015 82.144ZM221.551 78.628H218.287C218.347 77.92 218.839 77.092 219.919 77.092C221.059 77.092 221.527 77.944 221.551 78.628Z" fill="#121517"/>
<path d="M115.144 105V104.112H111.22C113.452 102.348 115.108 100.86 115.108 99.228C115.108 97.632 113.752 96.876 112.42 96.876C111.292 96.876 110.248 97.332 109.636 98.136L110.248 98.772C110.716 98.172 111.46 97.764 112.42 97.764C113.248 97.764 114.088 98.208 114.088 99.228C114.088 100.608 112.528 101.94 109.648 104.208V105H115.144ZM125.148 105V96.996H124.248V100.08C123.78 99.444 123.072 99.06 122.292 99.06C120.768 99.06 119.712 100.26 119.712 102.108C119.712 103.992 120.78 105.144 122.292 105.144C123.108 105.144 123.816 104.724 124.248 104.136V105H125.148ZM122.508 104.34C121.344 104.34 120.648 103.392 120.648 102.108C120.648 100.824 121.344 99.864 122.508 99.864C123.228 99.864 123.924 100.296 124.248 100.8V103.428C123.924 103.932 123.228 104.34 122.508 104.34ZM131.475 105V101.016C131.475 99.612 130.455 99.06 129.231 99.06C128.283 99.06 127.539 99.372 126.915 100.02L127.335 100.644C127.851 100.092 128.415 99.84 129.111 99.84C129.951 99.84 130.575 100.284 130.575 101.064V102.108C130.107 101.568 129.447 101.316 128.655 101.316C127.671 101.316 126.627 101.928 126.627 103.224C126.627 104.484 127.671 105.144 128.655 105.144C129.435 105.144 130.095 104.868 130.575 104.34V105H131.475ZM128.979 104.496C128.139 104.496 127.551 103.968 127.551 103.236C127.551 102.492 128.139 101.964 128.979 101.964C129.615 101.964 130.227 102.204 130.575 102.684V103.776C130.227 104.256 129.615 104.496 128.979 104.496ZM132.955 107.268C133.123 107.316 133.423 107.352 133.615 107.352C134.383 107.34 134.971 107.016 135.319 106.176L138.223 99.204H137.239L135.319 103.956L133.387 99.204H132.415L134.839 105.06L134.455 105.936C134.251 106.416 133.987 106.548 133.591 106.548C133.447 106.548 133.231 106.512 133.099 106.452L132.955 107.268ZM140.998 105.144C142.498 105.144 143.278 104.364 143.278 103.392C143.278 101.136 139.69 101.976 139.69 100.704C139.69 100.188 140.182 99.792 140.974 99.792C141.718 99.792 142.354 100.104 142.702 100.524L143.122 99.9C142.654 99.432 141.958 99.06 140.974 99.06C139.594 99.06 138.814 99.828 138.814 100.728C138.814 102.876 142.402 102.012 142.402 103.416C142.402 103.992 141.922 104.412 141.034 104.412C140.242 104.412 139.51 104.028 139.126 103.584L138.658 104.232C139.246 104.856 140.05 105.144 140.998 105.144ZM152.358 105V101.016C152.358 99.612 151.338 99.06 150.114 99.06C149.166 99.06 148.422 99.372 147.798 100.02L148.218 100.644C148.734 100.092 149.298 99.84 149.994 99.84C150.834 99.84 151.458 100.284 151.458 101.064V102.108C150.99 101.568 150.33 101.316 149.538 101.316C148.554 101.316 147.51 101.928 147.51 103.224C147.51 104.484 148.554 105.144 149.538 105.144C150.318 105.144 150.978 104.868 151.458 104.34V105H152.358ZM149.862 104.496C149.022 104.496 148.434 103.968 148.434 103.236C148.434 102.492 149.022 101.964 149.862 101.964C150.498 101.964 151.11 102.204 151.458 102.684V103.776C151.11 104.256 150.498 104.496 149.862 104.496ZM155.314 105V99.996H156.49V99.204H155.314V98.76C155.314 98.028 155.638 97.62 156.226 97.62C156.526 97.62 156.754 97.74 156.946 97.908L157.318 97.32C156.958 96.984 156.55 96.876 156.094 96.876C155.062 96.876 154.414 97.572 154.414 98.76V99.204H153.454V99.996H154.414V105H155.314ZM159.024 105.144C159.552 105.144 159.876 104.988 160.104 104.772L159.84 104.1C159.72 104.232 159.48 104.34 159.228 104.34C158.832 104.34 158.64 104.028 158.64 103.596V99.996H159.816V99.204H158.64V97.62H157.74V99.204H156.78V99.996H157.74V103.788C157.74 104.652 158.172 105.144 159.024 105.144ZM163.704 105.144C164.652 105.144 165.432 104.832 166.008 104.256L165.576 103.668C165.12 104.136 164.448 104.4 163.788 104.4C162.54 104.4 161.771 103.488 161.7 102.396H166.392V102.168C166.392 100.428 165.36 99.06 163.608 99.06C161.951 99.06 160.752 100.416 160.752 102.096C160.752 103.908 161.988 105.144 163.704 105.144ZM165.504 101.736H161.7C161.748 100.848 162.36 99.804 163.596 99.804C164.916 99.804 165.492 100.872 165.504 101.736ZM168.749 105V100.896C169.013 100.428 169.769 99.972 170.321 99.972C170.465 99.972 170.573 99.984 170.681 100.008V99.084C169.889 99.084 169.217 99.528 168.749 100.14V99.204H167.849V105H168.749ZM175.348 98.376C175.684 98.376 175.96 98.112 175.96 97.776C175.96 97.44 175.684 97.164 175.348 97.164C175.024 97.164 174.748 97.44 174.748 97.776C174.748 98.112 175.024 98.376 175.348 98.376ZM175.804 105V99.204H174.904V105H175.804ZM182.411 105V100.932C182.411 99.672 181.775 99.06 180.563 99.06C179.699 99.06 178.907 99.564 178.499 100.044V99.204H177.599V105H178.499V100.764C178.835 100.296 179.507 99.864 180.215 99.864C180.995 99.864 181.511 100.188 181.511 101.208V105H182.411ZM186.741 105L189.153 99.204H188.169L186.249 103.956L184.317 99.204H183.345L185.757 105H186.741ZM192.623 105.144C194.387 105.144 195.491 103.776 195.491 102.096C195.491 100.416 194.387 99.06 192.623 99.06C190.859 99.06 189.755 100.416 189.755 102.096C189.755 103.776 190.859 105.144 192.623 105.144ZM192.623 104.34C191.387 104.34 190.691 103.284 190.691 102.096C190.691 100.92 191.387 99.864 192.623 99.864C193.859 99.864 194.543 100.92 194.543 102.096C194.543 103.284 193.859 104.34 192.623 104.34ZM197.403 98.376C197.739 98.376 198.015 98.112 198.015 97.776C198.015 97.44 197.739 97.164 197.403 97.164C197.079 97.164 196.803 97.44 196.803 97.776C196.803 98.112 197.079 98.376 197.403 98.376ZM197.859 105V99.204H196.959V105H197.859ZM202.21 105.144C203.266 105.144 203.89 104.712 204.334 104.136L203.734 103.584C203.35 104.1 202.858 104.34 202.258 104.34C201.022 104.34 200.254 103.38 200.254 102.096C200.254 100.812 201.022 99.864 202.258 99.864C202.858 99.864 203.35 100.092 203.734 100.62L204.334 100.068C203.89 99.492 203.266 99.06 202.21 99.06C200.482 99.06 199.318 100.38 199.318 102.096C199.318 103.824 200.482 105.144 202.21 105.144ZM208.211 105.144C209.159 105.144 209.939 104.832 210.515 104.256L210.083 103.668C209.627 104.136 208.955 104.4 208.295 104.4C207.047 104.4 206.279 103.488 206.207 102.396H210.899V102.168C210.899 100.428 209.867 99.06 208.115 99.06C206.459 99.06 205.259 100.416 205.259 102.096C205.259 103.908 206.495 105.144 208.211 105.144ZM210.011 101.736H206.207C206.255 100.848 206.867 99.804 208.103 99.804C209.423 99.804 209.999 100.872 210.011 101.736ZM215.895 98.376C216.231 98.376 216.507 98.112 216.507 97.776C216.507 97.44 216.231 97.164 215.895 97.164C215.571 97.164 215.295 97.44 215.295 97.776C215.295 98.112 215.571 98.376 215.895 98.376ZM216.351 105V99.204H215.451V105H216.351ZM219.982 105.144C221.482 105.144 222.262 104.364 222.262 103.392C222.262 101.136 218.674 101.976 218.674 100.704C218.674 100.188 219.166 99.792 219.958 99.792C220.702 99.792 221.338 100.104 221.686 100.524L222.106 99.9C221.638 99.432 220.942 99.06 219.958 99.06C218.578 99.06 217.798 99.828 217.798 100.728C217.798 102.876 221.386 102.012 221.386 103.416C221.386 103.992 220.906 104.412 220.018 104.412C219.226 104.412 218.494 104.028 218.11 103.584L217.642 104.232C218.23 104.856 219.034 105.144 219.982 105.144ZM229.674 105.144C231.198 105.144 232.254 103.968 232.254 102.096C232.254 100.212 231.198 99.06 229.674 99.06C228.858 99.06 228.138 99.48 227.718 100.068V99.204H226.818V107.208H227.718V104.124C228.186 104.772 228.882 105.144 229.674 105.144ZM229.446 104.34C228.738 104.34 228.03 103.908 227.718 103.404V100.788C228.03 100.284 228.738 99.864 229.446 99.864C230.61 99.864 231.306 100.812 231.306 102.096C231.306 103.38 230.61 104.34 229.446 104.34ZM238.209 105V101.016C238.209 99.612 237.189 99.06 235.965 99.06C235.017 99.06 234.273 99.372 233.649 100.02L234.069 100.644C234.585 100.092 235.149 99.84 235.845 99.84C236.685 99.84 237.309 100.284 237.309 101.064V102.108C236.841 101.568 236.181 101.316 235.389 101.316C234.405 101.316 233.361 101.928 233.361 103.224C233.361 104.484 234.405 105.144 235.389 105.144C236.169 105.144 236.829 104.868 237.309 104.34V105H238.209ZM235.713 104.496C234.873 104.496 234.285 103.968 234.285 103.236C234.285 102.492 234.873 101.964 235.713 101.964C236.349 101.964 236.961 102.204 237.309 102.684V103.776C236.961 104.256 236.349 104.496 235.713 104.496ZM240.457 98.376C240.793 98.376 241.069 98.112 241.069 97.776C241.069 97.44 240.793 97.164 240.457 97.164C240.133 97.164 239.857 97.44 239.857 97.776C239.857 98.112 240.133 98.376 240.457 98.376ZM240.913 105V99.204H240.013V105H240.913ZM247.809 105V96.996H246.909V100.08C246.441 99.444 245.733 99.06 244.953 99.06C243.429 99.06 242.373 100.26 242.373 102.108C242.373 103.992 243.441 105.144 244.953 105.144C245.769 105.144 246.477 104.724 246.909 104.136V105H247.809ZM245.169 104.34C244.005 104.34 243.309 103.392 243.309 102.108C243.309 100.824 244.005 99.864 245.169 99.864C245.889 99.864 246.585 100.296 246.909 100.8V103.428C246.585 103.932 245.889 104.34 245.169 104.34Z" fill="#2D3439"/>
<path d="M95 93.2499C90.7187 93.2499 87.25 96.7186 87.25 101C87.25 105.281 90.7187 108.75 95 108.75C99.2812 108.75 102.75 105.281 102.75 101C102.75 96.7186 99.2812 93.2499 95 93.2499ZM95 107.25C91.5469 107.25 88.75 104.453 88.75 101C88.75 97.5468 91.5469 94.7499 95 94.7499C98.4531 94.7499 101.25 97.5468 101.25 101C101.25 104.453 98.4531 107.25 95 107.25ZM96.9312 103.987L94.2781 102.059C94.1812 101.987 94.125 101.875 94.125 101.756V96.6249C94.125 96.4186 94.2937 96.2499 94.5 96.2499H95.5C95.7062 96.2499 95.875 96.4186 95.875 96.6249V101.053L97.9625 102.572C98.1312 102.694 98.1656 102.928 98.0437 103.097L97.4562 103.906C97.3344 104.072 97.1 104.109 96.9312 103.987Z" fill="#121517"/>
<circle cx="55" cy="91" r="17" fill="#17A17E"/>
<path d="M46.8675 90.0296L60.93 84.7073C60.9807 84.6879 61.036 84.6836 61.0891 84.6949C61.1423 84.7062 61.191 84.7327 61.2294 84.7711C61.2678 84.8095 61.2942 84.8582 61.3056 84.9113C61.3169 84.9644 61.3126 85.0197 61.2932 85.0704L55.9709 99.1329C55.9497 99.1863 55.9127 99.232 55.8648 99.2637C55.8169 99.2955 55.7605 99.3118 55.703 99.3105C55.6456 99.3092 55.59 99.2903 55.5436 99.2564C55.4972 99.2226 55.4623 99.1753 55.4435 99.121L53.074 93.2819C53.0464 93.1991 52.9999 93.124 52.9382 93.0623C52.8765 93.0006 52.8013 92.9541 52.7186 92.9265L46.8795 90.559C46.8245 90.5407 46.7765 90.5059 46.742 90.4592C46.7076 90.4126 46.6884 90.3565 46.6871 90.2985C46.6858 90.2406 46.7024 90.1836 46.7347 90.1355C46.767 90.0873 46.8134 90.0503 46.8675 90.0296V90.0296Z" stroke="white" stroke-linecap="round" stroke-linejoin="round"/>
<path d="M61.1719 84.8285L52.9805 93.0199" stroke="white" stroke-linecap="round" stroke-linejoin="round"/>
<defs>
<filter id="filter0_d" x="0.0588226" y="0.917646" width="371.882" height="171.882" filterUnits="userSpaceOnUse" color-interpolation-filters="sRGB">
<feFlood flood-opacity="0" result="BackgroundImageFix"/>
<feColorMatrix in="SourceAlpha" type="matrix" values="0 0 0 0 0 0 0 0 0 0 0 0 0 0 0 0 0 0 127 0"/>
<feOffset dy="3.85882"/>
<feGaussianBlur stdDeviation="14.4706"/>
<feColorMatrix type="matrix" values="0 0 0 0 0.329412 0 0 0 0 0.364706 0 0 0 0 0.388235 0 0 0 0.15 0"/>
<feBlend mode="normal" in2="BackgroundImageFix" result="effect1_dropShadow"/>
<feBlend mode="normal" in="SourceGraphic" in2="effect1_dropShadow" result="shape"/>
</filter>
</defs>
</svg>