<svg width="35" height="35" xmlns="http://www.w3.org/2000/svg"><defs><radialGradient cx="14.931%" cy="100.347%" fx="14.931%" fy="100.347%" r="127.775%" id="a"><stop stop-color="#FFB140" offset="0%"/><stop stop-color="#FF5445" offset="25.59%"/><stop stop-color="#FC2B82" offset="59.9%"/><stop stop-color="#8E40B7" offset="100%"/></radialGradient></defs><g fill="none" fill-rule="evenodd"><path d="M0 0h35v35H0z"/><path d="M28.941 8.159a2.1 2.1 0 1 1-4.2 0 2.1 2.1 0 0 1 4.2 0zM17.5 23.333a5.833 5.833 0 1 1 0-11.666 5.833 5.833 0 0 1 0 11.666zm0-14.82a8.986 8.986 0 1 0 0 17.973 8.986 8.986 0 0 0 0-17.973zm0-5.36c4.673 0 5.226.018 7.071.102 1.707.078 2.633.363 3.25.603.817.317 1.4.697 2.012 1.31a5.418 5.418 0 0 1 1.31 2.011c.239.617.524 1.544.602 3.25.084 1.845.102 2.399.102 7.072 0 4.672-.018 5.226-.102 7.07-.078 1.707-.363 2.634-.603 3.25a5.423 5.423 0 0 1-1.309 2.013 5.418 5.418 0 0 1-2.012 1.309c-.617.24-1.543.525-3.25.603-1.845.084-2.398.102-7.071.102s-5.226-.018-7.072-.102c-1.706-.078-2.633-.363-3.25-.603a5.423 5.423 0 0 1-2.011-1.31 5.422 5.422 0 0 1-1.31-2.012c-.24-.616-.524-1.543-.602-3.25-.084-1.845-.102-2.398-.102-7.07 0-4.673.018-5.227.102-7.072.078-1.706.363-2.633.602-3.25.318-.816.697-1.4 1.31-2.012a5.418 5.418 0 0 1 2.012-1.31c.616-.239 1.543-.524 3.25-.602 1.845-.084 2.398-.102 7.071-.102zM17.5 0c-4.753 0-5.349.02-7.215.105C8.422.19 7.15.486 6.037.92a8.575 8.575 0 0 0-3.1 2.018 8.575 8.575 0 0 0-2.018 3.1C.486 7.15.19 8.422.105 10.285.02 12.15 0 12.747 0 17.5s.02 5.349.105 7.215c.085 1.863.381 3.135.814 4.248a8.575 8.575 0 0 0 2.018 3.1 8.579 8.579 0 0 0 3.1 2.018c1.113.433 2.385.729 4.248.814 1.866.085 2.462.105 7.215.105s5.349-.02 7.215-.105c1.863-.085 3.135-.381 4.248-.814a8.579 8.579 0 0 0 3.1-2.018 8.579 8.579 0 0 0 2.018-3.1c.433-1.113.729-2.385.814-4.248.085-1.866.105-2.462.105-7.215s-.02-5.349-.105-7.215c-.085-1.863-.381-3.135-.814-4.248a8.579 8.579 0 0 0-2.018-3.1 8.579 8.579 0 0 0-3.1-2.018C27.85.486 26.578.19 24.715.105 22.85.02 22.253 0 17.5 0z" fill="url(#a)"/></g></svg>