<svg width="35" height="35" viewBox="0 0 35 35" fill="none" xmlns="http://www.w3.org/2000/svg">
<path fill-rule="evenodd" clip-rule="evenodd" d="M0.000388406 30C0.000388406 27.2388 2.23911 25 5.00033 25C7.76155 25 10.0003 27.2388 10.0003 30C10.0003 32.7613 7.76155 35 5.00033 35C2.23911 35 0.000388406 32.7613 0.000388406 30ZM35 35H28.3338C28.3338 19.3762 15.624 6.66625 0.000388406 6.66625V0C19.2989 0 35 15.7013 35 35ZM23.3335 35H16.6673C16.6673 25.81 9.1899 18.3338 0 18.3338V11.6662C12.8661 11.6662 23.3335 22.1338 23.3335 35Z" fill="#FF9A00"/>
</svg>
